<?xml version="1.0" encoding="utf-8" standalone="no"?>
<svg xmlns:dc="http://purl.org/dc/elements/1.1/"
xmlns:cc="http://web.resource.org/cc/"
xmlns:rdf="http://www.w3.org/1999/02/22-rdf-syntax-ns#"
xmlns:svg="http://www.w3.org/2000/svg"
xmlns="http://www.w3.org/2000/svg" width="520" height="280"
version="1.0">
  <metadata>
    <rdf:RDF>
      <cc:Work rdf:about="">
        <dc:format>image/svg+xml</dc:format>
        <dc:type rdf:resource="http://purl.org/dc/dcmitype/StillImage" />
        <cc:license rdf:resource="http://www.gnu.org/copyleft/fdl.html" />
      </cc:Work>
    </rdf:RDF>
  </metadata>
  <defs />
  <g>
    <text x="13.555242" y="74.439613"
    style="font-size:20.39233589px;font-style:normal;font-weight:normal;text-anchor:start;fill:#000000;stroke:#000000;stroke-width:0.00168254in;font-family:Arial">
    Probability</text>
    <text x="13.555242" y="99.677658"
    style="font-size:20.39233589px;font-style:normal;font-weight:normal;text-anchor:start;fill:#000000;stroke:#000000;stroke-width:0.00168254in;font-family:Arial">
    density</text>
    <path d="M 126.89974,42.712728 L 126.89974,224.42661 L 470.27169,224.42661"
    style="fill:none;stroke:#000000;stroke-width:2.15364599" />
    <path d="M 465.39396,227.58978 L 471.7876,224.42661 L 465.39396,221.26345 L 465.39396,227.58978 z"
    style="fill:#000000;stroke:#000000;stroke-width:2.15364599" />
    <path d="M 130.06291,47.590455 L 126.89974,41.26412 L 123.73657,47.590455 L 130.06291,47.590455 z"
    style="fill:#000000;stroke:#000000;stroke-width:2.15364599" />
    <path d="M 374.90555,52.740643 L 374.90555,224.42661"
    style="fill:none;stroke:#000000;stroke-width:1.076823" />
    <path d="M 225.49635,33.454586 L 225.49635,224.36632"
    style="fill:none;stroke:#000000;stroke-width:1.13551593" />
    <path d="M 225.49635,84.506923 L 374.90555,84.506923"
    style="fill:none;stroke:#000000;stroke-width:1.076823" />
    <path d="M 366.70214,87.737392 L 373.02848,84.506923 L 366.70214,81.343755 L 366.70214,87.737392 z"
    style="fill:#000000;stroke:#000000;stroke-width:2.15364599" />
    <path d="M 233.83233,81.343755 L 227.4387,84.506923 L 233.83233,87.737392 L 233.83233,81.343755 z"
    style="fill:#000000;stroke:#000000;stroke-width:2.15364599" />
    <path d="M 311.30569,243.54022 L 441.66858,243.54022"
    style="fill:none;stroke:#000000;stroke-width:1.076823" />
    <path d="M 434.13081,246.70339 L 440.45715,243.54022 L 434.13081,240.30975 L 434.13081,246.70339 z"
    style="fill:#000000;stroke:#000000;stroke-width:2.15364599" />
    <path d="M 318.91075,240.30975 L 312.51711,243.54022 L 318.91075,246.70339 L 318.91075,240.30975 z"
    style="fill:#000000;stroke:#000000;stroke-width:2.15364599" />
    <path d="M 295.42255,224.42661 L 295.69175,224.42661 L 296.29746,224.42661 L 297.17238,224.35931 L 298.65302,224.35931 L 300.53746,224.22471 L 302.6238,224.15741 L 305.04665,224.0228 L 307.4695,223.8882 L 309.89236,223.7536 L 312.31521,223.48439 L 314.40155,223.28249 L 316.4879,223.01328 L 318.30504,222.74408 L 319.92027,222.47487 L 321.4009,222.07106 L 322.74693,221.66725 L 323.95836,221.26345 L 325.10248,220.79234 L 326.1793,220.18662 L 327.05422,219.64821 L 327.92914,218.9752 L 328.73676,218.36948 L 329.61168,217.56187 L 330.4193,216.75425 L 331.15961,215.81203 L 331.96723,214.73521 L 332.64024,213.59108 L 333.38056,212.44696 L 334.05357,211.03363 L 334.79389,209.6203 L 335.4669,208.07236 L 336.13992,206.38983 L 336.74563,204.63999 L 337.41864,202.82285 L 338.02436,200.87111 L 338.56277,198.91937 L 339.23578,196.90032 L 339.7742,194.74668 L 340.37991,192.59303 L 340.91832,190.23748 L 341.59133,187.88193 L 341.99514,186.06479 L 342.39895,184.18035 L 342.87006,182.16131 L 343.40847,180.14227 L 343.87958,177.92132 L 344.41799,175.76767 L 344.8891,173.47942 L 345.42752,171.05657 L 346.03323,168.70102 L 346.57164,166.21087 L 347.11005,163.65341 L 347.71577,161.09596 L 348.32148,158.5385 L 348.92719,155.91375 L 349.5329,153.28899 L 350.20592,150.66424 L 350.74433,148.03948 L 351.35004,145.48202 L 351.95576,142.99187 L 352.56147,140.56902 L 353.16718,138.14617 L 353.70559,135.85792 L 354.244,133.63697 L 354.84972,131.55063 L 355.38813,129.46428 L 355.99384,127.51254 L 356.46495,125.5608 L 356.93606,123.81096 L 357.47447,122.19573 L 357.94558,120.58049 L 358.7532,118.09034 L 359.56082,115.73479 L 360.36844,113.64844 L 361.10875,111.764 L 361.91637,109.87956 L 362.65668,108.19703 L 363.4643,106.71639 L 364.27192,105.37037 L 365.01224,104.15894 L 365.75255,103.08212 L 366.42557,102.2072 L 367.09858,101.39958 L 367.70429,100.79387 L 368.2427,100.18816 L 368.78112,99.784353 L 369.25223,99.380543 L 369.72334,99.111333 L 370.19445,98.842133 L 371.00206,98.371019 L 371.74238,98.034512 L 372.4827,97.765306 L 373.29031,97.563402 L 373.96333,97.361498 L 374.56904,97.294196 L 374.83825,97.226895 L 374.90555,97.226895"
    style="fill:none;stroke:#000000;stroke-width:1.076823" />
    <path d="M 454.38855,224.42661 L 454.11934,224.42661 L 453.58093,224.42661 L 452.63871,224.35931 L 451.15808,224.35931 L 449.34094,224.22471 L 447.18729,224.15741 L 444.76444,224.0228 L 442.34159,223.8882 L 439.91874,223.7536 L 437.49589,223.48439 L 435.40954,223.28249 L 433.3232,223.01328 L 431.50606,222.74408 L 429.89082,222.47487 L 428.41019,222.07106 L 427.06416,221.66725 L 425.85274,221.26345 L 424.70861,220.79234 L 423.63179,220.18662 L 422.75687,219.64821 L 421.88195,218.9752 L 421.07433,218.36948 L 420.19942,217.56187 L 419.3918,216.75425 L 418.65148,215.81203 L 417.84387,214.73521 L 417.17085,213.59108 L 416.43054,212.44696 L 415.75752,211.03363 L 415.01721,209.6203 L 414.34419,208.07236 L 413.67118,206.38983 L 413.06546,204.63999 L 412.45975,202.82285 L 411.78674,200.87111 L 411.24832,198.91937 L 410.57531,196.90032 L 410.0369,194.74668 L 409.43119,192.59303 L 408.89277,190.23748 L 408.35436,187.88193 L 407.81595,186.06479 L 407.41214,184.18035 L 406.94103,182.16131 L 406.40262,180.14227 L 405.93151,177.92132 L 405.4604,175.76767 L 404.92199,173.47942 L 404.38358,171.05657 L 403.77786,168.70102 L 403.23945,166.21087 L 402.70104,163.65341 L 402.09533,161.09596 L 401.48962,158.5385 L 400.8839,155.91375 L 400.27819,153.28899 L 399.67248,150.66424 L 399.06676,148.03948 L 398.46105,145.48202 L 397.85534,142.99187 L 397.24962,140.56902 L 396.64391,138.14617 L 396.1055,135.85792 L 395.56709,133.63697 L 394.96138,131.55063 L 394.42296,129.46428 L 393.81725,127.51254 L 393.34614,125.5608 L 392.87503,123.81096 L 392.33662,122.19573 L 391.86551,120.58049 L 391.05789,118.09034 L 390.25028,115.73479 L 389.44266,113.64844 L 388.70234,111.764 L 387.89472,109.87956 L 387.15441,108.19703 L 386.34679,106.71639 L 385.60648,105.37037 L 384.79886,104.15894 L 384.12584,103.08212 L 383.38553,102.2072 L 382.77982,101.39958 L 382.1068,100.79387 L 381.56839,100.18816 L 381.02998,99.784353 L 380.55887,99.380543 L 380.08776,99.111333 L 379.68395,98.842133 L 378.80903,98.371019 L 378.06871,98.034512 L 377.3284,97.765306 L 376.52078,97.563402 L 375.84777,97.361498 L 375.24205,97.294196 L 374.97285,97.226895 L 374.90555,97.226895"
    style="fill:none;stroke:#000000;stroke-width:1.076823" />
    <text x="255.17628" y="75.017426"
    style="font-size:20.39233589px;font-style:normal;font-weight:normal;text-anchor:start;fill:#000000;stroke:#000000;stroke-width:0.00168254in;font-family:Arial">
    Accuracy</text>
    <text x="332.41931" y="267.30652"
    style="font-size:20.39233589px;font-style:normal;font-weight:normal;text-anchor:start;fill:#000000;stroke:#000000;stroke-width:0.00168254in;font-family:Arial">
    Precision</text>
    <text x="454.38855" y="252.58653"
    style="font-size:20.39233589px;font-style:normal;font-weight:normal;text-anchor:start;fill:#000000;stroke:#000000;stroke-width:0.00168254in;font-family:Arial">
    Value</text>
    <text x="155.50284" y="27.300697"
    style="font-size:20.39233589px;font-style:normal;font-weight:normal;text-anchor:start;fill:#000000;stroke:#000000;stroke-width:0.00168254in;font-family:Arial">
    Reference value</text>
  </g>
</svg>
