<?xml version="1.0" encoding="utf-8" standalone="no" ?>
<svg version="1.1"
     xmlns="http://www.w3.org/2000/svg"
     xmlns:xlink="http://www.w3.org/1999/xlink"
     viewBox="-300 -150 600 300"
     width="700" height="350"
>

<title>Sigmoidal Functions</title>

<defs>

<path id="d0" d="M 4.578125 -3.1875 C 4.578125 -3.984375 4.53125 -4.78125 4.1875 -5.515625 C 3.734375 -6.484375 2.90625 -6.640625 2.5 -6.640625 C 1.890625 -6.640625 1.171875 -6.375 0.75 -5.453125 C 0.4375 -4.765625 0.390625 -3.984375 0.390625 -3.1875 C 0.390625 -2.4375 0.421875 -1.546875 0.84375 -0.78125 C 1.265625 0.015625 2 0.21875 2.484375 0.21875 C 3.015625 0.21875 3.78125 0.015625 4.21875 -0.9375 C 4.53125 -1.625 4.578125 -2.40625 4.578125 -3.1875 Z M 2.484375 0 C 2.09375 0 1.5 -0.25 1.328125 -1.203125 C 1.21875 -1.796875 1.21875 -2.71875 1.21875 -3.3125 C 1.21875 -3.953125 1.21875 -4.609375 1.296875 -5.140625 C 1.484375 -6.328125 2.234375 -6.421875 2.484375 -6.421875 C 2.8125 -6.421875 3.46875 -6.234375 3.65625 -5.25 C 3.765625 -4.6875 3.765625 -3.9375 3.765625 -3.3125 C 3.765625 -2.5625 3.765625 -1.890625 3.65625 -1.25 C 3.5 -0.296875 2.9375 0 2.484375 0 Z M 2.484375 0 "/>
<path id="d1" d="M 2.9375 -6.375 C 2.9375 -6.625 2.9375 -6.640625 2.703125 -6.640625 C 2.078125 -6 1.203125 -6 0.890625 -6 L 0.890625 -5.6875 C 1.09375 -5.6875 1.671875 -5.6875 2.1875 -5.953125 L 2.1875 -0.78125 C 2.1875 -0.421875 2.15625 -0.3125 1.265625 -0.3125 L 0.953125 -0.3125 L 0.953125 0 C 1.296875 -0.03125 2.15625 -0.03125 2.5625 -0.03125 C 2.953125 -0.03125 3.828125 -0.03125 4.171875 0 L 4.171875 -0.3125 L 3.859375 -0.3125 C 2.953125 -0.3125 2.9375 -0.421875 2.9375 -0.78125 L 2.9375 -6.375 Z M 2.9375 -6.375 "/>
<path id="d2" d="M 4.46875 -1.734375 L 4.234375 -1.734375 C 4.171875 -1.4375 4.109375 -1 4 -0.84375 C 3.9375 -0.765625 3.28125 -0.765625 3.0625 -0.765625 L 1.265625 -0.765625 L 2.328125 -1.796875 C 3.875 -3.171875 4.46875 -3.703125 4.46875 -4.703125 C 4.46875 -5.84375 3.578125 -6.640625 2.359375 -6.640625 C 1.234375 -6.640625 0.5 -5.71875 0.5 -4.828125 C 0.5 -4.28125 1 -4.28125 1.03125 -4.28125 C 1.203125 -4.28125 1.546875 -4.390625 1.546875 -4.8125 C 1.546875 -5.0625 1.359375 -5.328125 1.015625 -5.328125 C 0.9375 -5.328125 0.921875 -5.328125 0.890625 -5.3125 C 1.109375 -5.96875 1.65625 -6.328125 2.234375 -6.328125 C 3.140625 -6.328125 3.5625 -5.515625 3.5625 -4.703125 C 3.5625 -3.90625 3.078125 -3.125 2.515625 -2.5 L 0.609375 -0.375 C 0.5 -0.265625 0.5 -0.234375 0.5 0 L 4.203125 0 L 4.46875 -1.734375 Z M 4.46875 -1.734375 "/>
<path id="d5" d="M 4.46875 -2 C 4.46875 -3.1875 3.65625 -4.1875 2.578125 -4.1875 C 2.109375 -4.1875 1.671875 -4.03125 1.3125 -3.671875 L 1.3125 -5.625 C 1.515625 -5.5625 1.84375 -5.5 2.15625 -5.5 C 3.390625 -5.5 4.09375 -6.40625 4.09375 -6.53125 C 4.09375 -6.59375 4.0625 -6.640625 3.984375 -6.640625 C 3.984375 -6.640625 3.953125 -6.640625 3.90625 -6.609375 C 3.703125 -6.515625 3.21875 -6.3125 2.546875 -6.3125 C 2.15625 -6.3125 1.6875 -6.390625 1.21875 -6.59375 C 1.140625 -6.625 1.125 -6.625 1.109375 -6.625 C 1 -6.625 1 -6.546875 1 -6.390625 L 1 -3.4375 C 1 -3.265625 1 -3.1875 1.140625 -3.1875 C 1.21875 -3.1875 1.234375 -3.203125 1.28125 -3.265625 C 1.390625 -3.421875 1.75 -3.96875 2.5625 -3.96875 C 3.078125 -3.96875 3.328125 -3.515625 3.40625 -3.328125 C 3.5625 -2.953125 3.59375 -2.578125 3.59375 -2.078125 C 3.59375 -1.71875 3.59375 -1.125 3.34375 -0.703125 C 3.109375 -0.3125 2.734375 -0.0625 2.28125 -0.0625 C 1.5625 -0.0625 0.984375 -0.59375 0.8125 -1.171875 C 0.84375 -1.171875 0.875 -1.15625 0.984375 -1.15625 C 1.3125 -1.15625 1.484375 -1.40625 1.484375 -1.640625 C 1.484375 -1.890625 1.3125 -2.140625 0.984375 -2.140625 C 0.84375 -2.140625 0.5 -2.0625 0.5 -1.609375 C 0.5 -0.75 1.1875 0.21875 2.296875 0.21875 C 3.453125 0.21875 4.46875 -0.734375 4.46875 -2 Z M 4.46875 -2 "/>

<path id="lparen" d="M 3.296875 2.390625 C 3.296875 2.359375 3.296875 2.34375 3.125 2.171875 C 1.890625 0.921875 1.5625 -0.96875 1.5625 -2.5 C 1.5625 -4.234375 1.9375 -5.96875 3.171875 -7.203125 C 3.296875 -7.328125 3.296875 -7.34375 3.296875 -7.375 C 3.296875 -7.453125 3.265625 -7.484375 3.203125 -7.484375 C 3.09375 -7.484375 2.203125 -6.796875 1.609375 -5.53125 C 1.109375 -4.4375 0.984375 -3.328125 0.984375 -2.5 C 0.984375 -1.71875 1.09375 -0.515625 1.640625 0.625 C 2.25 1.84375 3.09375 2.5 3.203125 2.5 C 3.265625 2.5 3.296875 2.46875 3.296875 2.390625 Z M 3.296875 2.390625 "/>
<path id="rparen" d="M 2.875 -2.5 C 2.875 -3.265625 2.765625 -4.46875 2.21875 -5.609375 C 1.625 -6.828125 0.765625 -7.484375 0.671875 -7.484375 C 0.609375 -7.484375 0.5625 -7.4375 0.5625 -7.375 C 0.5625 -7.34375 0.5625 -7.328125 0.75 -7.140625 C 1.734375 -6.15625 2.296875 -4.578125 2.296875 -2.5 C 2.296875 -0.78125 1.9375 0.96875 0.703125 2.21875 C 0.5625 2.34375 0.5625 2.359375 0.5625 2.390625 C 0.5625 2.453125 0.609375 2.5 0.671875 2.5 C 0.765625 2.5 1.671875 1.8125 2.25 0.546875 C 2.765625 -0.546875 2.875 -1.65625 2.875 -2.5 Z M 2.875 -2.5 "/>

<path id="a" d="M 3.3125 -0.75 C 3.359375 -0.359375 3.625 0.0625 4.09375 0.0625 C 4.3125 0.0625 4.921875 -0.078125 4.921875 -0.890625 L 4.921875 -1.453125 L 4.671875 -1.453125 L 4.671875 -0.890625 C 4.671875 -0.3125 4.421875 -0.25 4.3125 -0.25 C 3.984375 -0.25 3.9375 -0.703125 3.9375 -0.75 L 3.9375 -2.734375 C 3.9375 -3.15625 3.9375 -3.546875 3.578125 -3.921875 C 3.1875 -4.3125 2.6875 -4.46875 2.21875 -4.46875 C 1.390625 -4.46875 0.703125 -4 0.703125 -3.34375 C 0.703125 -3.046875 0.90625 -2.875 1.171875 -2.875 C 1.453125 -2.875 1.625 -3.078125 1.625 -3.328125 C 1.625 -3.453125 1.578125 -3.78125 1.109375 -3.78125 C 1.390625 -4.140625 1.875 -4.25 2.1875 -4.25 C 2.6875 -4.25 3.25 -3.859375 3.25 -2.96875 L 3.25 -2.609375 C 2.734375 -2.578125 2.046875 -2.546875 1.421875 -2.25 C 0.671875 -1.90625 0.421875 -1.390625 0.421875 -0.953125 C 0.421875 -0.140625 1.390625 0.109375 2.015625 0.109375 C 2.671875 0.109375 3.125 -0.296875 3.3125 -0.75 Z M 3.25 -2.390625 L 3.25 -1.390625 C 3.25 -0.453125 2.53125 -0.109375 2.078125 -0.109375 C 1.59375 -0.109375 1.1875 -0.453125 1.1875 -0.953125 C 1.1875 -1.5 1.609375 -2.328125 3.25 -2.390625 Z M 3.25 -2.390625 "/>
<path id="c" d="M 3.578125 -3.84375 C 3.171875 -3.8125 3.109375 -3.515625 3.109375 -3.390625 C 3.109375 -3.125 3.296875 -2.9375 3.5625 -2.9375 C 3.828125 -2.9375 4.03125 -3.09375 4.03125 -3.40625 C 4.03125 -4.078125 3.265625 -4.46875 2.5 -4.46875 C 1.25 -4.46875 0.34375 -3.390625 0.34375 -2.15625 C 0.34375 -0.875 1.328125 0.109375 2.484375 0.109375 C 3.8125 0.109375 4.140625 -1.09375 4.140625 -1.1875 C 4.140625 -1.28125 4.03125 -1.28125 4 -1.28125 C 3.921875 -1.28125 3.890625 -1.25 3.875 -1.1875 C 3.59375 -0.265625 2.9375 -0.140625 2.578125 -0.140625 C 2.046875 -0.140625 1.171875 -0.5625 1.171875 -2.171875 C 1.171875 -3.796875 1.984375 -4.21875 2.515625 -4.21875 C 2.609375 -4.21875 3.234375 -4.203125 3.578125 -3.84375 Z M 3.578125 -3.84375 "/>
<path id="d" d="M 3.78125 -0.546875 L 3.78125 0.109375 L 5.25 0 L 5.25 -0.3125 C 4.5625 -0.3125 4.46875 -0.375 4.46875 -0.875 L 4.46875 -6.921875 L 3.046875 -6.8125 L 3.046875 -6.5 C 3.734375 -6.5 3.8125 -6.4375 3.8125 -5.9375 L 3.8125 -3.78125 C 3.53125 -4.140625 3.09375 -4.40625 2.5625 -4.40625 C 1.390625 -4.40625 0.34375 -3.421875 0.34375 -2.140625 C 0.34375 -0.875 1.3125 0.109375 2.453125 0.109375 C 3.09375 0.109375 3.53125 -0.234375 3.78125 -0.546875 Z M 3.78125 -3.21875 L 3.78125 -1.171875 C 3.78125 -1 3.78125 -0.984375 3.671875 -0.8125 C 3.375 -0.328125 2.9375 -0.109375 2.5 -0.109375 C 2.046875 -0.109375 1.6875 -0.375 1.453125 -0.75 C 1.203125 -1.15625 1.171875 -1.71875 1.171875 -2.140625 C 1.171875 -2.5 1.1875 -3.09375 1.46875 -3.546875 C 1.6875 -3.859375 2.0625 -4.1875 2.609375 -4.1875 C 2.953125 -4.1875 3.375 -4.03125 3.671875 -3.59375 C 3.78125 -3.421875 3.78125 -3.40625 3.78125 -3.21875 Z M 3.78125 -3.21875 "/>
<path id="e" d="M 3.890625 -2.296875 C 4.109375 -2.296875 4.140625 -2.296875 4.140625 -2.515625 C 4.140625 -3.5 3.59375 -4.46875 2.359375 -4.46875 C 1.203125 -4.46875 0.28125 -3.4375 0.28125 -2.1875 C 0.28125 -0.859375 1.328125 0.109375 2.46875 0.109375 C 3.6875 0.109375 4.140625 -1 4.140625 -1.1875 C 4.140625 -1.28125 4.0625 -1.3125 4 -1.3125 C 3.921875 -1.3125 3.890625 -1.25 3.875 -1.171875 C 3.53125 -0.140625 2.625 -0.140625 2.53125 -0.140625 C 2.03125 -0.140625 1.640625 -0.4375 1.40625 -0.8125 C 1.109375 -1.28125 1.109375 -1.9375 1.109375 -2.296875 L 3.890625 -2.296875 Z M 1.109375 -2.515625 C 1.171875 -4 2.015625 -4.25 2.359375 -4.25 C 3.375 -4.25 3.484375 -2.90625 3.484375 -2.515625 L 1.109375 -2.515625 Z M 1.109375 -2.515625 "/>
<path id="f" d="M 1.78125 -3.984375 L 2.90625 -3.984375 L 2.90625 -4.296875 L 1.75 -4.296875 L 1.75 -5.453125 C 1.75 -6.328125 2.21875 -6.8125 2.65625 -6.8125 C 2.6875 -6.8125 2.84375 -6.8125 2.984375 -6.734375 C 2.875 -6.703125 2.6875 -6.5625 2.6875 -6.3125 C 2.6875 -6.09375 2.84375 -5.890625 3.125 -5.890625 C 3.40625 -5.890625 3.5625 -6.09375 3.5625 -6.328125 C 3.5625 -6.703125 3.1875 -7.03125 2.65625 -7.03125 C 1.96875 -7.03125 1.109375 -6.5 1.109375 -5.4375 L 1.109375 -4.296875 L 0.328125 -4.296875 L 0.328125 -3.984375 L 1.109375 -3.984375 L 1.109375 -0.75 C 1.109375 -0.3125 1 -0.3125 0.34375 -0.3125 L 0.34375 0 C 0.734375 -0.015625 1.203125 -0.03125 1.46875 -0.03125 C 1.875 -0.03125 2.34375 -0.03125 2.734375 0 L 2.734375 -0.3125 L 2.53125 -0.3125 C 1.796875 -0.3125 1.78125 -0.421875 1.78125 -0.78125 L 1.78125 -3.984375 Z M 1.78125 -3.984375 "/>
<path id="g" d="M 2.21875 -1.71875 C 1.34375 -1.71875 1.34375 -2.71875 1.34375 -2.9375 C 1.34375 -3.203125 1.359375 -3.53125 1.5 -3.78125 C 1.578125 -3.890625 1.8125 -4.171875 2.21875 -4.171875 C 3.078125 -4.171875 3.078125 -3.1875 3.078125 -2.953125 C 3.078125 -2.6875 3.078125 -2.359375 2.921875 -2.109375 C 2.84375 -2 2.609375 -1.71875 2.21875 -1.71875 Z M 1.21875 -1.796875 C 1.609375 -1.515625 2.03125 -1.484375 2.21875 -1.484375 C 3.140625 -1.484375 3.828125 -2.171875 3.828125 -2.9375 C 3.828125 -3.3125 3.671875 -3.671875 3.421875 -3.90625 C 3.78125 -4.25 4.140625 -4.296875 4.3125 -4.296875 C 4.34375 -4.296875 4.390625 -4.296875 4.421875 -4.28125 C 4.3125 -4.25 4.25 -4.140625 4.25 -4.015625 C 4.25 -3.84375 4.390625 -3.734375 4.546875 -3.734375 C 4.640625 -3.734375 4.828125 -3.796875 4.828125 -4.03125 C 4.828125 -4.203125 4.71875 -4.515625 4.328125 -4.515625 C 4.125 -4.515625 3.6875 -4.453125 3.265625 -4.046875 C 2.84375 -4.375 2.4375 -4.40625 2.21875 -4.40625 C 1.28125 -4.40625 0.59375 -3.71875 0.59375 -2.953125 C 0.59375 -2.515625 0.8125 -2.140625 1.0625 -1.921875 C 0.9375 -1.78125 0.75 -1.453125 0.75 -1.09375 C 0.75 -0.78125 0.890625 -0.40625 1.203125 -0.203125 C 0.59375 -0.046875 0.28125 0.390625 0.28125 0.78125 C 0.28125 1.5 1.265625 2.046875 2.484375 2.046875 C 3.65625 2.046875 4.6875 1.546875 4.6875 0.765625 C 4.6875 0.421875 4.5625 -0.09375 4.046875 -0.375 C 3.515625 -0.640625 2.9375 -0.640625 2.328125 -0.640625 C 2.078125 -0.640625 1.65625 -0.640625 1.578125 -0.65625 C 1.265625 -0.703125 1.0625 -1 1.0625 -1.328125 C 1.0625 -1.359375 1.0625 -1.59375 1.21875 -1.796875 Z M 2.5 1.828125 C 1.484375 1.828125 0.796875 1.3125 0.796875 0.78125 C 0.796875 0.328125 1.171875 -0.046875 1.609375 -0.0625 L 2.203125 -0.0625 C 3.0625 -0.0625 4.171875 -0.0625 4.171875 0.78125 C 4.171875 1.328125 3.46875 1.828125 2.5 1.828125 Z M 2.5 1.828125 "/>
<path id="h" d="M 4.5625 -2.515625 C 4.5625 -3.375 4.5625 -3.671875 4.25 -4.03125 C 4.109375 -4.203125 3.78125 -4.40625 3.203125 -4.40625 C 2.359375 -4.40625 1.921875 -3.8125 1.765625 -3.453125 L 1.75 -3.453125 L 1.75 -6.921875 L 0.3125 -6.8125 L 0.3125 -6.5 C 1.015625 -6.5 1.09375 -6.4375 1.09375 -5.9375 L 1.09375 -0.75 C 1.09375 -0.3125 0.984375 -0.3125 0.3125 -0.3125 L 0.3125 0 C 0.671875 -0.015625 1.171875 -0.03125 1.453125 -0.03125 C 1.703125 -0.03125 2.21875 -0.015625 2.5625 0 L 2.5625 -0.3125 C 1.890625 -0.3125 1.78125 -0.3125 1.78125 -0.75 L 1.78125 -2.59375 C 1.78125 -3.625 2.5 -4.1875 3.125 -4.1875 C 3.765625 -4.1875 3.875 -3.65625 3.875 -3.078125 L 3.875 -0.75 C 3.875 -0.3125 3.765625 -0.3125 3.09375 -0.3125 L 3.09375 0 C 3.4375 -0.015625 3.953125 -0.03125 4.21875 -0.03125 C 4.46875 -0.03125 5 -0.015625 5.328125 0 L 5.328125 -0.3125 C 4.8125 -0.3125 4.5625 -0.3125 4.5625 -0.609375 L 4.5625 -2.515625 Z M 4.5625 -2.515625 "/>
<path id="n" d="M 1.09375 -3.421875 L 1.09375 -0.75 C 1.09375 -0.3125 0.984375 -0.3125 0.3125 -0.3125 L 0.3125 0 C 0.671875 -0.015625 1.171875 -0.03125 1.453125 -0.03125 C 1.703125 -0.03125 2.21875 -0.015625 2.5625 0 L 2.5625 -0.3125 C 1.890625 -0.3125 1.78125 -0.3125 1.78125 -0.75 L 1.78125 -2.59375 C 1.78125 -3.625 2.5 -4.1875 3.125 -4.1875 C 3.765625 -4.1875 3.875 -3.65625 3.875 -3.078125 L 3.875 -0.75 C 3.875 -0.3125 3.765625 -0.3125 3.09375 -0.3125 L 3.09375 0 C 3.4375 -0.015625 3.953125 -0.03125 4.21875 -0.03125 C 4.46875 -0.03125 5 -0.015625 5.328125 0 L 5.328125 -0.3125 C 4.8125 -0.3125 4.5625 -0.3125 4.5625 -0.609375 L 4.5625 -2.515625 C 4.5625 -3.375 4.5625 -3.671875 4.25 -4.03125 C 4.109375 -4.203125 3.78125 -4.40625 3.203125 -4.40625 C 2.46875 -4.40625 2 -3.984375 1.71875 -3.359375 L 1.71875 -4.40625 L 0.3125 -4.296875 L 0.3125 -3.984375 C 1.015625 -3.984375 1.09375 -3.921875 1.09375 -3.421875 Z M 1.09375 -3.421875 "/>
<path id="r" d="M 1.71875 -0.78125 L 1.71875 -2.3125 C 1.71875 -3.296875 2.140625 -4.1875 2.890625 -4.1875 C 2.953125 -4.1875 2.984375 -4.1875 3 -4.171875 C 2.96875 -4.171875 2.765625 -4.046875 2.765625 -3.78125 C 2.765625 -3.515625 2.984375 -3.359375 3.203125 -3.359375 C 3.375 -3.359375 3.625 -3.484375 3.625 -3.796875 C 3.625 -4.109375 3.3125 -4.40625 2.890625 -4.40625 C 2.15625 -4.40625 1.796875 -3.734375 1.671875 -3.3125 L 1.671875 -4.40625 L 0.28125 -4.296875 L 0.28125 -3.984375 C 0.984375 -3.984375 1.0625 -3.921875 1.0625 -3.421875 L 1.0625 -0.75 C 1.0625 -0.3125 0.953125 -0.3125 0.28125 -0.3125 L 0.28125 0 C 0.671875 -0.015625 1.140625 -0.03125 1.421875 -0.03125 C 1.8125 -0.03125 2.28125 -0.03125 2.6875 0 L 2.6875 -0.3125 L 2.46875 -0.3125 C 1.734375 -0.3125 1.71875 -0.421875 1.71875 -0.78125 Z M 1.71875 -0.78125 "/>
<path id="t" d="M 1.71875 -3.984375 L 3.15625 -3.984375 L 3.15625 -4.296875 L 1.71875 -4.296875 L 1.71875 -6.125 L 1.46875 -6.125 C 1.46875 -5.3125 1.171875 -4.25 0.1875 -4.203125 L 0.1875 -3.984375 L 1.03125 -3.984375 L 1.03125 -1.234375 C 1.03125 -0.015625 1.96875 0.109375 2.328125 0.109375 C 3.03125 0.109375 3.3125 -0.59375 3.3125 -1.234375 L 3.3125 -1.796875 L 3.0625 -1.796875 L 3.0625 -1.25 C 3.0625 -0.515625 2.765625 -0.140625 2.390625 -0.140625 C 1.71875 -0.140625 1.71875 -1.046875 1.71875 -1.21875 L 1.71875 -3.984375 Z M 1.71875 -3.984375 "/>

<path id="it-t" d="M 2.046875 -3.984375 L 2.984375 -3.984375 C 3.1875 -3.984375 3.296875 -3.984375 3.296875 -4.1875 C 3.296875 -4.296875 3.1875 -4.296875 3.015625 -4.296875 L 2.140625 -4.296875 C 2.5 -5.71875 2.546875 -5.90625 2.546875 -5.96875 C 2.546875 -6.140625 2.421875 -6.234375 2.25 -6.234375 C 2.21875 -6.234375 1.9375 -6.234375 1.859375 -5.875 L 1.46875 -4.296875 L 0.53125 -4.296875 C 0.328125 -4.296875 0.234375 -4.296875 0.234375 -4.109375 C 0.234375 -3.984375 0.3125 -3.984375 0.515625 -3.984375 L 1.390625 -3.984375 C 0.671875 -1.15625 0.625 -0.984375 0.625 -0.8125 C 0.625 -0.265625 1 0.109375 1.546875 0.109375 C 2.5625 0.109375 3.125 -1.34375 3.125 -1.421875 C 3.125 -1.53125 3.046875 -1.53125 3.015625 -1.53125 C 2.921875 -1.53125 2.90625 -1.5 2.859375 -1.390625 C 2.4375 -0.34375 1.90625 -0.109375 1.5625 -0.109375 C 1.359375 -0.109375 1.25 -0.234375 1.25 -0.5625 C 1.25 -0.8125 1.28125 -0.875 1.3125 -1.046875 L 2.046875 -3.984375 Z M 2.046875 -3.984375 "/>
<path id="it-x" d="M 3.328125 -3.015625 C 3.390625 -3.265625 3.625 -4.1875 4.3125 -4.1875 C 4.359375 -4.1875 4.609375 -4.1875 4.8125 -4.0625 C 4.53125 -4 4.34375 -3.765625 4.34375 -3.515625 C 4.34375 -3.359375 4.453125 -3.171875 4.71875 -3.171875 C 4.9375 -3.171875 5.25 -3.34375 5.25 -3.75 C 5.25 -4.265625 4.671875 -4.40625 4.328125 -4.40625 C 3.75 -4.40625 3.40625 -3.875 3.28125 -3.65625 C 3.03125 -4.3125 2.5 -4.40625 2.203125 -4.40625 C 1.171875 -4.40625 0.59375 -3.125 0.59375 -2.875 C 0.59375 -2.765625 0.703125 -2.765625 0.71875 -2.765625 C 0.796875 -2.765625 0.828125 -2.796875 0.84375 -2.875 C 1.1875 -3.9375 1.84375 -4.1875 2.1875 -4.1875 C 2.375 -4.1875 2.71875 -4.09375 2.71875 -3.515625 C 2.71875 -3.203125 2.546875 -2.546875 2.1875 -1.140625 C 2.03125 -0.53125 1.671875 -0.109375 1.234375 -0.109375 C 1.171875 -0.109375 0.953125 -0.109375 0.734375 -0.234375 C 0.984375 -0.296875 1.203125 -0.5 1.203125 -0.78125 C 1.203125 -1.046875 0.984375 -1.125 0.84375 -1.125 C 0.53125 -1.125 0.296875 -0.875 0.296875 -0.546875 C 0.296875 -0.09375 0.78125 0.109375 1.21875 0.109375 C 1.890625 0.109375 2.25 -0.59375 2.265625 -0.640625 C 2.390625 -0.28125 2.75 0.109375 3.34375 0.109375 C 4.375 0.109375 4.9375 -1.171875 4.9375 -1.421875 C 4.9375 -1.53125 4.859375 -1.53125 4.828125 -1.53125 C 4.734375 -1.53125 4.71875 -1.484375 4.6875 -1.421875 C 4.359375 -0.34375 3.6875 -0.109375 3.375 -0.109375 C 2.984375 -0.109375 2.828125 -0.421875 2.828125 -0.765625 C 2.828125 -0.984375 2.875 -1.203125 2.984375 -1.640625 L 3.328125 -3.015625 Z M 3.328125 -3.015625 "/>
<path id="it-f" d="M 3.65625 -3.984375 L 4.515625 -3.984375 C 4.71875 -3.984375 4.8125 -3.984375 4.8125 -4.1875 C 4.8125 -4.296875 4.71875 -4.296875 4.546875 -4.296875 L 3.71875 -4.296875 C 3.828125 -4.875 3.8125 -4.859375 3.921875 -5.4375 C 3.96875 -5.640625 4.109375 -6.34375 4.171875 -6.46875 C 4.25 -6.65625 4.421875 -6.8125 4.640625 -6.8125 C 4.671875 -6.8125 4.9375 -6.8125 5.125 -6.625 C 4.6875 -6.59375 4.578125 -6.234375 4.578125 -6.09375 C 4.578125 -5.859375 4.765625 -5.734375 4.953125 -5.734375 C 5.21875 -5.734375 5.5 -5.96875 5.5 -6.34375 C 5.5 -6.796875 5.046875 -7.03125 4.640625 -7.03125 C 4.296875 -7.03125 3.671875 -6.84375 3.375 -5.859375 C 3.3125 -5.65625 3.28125 -5.546875 3.046875 -4.296875 L 2.359375 -4.296875 C 2.15625 -4.296875 2.046875 -4.296875 2.046875 -4.109375 C 2.046875 -3.984375 2.140625 -3.984375 2.328125 -3.984375 L 2.984375 -3.984375 L 2.25 -0.046875 C 2.0625 0.921875 1.890625 1.828125 1.375 1.828125 C 1.328125 1.828125 1.09375 1.828125 0.890625 1.640625 C 1.359375 1.609375 1.453125 1.25 1.453125 1.109375 C 1.453125 0.875 1.265625 0.75 1.078125 0.75 C 0.8125 0.75 0.53125 0.984375 0.53125 1.359375 C 0.53125 1.796875 0.96875 2.046875 1.375 2.046875 C 1.921875 2.046875 2.328125 1.453125 2.5 1.078125 C 2.828125 0.453125 3.046875 -0.75 3.0625 -0.828125 L 3.65625 -3.984375 Z M 3.65625 -3.984375 "/>

<path id="plus" d="M 4.078125 -2.296875 L 6.859375 -2.296875 C 7 -2.296875 7.1875 -2.296875 7.1875 -2.5 C 7.1875 -2.6875 7 -2.6875 6.859375 -2.6875 L 4.078125 -2.6875 L 4.078125 -5.484375 C 4.078125 -5.625 4.078125 -5.8125 3.875 -5.8125 C 3.671875 -5.8125 3.671875 -5.625 3.671875 -5.484375 L 3.671875 -2.6875 L 0.890625 -2.6875 C 0.75 -2.6875 0.5625 -2.6875 0.5625 -2.5 C 0.5625 -2.296875 0.75 -2.296875 0.890625 -2.296875 L 3.671875 -2.296875 L 3.671875 0.5 C 3.671875 0.640625 3.671875 0.828125 3.875 0.828125 C 4.078125 0.828125 4.078125 0.640625 4.078125 0.5 L 4.078125 -2.296875 Z M 4.078125 -2.296875 "/>
<path id="minus" d="M 6.59375 -2.296875 C 6.734375 -2.296875 6.921875 -2.296875 6.921875 -2.5 C 6.921875 -2.6875 6.734375 -2.6875 6.59375 -2.6875 L 1.15625 -2.6875 C 1.015625 -2.6875 0.828125 -2.6875 0.828125 -2.5 C 0.828125 -2.296875 1.015625 -2.296875 1.15625 -2.296875 L 6.59375 -2.296875 Z M 6.59375 -2.296875 "/>
<path id="eq" d="M 6.84375 -3.265625 C 7 -3.265625 7.1875 -3.265625 7.1875 -3.453125 C 7.1875 -3.65625 7 -3.65625 6.859375 -3.65625 L 0.890625 -3.65625 C 0.75 -3.65625 0.5625 -3.65625 0.5625 -3.453125 C 0.5625 -3.265625 0.75 -3.265625 0.890625 -3.265625 L 6.84375 -3.265625 Z M 6.859375 -1.328125 C 7 -1.328125 7.1875 -1.328125 7.1875 -1.53125 C 7.1875 -1.71875 7 -1.71875 6.84375 -1.71875 L 0.890625 -1.71875 C 0.75 -1.71875 0.5625 -1.71875 0.5625 -1.53125 C 0.5625 -1.328125 0.75 -1.328125 0.890625 -1.328125 L 6.859375 -1.328125 Z M 6.859375 -1.328125 "/>
<path id="dot" d="M 1.90625 -0.53125 C 1.90625 -0.8125 1.671875 -1.0625 1.390625 -1.0625 C 1.09375 -1.0625 0.859375 -0.8125 0.859375 -0.53125 C 0.859375 -0.234375 1.09375 0 1.390625 0 C 1.671875 0 1.90625 -0.234375 1.90625 -0.53125 Z M 1.90625 -0.53125 "/>
<path id="vbar" d="M 1.578125 -7.140625 C 1.578125 -7.28125 1.578125 -7.484375 1.390625 -7.484375 C 1.1875 -7.484375 1.1875 -7.28125 1.1875 -7.140625 L 1.1875 2.15625 C 1.1875 2.296875 1.1875 2.5 1.390625 2.5 C 1.578125 2.5 1.578125 2.296875 1.578125 2.15625 L 1.578125 -7.140625 Z M 1.578125 -7.140625 "/>
<path id="_2" d="M 3.515625 -1.265625 L 3.28125 -1.265625 C 3.265625 -1.109375 3.1875 -0.703125 3.09375 -0.640625 C 3.046875 -0.59375 2.515625 -0.59375 2.40625 -0.59375 L 1.125 -0.59375 C 1.859375 -1.234375 2.109375 -1.4375 2.515625 -1.765625 C 3.03125 -2.171875 3.515625 -2.609375 3.515625 -3.265625 C 3.515625 -4.109375 2.78125 -4.625 1.890625 -4.625 C 1.03125 -4.625 0.4375 -4.015625 0.4375 -3.375 C 0.4375 -3.03125 0.734375 -2.984375 0.8125 -2.984375 C 0.96875 -2.984375 1.171875 -3.109375 1.171875 -3.359375 C 1.171875 -3.484375 1.125 -3.734375 0.765625 -3.734375 C 0.984375 -4.21875 1.453125 -4.375 1.78125 -4.375 C 2.484375 -4.375 2.84375 -3.828125 2.84375 -3.265625 C 2.84375 -2.65625 2.40625 -2.1875 2.1875 -1.9375 L 0.515625 -0.265625 C 0.4375 -0.203125 0.4375 -0.1875 0.4375 0 L 3.3125 0 L 3.515625 -1.265625 Z M 3.515625 -1.265625 "/>
<path id="_pi" d="M 2.171875 -2.53125 L 3 -2.53125 C 2.890625 -2.109375 2.734375 -1.484375 2.734375 -0.921875 C 2.734375 -0.640625 2.78125 -0.453125 2.8125 -0.3125 C 2.921875 0.046875 3.015625 0.0625 3.125 0.0625 C 3.296875 0.0625 3.453125 -0.078125 3.453125 -0.25 C 3.453125 -0.296875 3.4375 -0.328125 3.40625 -0.390625 C 3.265625 -0.65625 3.140625 -1.046875 3.140625 -1.625 C 3.140625 -1.75 3.140625 -2.03125 3.234375 -2.53125 L 4.109375 -2.53125 C 4.234375 -2.53125 4.296875 -2.53125 4.375 -2.578125 C 4.46875 -2.65625 4.484375 -2.765625 4.484375 -2.796875 C 4.484375 -3 4.3125 -3 4.1875 -3 L 1.5625 -3 C 1.28125 -3 1.078125 -2.9375 0.765625 -2.640625 C 0.578125 -2.484375 0.3125 -2.109375 0.3125 -2.046875 C 0.3125 -1.96875 0.40625 -1.96875 0.4375 -1.96875 C 0.515625 -1.96875 0.515625 -1.984375 0.5625 -2.046875 C 0.90625 -2.53125 1.34375 -2.53125 1.5 -2.53125 L 1.921875 -2.53125 C 1.703125 -1.765625 1.328125 -0.9375 1.125 -0.515625 C 1.078125 -0.4375 1.015625 -0.28125 0.984375 -0.265625 C 0.984375 -0.234375 0.96875 -0.203125 0.96875 -0.15625 C 0.96875 -0.046875 1.046875 0.0625 1.21875 0.0625 C 1.484375 0.0625 1.5625 -0.25 1.734375 -0.875 L 2.171875 -2.53125 Z M 2.171875 -2.53125 "/>

<path id="radic" d="M 3.875 8.515625 L 2.109375 4.609375 C 2.0625 4.53125 2.046875 4.46875 1.96875 4.46875 C 1.9375 4.46875 1.921875 4.46875 1.828125 4.5625 L 0.84375 5.296875 C 0.734375 5.390625 0.734375 5.40625 0.734375 5.4375 C 0.734375 5.515625 0.765625 5.546875 0.828125 5.546875 C 0.859375 5.546875 0.875 5.546875 0.96875 5.46875 L 1.484375 5.078125 L 3.453125 9.421875 C 3.515625 9.5625 3.53125 9.5625 3.65625 9.5625 C 3.8125 9.5625 3.828125 9.53125 3.890625 9.375 L 8.4375 -0.03125 C 8.5 -0.140625 8.5 -0.15625 8.5 -0.203125 C 8.5 -0.3125 8.421875 -0.40625 8.296875 -0.40625 C 8.1875 -0.40625 8.15625 -0.328125 8.09375 -0.203125 L 3.875 8.515625 Z M 3.875 8.515625 "/>
<path id="_radic" d="M 3.09375 5.859375 L 1.71875 3.15625 C 1.671875 3.078125 1.671875 3.046875 1.609375 3.046875 C 1.578125 3.046875 1.5625 3.046875 1.5 3.09375 L 0.75 3.609375 C 0.671875 3.65625 0.65625 3.671875 0.65625 3.71875 C 0.65625 3.8125 0.75 3.8125 0.78125 3.8125 L 1.25 3.5 L 2.78125 6.515625 C 2.828125 6.609375 2.84375 6.625 2.9375 6.625 C 3 6.625 3.078125 6.625 3.140625 6.5 L 6.65625 -0.03125 C 6.703125 -0.125 6.703125 -0.15625 6.703125 -0.171875 C 6.703125 -0.28125 6.609375 -0.34375 6.53125 -0.34375 C 6.4375 -0.34375 6.390625 -0.265625 6.359375 -0.21875 L 3.09375 5.859375 Z M 3.09375 5.859375 "/>

<marker id="Arrow" refX="6" refY="5" markerUnits="strokeWidth"
		markerWidth="12" markerHeight="10" orient="auto">
	<g transform="translate(6 5)">
		<path d="M -1 0 L -6 5 L 6 0 L -6 -5 z"/>
	</g>
</marker>

<g id="minus-1" transform="translate(0 100) scale(1.5)">
  <use xlink:href="#minus" x="-16.1"/>
  <use xlink:href="#d1" x="-8.3"/>
</g>

<g id="plus-1" transform="translate(0 -100) scale(1.5)">
  <use xlink:href="#d1" x="-8.3" />
</g>

<path id="leg" d="M0 0 H-13" stroke-width="2" stroke-opacity="0.7"/>
<path id="tick-y" d="M-4 0 H4" />
<use id="tick-x" xlink:href="#tick-y" transform="rotate(90)" />

<style type="text/css">
.bar { fill:none; stroke-width:3; stroke:black; }
.C0 { stroke:#840; }
.C1 { stroke:#0a0; }
.C2 { stroke:#ea0; }
.C3 { stroke:#06f; }
.C4 { stroke:#f01; }
.C5 { stroke:#a0f; }
.graph {fill:none; stroke-width:0.02; stroke-opacity:0.7;}
.tick {fill:none; stroke-width:1; stroke:black;}
</style>

</defs>

<rect fill="white" fill-opacity="0.7" x="-300" y="-150" width="100%" height="100%"/>

<!-- Axes -->
<g style="stroke:black; fill:none;">
	<!-- x-Axis -->
	<path d="M -300 0 H293"  marker-end="url(#Arrow)"/>
	<!-- y-Axis -->
	<path d="M 0 150 V-143"  marker-end="url(#Arrow)"/>
</g>

<!-- Grid Line at y=+/- 1 -->
<g  style="stroke:gray;fill:none;stroke-width:1;">
	<path d="M -300  100 H300"/>
	<path d="M -300 -100 H300"/>
	<path d="M -200 200 L 200 -200" stroke-dasharray="10 10"/>
</g>

<g transform="translate(2 -125) scale(1.7)">
  <use xlink:href="#it-f" x="2.6"/>
  <use xlink:href="#lparen" x="8.6"/>
  <use xlink:href="#it-x" x="12.5"/>
  <use xlink:href="#rparen" x="18.1"/>
</g>

<g transform="translate(270 -5) scale(1.7)">
	<use xlink:href="#it-x"/>
</g>

<!-- Ticks -->
<g class="tick">
	<g id="ticks-y">
		<use xlink:href="#tick-y" y="50" />
		<use xlink:href="#tick-y" y="100" />
	</g>
	<use xlink:href="#ticks-y" transform="rotate(180)" />

	<g id="ticks-x">
		<use xlink:href="#tick-x" x="50" />
		<use xlink:href="#tick-x" x="100" />
		<use xlink:href="#tick-x" x="150" />
		<use xlink:href="#tick-x" x="200" />
		<use xlink:href="#tick-x" x="250" />
	</g>
	<use xlink:href="#ticks-x" transform="rotate(180)" />
</g>

<!-- x-Labels -->
<g transform="translate(-0 20)">
	<g transform="translate(50 0) scale(1.5)">
	  <use xlink:href="#d0" x="-6.75"/>
	  <use xlink:href="#dot" x="-1.75"/>
	  <use xlink:href="#d5" x="1"/>
	</g>
	<g transform="translate(100 0) scale(1.5)">
	  <use xlink:href="#d1" x="-2.85"/>
	</g>
	<g transform="translate(150 0) scale(1.5)">
	  <use xlink:href="#d1" x="-6.75"/>
	  <use xlink:href="#dot" x="-1.75"/>
	  <use xlink:href="#d5" x="1"/>
	</g>
	<g transform="translate(200 0) scale(1.5)">
	  <use xlink:href="#d2" x="-2.85"/>
	</g>
	<g transform="translate(250 0) scale(1.5)">
	  <use xlink:href="#d2" x="-6.75"/>
	  <use xlink:href="#dot" x="-1.75"/>
	  <use xlink:href="#d5" x="1"/>
	</g>
</g>
<g transform="translate(-4 20)">
	<g transform="translate(-50 0) scale(1.5)">
	  <use xlink:href="#minus" x="-10.6"/>
	  <use xlink:href="#d0" x="-2.85"/>
	  <use xlink:href="#dot" x="2.1"/>
	  <use xlink:href="#d5" x="4.9" />
	</g>
	<g transform="translate(-100 0) scale(1.5)">
	  <use xlink:href="#minus" x="-6.75" />
	  <use xlink:href="#d1" x="1" />
	</g>
	<g transform="translate(-150 0) scale(1.5)">
	  <use xlink:href="#minus" x="-10.6"/>
	  <use xlink:href="#d1" x="-2.85"/>
	  <use xlink:href="#dot" x="2.1"/>
	  <use xlink:href="#d5" x="4.9"/>
	</g>
	<g transform="translate(-200 0) scale(1.5)">
	  <use xlink:href="#minus" x="-6.75"/>
	  <use xlink:href="#d2" x="1"/>
	</g>
	<g transform="translate(-250 0) scale(1.5)">
	  <use xlink:href="#minus" x="-10.6"/>
	  <use xlink:href="#d2" x="-2.85"/>
	  <use xlink:href="#dot" x="2.1"/>
	  <use xlink:href="#d5" x="4.9"/>
	</g>
</g>

<!-- y-Labels -->
<g transform="translate(-3 4) scale(1)">
	<use xlink:href="#minus-1" style="stroke:white; stroke-width:5; stroke-linejoin:round;"/>
	<use xlink:href="#minus-1" stroke="none"/>
	<g transform="translate(0 50) scale(1.5)">
	  <use xlink:href="#minus" x="-23.9"/>
	  <use xlink:href="#d0" x="-16.1"  />
	  <use xlink:href="#dot" x="-11.1" />
	  <use xlink:href="#d5" x="-8.3"  />
	</g>
	<g transform="translate(0 -50) scale(1.5)">
	  <use xlink:href="#d0" x="-16.1" />
	  <use xlink:href="#dot" x="-11.1" />
	  <use xlink:href="#d5" x="-8.3" />
	</g>
	<use xlink:href="#plus-1" style="stroke:white; stroke-width:5;stroke-linejoin:round;"/>
	<use xlink:href="#plus-1" stroke="none"/>
</g>

<!-- Legend -->
<g fill="black" transform="translate(-250 -135) scale(1.4)">
	<rect x="-20" y="-1.5" width="155" height="85" style="fill:white; stroke:black; stroke-width:0.5" />

	<g transform="translate(0 15) scale(1)">
		<use xlink:href="#leg" class="C0" y="-2"/>
		<use xlink:href="#e" x="2.6"/>
		<use xlink:href="#r" x="7"/>
		<use xlink:href="#f" x="11"/>
		<use xlink:href="#lparen" x="16.4"/>
		<g transform="translate(-2.6 -2.1)">
			<use xlink:href="#_radic" x="23.6" y="-7.6"/>
			<path class="bar" d="M 3301.25 1077.773438 L 3350.351562 1077.773438 " transform="matrix(0.1,0,0,-0.1,-300,100)"/>
			<use xlink:href="#_pi" x="30.1" y="-2.5"/>
			<path class="bar" d="M 3235.820312 1003.75 L 3350.351562 1003.75 " transform="matrix(0.1,0,0,-0.1,-300,100)"/>
			<use xlink:href="#_2" x="27.3" y="5.6"/>
			<use xlink:href="#it-x" x="36.2" y="2.1"/>
			<use xlink:href="#rparen" x="41.9" y="2.1"/>
		</g>
	</g>

	<g transform="translate(0 42) scale(1)">
		<use xlink:href="#leg" class="C1" y="-2"/>
		<use xlink:href="#t" x="2.6" />
		<use xlink:href="#a" x="6.5" />
		<use xlink:href="#n" x="11.5" />
		<use xlink:href="#h" x="17" />
		<use xlink:href="#lparen" x="24.2" />
		<use xlink:href="#it-x" x="28.1" />
		<use xlink:href="#rparen" x="33.8" />
	</g>

	<g transform="translate(0 65) scale(1)">
		<use xlink:href="#leg" class="C2" y="-2"/>
		<use xlink:href="#_2" x="4.3" y="-3.9"/>
		<path class="bar" d="M 3038.203125 1003.75 L 3087.304688 1003.75 " transform="matrix(0.1,0,0,-0.1,-300,98.4)"/>
		<use xlink:href="#_pi" x="3.8" y="3.4"/>
		<use xlink:href="#g" x="9.6"/>
		<use xlink:href="#d" x="14.6"/>
		<g transform="translate(-18.4 -2.1)">
			<use xlink:href="#lparen" x="39.3" y="2.1"/>
			<use xlink:href="#_pi" x="44.6" y="-2"/>
			<path class="bar" d="M 3443.59375 1003.75 L 3492.65625 1003.75 " transform="matrix(0.1,0,0,-0.1,-300,100)"/>
			<use xlink:href="#_2" x="44.8" y="5.5"/>
			<use xlink:href="#it-x" x="50.5" y="2.1"/>
			<use xlink:href="#rparen" x="56.15" y="2.1"/>
		</g>
	</g>

	<g transform="translate(70 23) scale(1)">
		<use xlink:href="#leg" class="C3" y="-10.4"/>
		<use xlink:href="#it-x" x="18.8" y="-13.75"/>
		<path class="bar" d="M 3038.203125 1019.804688 L 3394.453125 1019.804688 " transform="matrix(0.1,0,0,-0.1,-300,91.5)"/>
		<use xlink:href="#radic" x="3.8" y="-8.3"/>
		<path class="bar" d="M 3121.25 999.882812 L 3394.453125 999.882812 " transform="matrix(0.1,0,0,-0.1,-300,91.5)"/>
		<use xlink:href="#d1" x="12.1"/>
		<use xlink:href="#plus" x="19.32"/>
		<use xlink:href="#it-x" x="29.3"/>
		<use xlink:href="#_2" x="35" y="-2.9"/>
	</g>

	<g transform="translate(70 40) scale(1)">
		<use xlink:href="#leg" class="C4" y="0"/>
		<use xlink:href="#_2" x="4.3" y="-1.8"/>
		<path class="bar" d="M 3038.203125 1003.75 L 3087.304688 1003.75 " transform="matrix(0.1,0,0,-0.1,-300,100.5)"/>
		<use xlink:href="#_pi" x="3.8" y="5.5"/>
		<use xlink:href="#a" x="9.9" y="2.1"/>
		<use xlink:href="#r" x="14.9" y="2.1"/>
		<use xlink:href="#c" x="18.8" y="2.1"/>
		<use xlink:href="#t" x="23.25" y="2.1"/>
		<use xlink:href="#a" x="27.1" y="2.1"/>
		<use xlink:href="#n" x="32.1" y="2.1"/>
		<use xlink:href="#lparen" x="39.3" y="2.1"/>
		<use xlink:href="#_pi" x="44.6" y="-2"/>
		<path class="bar" d="M 3443.59375 1003.75 L 3492.65625 1003.75 " transform="matrix(0.1,0,0,-0.1,-300,100)"/>
		<use xlink:href="#_2" x="44.8" y="5.5"/>
		<use xlink:href="#it-x" x="50.5" y="2.1"/>
		<use xlink:href="#rparen" x="56.15" y="2.1"/>
	</g>

	<g transform="translate(70 72) scale(1)">
		<use xlink:href="#leg" class="C5" y="-9"/>
		<use xlink:href="#it-x" x="15.2" y="-12.5"/>
		<path class="bar" d="M 3038.203125 1020.117188 L 3322.070312 1020.117188 " transform="matrix(0.1,0,0,-0.1,-300,92.7)"/>
		<use xlink:href="#d1" x="3.8"/>
		<use xlink:href="#plus" x="11"/>
		<use xlink:href="#vbar" x="21"/>
		<use xlink:href="#it-x" x="23.75"/>
		<use xlink:href="#vbar" x="29.5"/>
	</g>

</g>


<g transform="scale(100) scale(1 -1)">

<!-- tanh -->
<path class="graph C1" d="M -3.5,-0.998178 C -3.208333,-0.997116 -2.916667,-0.995618 -2.625,-0.98956 C -2.333333,-0.983501 -2.041667,-0.974571 -1.75,-0.941376 C -1.604167,-0.924778 -1.458333,-0.901647 -1.3125,-0.864907 C -1.166667,-0.828166 -1.020833,-0.777481 -0.875,-0.703906 C -0.729167,-0.63033 -0.583333,-0.532701 -0.4375,-0.41157 C -0.291667,-0.290439 -0.145833,-0.145833 0,0 C 0.145833,0.145833 0.291667,0.290439 0.4375,0.41157 C 0.583333,0.532701 0.729167,0.63033 0.875,0.703906 C 1.020833,0.777481 1.166667,0.828166 1.3125,0.864907 C 1.458333,0.901647 1.604167,0.924778 1.75,0.941376 C 2.041667,0.974571 2.333333,0.983501 2.625,0.98956 C 2.916667,0.995618 3.208333,0.997116 3.5,0.998178" />

<!-- 2/pi *gd (pi/2 x) -->
<path class="graph C2" d="M -3.5,-0.994785 C -3.208333,-0.992396 -2.916667,-0.98883 -2.625,-0.979388 C -2.333333,-0.969946 -2.041667,-0.955806 -1.75,-0.918625 C -1.604167,-0.900035 -1.458333,-0.875378 -1.3125,-0.838857 C -1.166667,-0.802337 -1.020833,-0.753863 -0.875,-0.684516 C -0.729167,-0.615168 -0.583333,-0.523724 -0.4375,-0.406643 C -0.291667,-0.289562 -0.145833,-0.145833 0,0 C 0.145833,0.145833 0.291667,0.289562 0.4375,0.406643 C 0.583333,0.523724 0.729167,0.615168 0.875,0.684516 C 1.020833,0.753863 1.166667,0.802337 1.3125,0.838857 C 1.458333,0.875378 1.604167,0.900035 1.75,0.918625 C 2.041667,0.955806 2.333333,0.969946 2.625,0.979388 C 2.916667,0.98883 3.208333,0.992396 3.5,0.994785" />

<!-- x / hypot(1,x) -->
<path class="graph C3" d="M -3.5,-0.961524 C -3.208333,-0.955477 -2.916667,-0.947647 -2.625,-0.934488 C -2.333333,-0.921329 -2.041667,-0.903863 -1.75,-0.868243 C -1.604167,-0.850433 -1.458333,-0.827893 -1.3125,-0.795432 C -1.166667,-0.76297 -1.020833,-0.720664 -0.875,-0.658505 C -0.729167,-0.596345 -0.583333,-0.51296 -0.4375,-0.400819 C -0.291667,-0.288677 -0.145833,-0.145833 0,0 C 0.145833,0.145833 0.291667,0.288677 0.4375,0.400819 C 0.583333,0.51296 0.729167,0.596345 0.875,0.658505 C 1.020833,0.720664 1.166667,0.76297 1.3125,0.795432 C 1.458333,0.827893 1.604167,0.850433 1.75,0.868243 C 2.041667,0.903863 2.333333,0.921329 2.625,0.934488 C 2.916667,0.947647 3.208333,0.955477 3.5,0.961524" />

<!-- arctan -->
<path class="graph C4" d="M -3.5,-0.885457 C -3.208333,-0.876116 -2.916667,-0.864732 -2.625,-0.84853 C -2.333333,-0.832328 -2.041667,-0.811971 -1.75,-0.777883 C -1.458333,-0.743796 -1.166667,-0.700528 -0.875,-0.599574 C -0.729167,-0.549097 -0.583333,-0.482361 -0.4375,-0.383308 C -0.291667,-0.284255 -0.145833,-0.145833 0,0 C 0.145833,0.145833 0.291667,0.284255 0.4375,0.383308 C 0.583333,0.482361 0.729167,0.549097 0.875,0.599574 C 1.166667,0.700528 1.458333,0.743796 1.75,0.777883 C 2.041667,0.811971 2.333333,0.832328 2.625,0.84853 C 2.916667,0.864732 3.208333,0.876116 3.5,0.885457" /><use xlink:href="#P" x="-3.5" y="-0.885457" />

<!-- x / (1+|x|) -->
<path class="graph C5" d="M -3.5,-0.777778 C -3.208333,-0.763374 -2.916667,-0.746334 -2.625,-0.724138 C -2.333333,-0.701942 -2.041667,-0.674931 -1.75,-0.636364 C -1.458333,-0.597796 -1.166667,-0.54963 -0.875,-0.466667 C -0.729167,-0.425185 -0.583333,-0.374921 -0.4375,-0.304348 C -0.364583,-0.269061 -0.291667,-0.228578 -0.21875,-0.179487 C -0.145833,-0.130397 -0.072917,-0.072917 0,0 C 0.072917,0.072917 0.145833,0.130397 0.21875,0.179487 C 0.291667,0.228578 0.364583,0.269061 0.4375,0.304348 C 0.583333,0.374921 0.729167,0.425185 0.875,0.466667 C 1.166667,0.54963 1.458333,0.597796 1.75,0.636364 C 2.041667,0.674931 2.333333,0.701942 2.625,0.724138 C 2.916667,0.746334 3.208333,0.763374 3.5,0.777778" />

<!-- erf(x) -->
<path transform="scale(1.12838 1)" class="graph C0" d="M -3 -1 L -2.5,-0.999593 C -2.258084,-0.999066 -2.079026,-0.997730 -1.928761,-0.993622 C -1.733434,-0.988281 -1.568242,-0.977740 -1.418517,-0.955153 C -1.211393,-0.923906 -1.026456,-0.868461 -0.843334,-0.766995 C -0.703619,-0.689581 -0.574414,-0.590611 -0.445442,-0.471273 C -0.291115,-0.328474 -0.145942,-0.164677 0,0 C 0.145942,0.164677 0.291115,0.328474 0.445442,0.471273 C 0.574414,0.590611 0.703619,0.689581 0.843334,0.766995 C 1.026456,0.868461 1.211393,0.923906 1.418517,0.955153 C 1.568242,0.977740 1.733434,0.988281 1.928761,0.993622 C 2.079026,0.997730 2.258084,0.999066 2.5,0.999593 L 3 1" />
</g>
</svg>
