<svg width="1316" height="525" viewBox="0 0 1316 525" fill="none" xmlns="http://www.w3.org/2000/svg">
<rect width="1316" height="525" fill="#E9E9E9"/>
<path d="M272.705 22.582C272.705 18.964 274.217 16.984 276.953 16.984C279.203 16.984 280.463 18.244 280.769 20.602L279.221 20.962C278.897 19.18 278.267 18.406 276.917 18.406C275.009 18.406 274.361 19.99 274.361 22.582C274.361 25.318 275.027 26.83 276.881 26.83C278.375 26.83 278.969 26.02 279.311 24.202L280.859 24.544C280.517 26.956 279.275 28.216 276.881 28.216C274.091 28.216 272.705 26.218 272.705 22.582ZM287.392 28.198C284.89 28.198 283.594 26.758 283.594 23.986V17.2H285.25V23.86C285.25 25.624 285.7 26.83 287.392 26.83C289.03 26.83 289.516 25.804 289.516 23.95V17.2H291.172V23.986C291.172 26.758 289.858 28.198 287.392 28.198ZM294.267 28V17.2H297.759C300.729 17.2 302.061 18.892 302.061 22.528C302.061 26.128 300.387 28 297.741 28H294.267ZM295.923 26.632H297.633C299.667 26.632 300.405 25.12 300.405 22.528C300.405 19.594 299.613 18.568 297.561 18.568H295.923V26.632ZM303.825 28L307.155 17.2H309.729L313.059 28H311.295L310.467 25.066H306.363L305.535 28H303.825ZM306.723 23.752H310.107L309.711 22.384C309.369 21.16 309.027 19.72 308.793 18.568H308.073C307.803 19.738 307.443 21.142 307.101 22.384L306.723 23.752ZM327.493 24.886V20.836H325.333V19.594H327.493V17.2H329.059V19.594H333.253V20.836H329.059V24.652C329.059 26.11 329.617 26.866 331.057 26.866C331.669 26.866 332.317 26.722 333.145 26.362L333.451 27.586C332.515 28 331.687 28.216 330.715 28.216C328.465 28.216 327.493 26.812 327.493 24.886ZM336.583 28V15.94H338.149V21.682H338.347C338.905 20.422 339.859 19.378 341.299 19.378C342.703 19.378 343.567 20.404 343.567 22.276V28H342.001V22.636C342.001 21.466 341.533 20.8 340.579 20.8C339.121 20.8 338.149 21.916 338.149 23.374V28H336.583ZM347.454 28V19.594H348.876V22.078L349.038 22.096C349.686 20.278 350.91 19.414 352.404 19.414C353.214 19.414 353.826 19.594 354.672 20.008L354.312 21.43C353.574 21.034 352.818 20.818 352.134 20.818C350.244 20.818 349.002 21.988 349.002 24.076V28H347.454ZM361.277 28.216C358.721 28.216 357.191 26.668 357.191 23.86C357.191 21.052 358.811 19.378 361.277 19.378C363.689 19.378 364.967 20.872 364.967 23.194C364.967 23.446 364.949 23.842 364.895 24.184H358.757C358.847 25.984 359.657 26.974 361.277 26.974C362.645 26.974 363.275 26.236 363.527 25.372L364.859 25.714C364.481 27.172 363.365 28.216 361.277 28.216ZM358.775 23.14H363.509C363.473 21.448 362.735 20.53 361.241 20.53C359.783 20.53 358.937 21.376 358.775 23.14ZM370.313 28.18C368.765 28.18 367.667 27.316 367.667 25.804C367.667 24.4 368.621 23.392 370.727 23.392H373.481V22.492C373.481 21.448 372.941 20.638 371.627 20.638C370.493 20.638 369.809 21.25 369.485 22.042L368.063 21.538C368.513 20.332 369.791 19.378 371.663 19.378C373.949 19.378 375.047 20.584 375.047 22.474V28H373.643V26.11H373.355C372.869 27.298 371.843 28.18 370.313 28.18ZM373.481 24.346H371.033C369.827 24.346 369.125 24.832 369.125 25.714C369.125 26.38 369.683 26.974 370.889 26.974C372.419 26.974 373.481 26.074 373.481 24.868V24.346ZM377.962 23.842C377.962 21.034 379.24 19.378 381.112 19.378C382.534 19.378 383.434 20.35 383.902 21.574H384.118V15.94H385.684V28H384.118V25.966H383.902C383.398 27.208 382.354 28.216 381.04 28.216C379.276 28.216 377.962 26.614 377.962 23.842ZM384.118 24.436V23.266C384.118 21.826 383.146 20.8 381.832 20.8C380.374 20.8 379.492 21.844 379.492 23.824C379.492 25.786 380.356 26.866 381.832 26.866C383.128 26.866 384.118 25.822 384.118 24.436Z" fill="#212525"/>
<path d="M327.5 43L337.003 48.0484C339.377 49.3098 339.021 52.8172 336.442 53.5759L326.314 56.5548C323.581 57.3585 323.401 61.1606 326.046 62.2184L332.281 64.7124C334.944 65.7775 334.737 69.6135 331.976 70.3868L325.989 72.063C323.055 72.8846 323.073 77.0509 326.014 77.8475L330.671 79.1087C333.468 79.8663 333.672 83.7561 330.969 84.8021L330.324 85.0519C327.896 85.992 327.736 89.3681 330.066 90.5328L331.563 91.2817C333.309 92.1545 333.77 94.4355 332.499 95.9173L326 103.5" stroke="#212525"/>
<path d="M322.147 107.647L323.632 100.437L329.133 105.328L322.147 107.647Z" fill="#212525"/>
<path d="M241.117 144.053C241.117 140.435 242.629 138.455 245.365 138.455C247.615 138.455 248.875 139.715 249.181 142.073L247.633 142.433C247.309 140.651 246.679 139.877 245.329 139.877C243.421 139.877 242.773 141.461 242.773 144.053C242.773 146.789 243.439 148.301 245.293 148.301C246.787 148.301 247.381 147.491 247.723 145.673L249.271 146.015C248.929 148.427 247.687 149.687 245.293 149.687C242.503 149.687 241.117 147.689 241.117 144.053ZM255.804 149.669C253.302 149.669 252.006 148.229 252.006 145.457V138.671H253.662V145.331C253.662 147.095 254.112 148.301 255.804 148.301C257.442 148.301 257.928 147.275 257.928 145.421V138.671H259.584V145.457C259.584 148.229 258.27 149.669 255.804 149.669ZM262.68 149.471V138.671H266.172C269.142 138.671 270.474 140.363 270.474 143.999C270.474 147.599 268.8 149.471 266.154 149.471H262.68ZM264.336 148.103H266.046C268.08 148.103 268.818 146.591 268.818 143.999C268.818 141.065 268.026 140.039 265.974 140.039H264.336V148.103ZM272.237 149.471L275.567 138.671H278.141L281.471 149.471H279.707L278.879 146.537H274.775L273.947 149.471H272.237ZM275.135 145.223H278.519L278.123 143.855C277.781 142.631 277.439 141.191 277.205 140.039H276.485C276.215 141.209 275.855 142.613 275.513 143.855L275.135 145.223ZM295.905 146.357V142.307H293.745V141.065H295.905V138.671H297.471V141.065H301.665V142.307H297.471V146.123C297.471 147.581 298.029 148.337 299.469 148.337C300.081 148.337 300.729 148.193 301.557 147.833L301.863 149.057C300.927 149.471 300.099 149.687 299.127 149.687C296.877 149.687 295.905 148.283 295.905 146.357ZM304.995 149.471V137.411H306.561V143.153H306.759C307.317 141.893 308.271 140.849 309.711 140.849C311.115 140.849 311.979 141.875 311.979 143.747V149.471H310.413V144.107C310.413 142.937 309.945 142.271 308.991 142.271C307.533 142.271 306.561 143.387 306.561 144.845V149.471H304.995ZM315.866 149.471V141.065H317.288V143.549L317.45 143.567C318.098 141.749 319.322 140.885 320.816 140.885C321.626 140.885 322.238 141.065 323.084 141.479L322.724 142.901C321.986 142.505 321.23 142.289 320.546 142.289C318.656 142.289 317.414 143.459 317.414 145.547V149.471H315.866ZM329.689 149.687C327.133 149.687 325.603 148.139 325.603 145.331C325.603 142.523 327.223 140.849 329.689 140.849C332.101 140.849 333.379 142.343 333.379 144.665C333.379 144.917 333.361 145.313 333.307 145.655H327.169C327.259 147.455 328.069 148.445 329.689 148.445C331.057 148.445 331.687 147.707 331.939 146.843L333.271 147.185C332.893 148.643 331.777 149.687 329.689 149.687ZM327.187 144.611H331.921C331.885 142.919 331.147 142.001 329.653 142.001C328.195 142.001 327.349 142.847 327.187 144.611ZM338.725 149.651C337.177 149.651 336.079 148.787 336.079 147.275C336.079 145.871 337.033 144.863 339.139 144.863H341.893V143.963C341.893 142.919 341.353 142.109 340.039 142.109C338.905 142.109 338.221 142.721 337.897 143.513L336.475 143.009C336.925 141.803 338.203 140.849 340.075 140.849C342.361 140.849 343.459 142.055 343.459 143.945V149.471H342.055V147.581H341.767C341.281 148.769 340.255 149.651 338.725 149.651ZM341.893 145.817H339.445C338.239 145.817 337.537 146.303 337.537 147.185C337.537 147.851 338.095 148.445 339.301 148.445C340.831 148.445 341.893 147.545 341.893 146.339V145.817ZM346.374 145.313C346.374 142.505 347.652 140.849 349.524 140.849C350.946 140.849 351.846 141.821 352.314 143.045H352.53V137.411H354.096V149.471H352.53V147.437H352.314C351.81 148.679 350.766 149.687 349.452 149.687C347.688 149.687 346.374 148.085 346.374 145.313ZM352.53 145.907V144.737C352.53 143.297 351.558 142.271 350.244 142.271C348.786 142.271 347.904 143.315 347.904 145.295C347.904 147.257 348.768 148.337 350.244 148.337C351.54 148.337 352.53 147.293 352.53 145.907ZM375.803 145.313C375.803 148.085 374.471 149.687 372.761 149.687C371.447 149.687 370.367 148.679 369.863 147.437H369.647V149.471H368.081V137.411H369.647V143.045H369.863C370.349 141.821 371.249 140.849 372.689 140.849C374.489 140.849 375.803 142.505 375.803 145.313ZM369.647 144.737V145.907C369.647 147.293 370.601 148.337 371.951 148.337C373.427 148.337 374.273 147.257 374.273 145.295C374.273 143.315 373.409 142.271 371.969 142.271C370.583 142.271 369.647 143.297 369.647 144.737ZM378.322 149.471V148.229H381.508V138.653H378.484V137.411H383.056V148.229H385.972V149.471H378.322ZM388.599 145.241C388.599 142.649 390.183 140.849 392.685 140.849C395.169 140.849 396.753 142.649 396.753 145.241C396.753 147.815 395.295 149.687 392.685 149.687C390.057 149.687 388.599 147.815 388.599 145.241ZM390.165 145.223C390.165 147.023 390.903 148.409 392.667 148.409C394.431 148.409 395.187 147.023 395.187 145.223C395.187 143.423 394.377 142.127 392.685 142.127C390.975 142.127 390.165 143.423 390.165 145.223ZM399.254 145.331C399.254 142.523 400.802 140.849 403.376 140.849C405.518 140.849 406.706 141.857 407.066 143.711L405.644 144.035C405.356 142.865 404.744 142.127 403.34 142.127C401.702 142.127 400.838 143.189 400.838 145.277C400.838 147.167 401.594 148.391 403.376 148.391C404.762 148.391 405.446 147.491 405.698 146.501L407.102 146.933C406.724 148.679 405.41 149.687 403.394 149.687C400.73 149.687 399.254 148.103 399.254 145.331ZM410.648 149.471V137.411H412.196V144.557H413.834L416.264 141.065H417.938V141.425L414.968 145.187L418.244 149.111V149.471H416.588L413.906 145.907H412.196V149.471H410.648Z" fill="#212525"/>
<rect x="233.5" y="164.471" width="192" height="127.471" fill="#212525" fill-opacity="0.1"/>
<rect x="234" y="164.971" width="191" height="126.471" stroke="#212525" stroke-opacity="0.5" stroke-dasharray="8 8"/>
<mask id="path-7-inside-1_447_5145" fill="white">
<path d="M241.5 176.471H417.5V200.471H241.5V176.471Z"/>
</mask>
<path d="M241.5 176.471H417.5V200.471H241.5V176.471Z" fill="#212525" fill-opacity="0.1"/>
<path d="M241.5 176.471V175.627H240.656V176.471H241.5ZM417.5 176.471H418.344V175.627H417.5V176.471ZM417.5 200.471V201.311H418.344V200.471H417.5ZM241.5 200.471H240.656V201.311H241.5V200.471ZM241.5 177.314H417.5V175.627H241.5V177.314ZM416.656 176.471V200.471H418.344V176.471H416.656ZM417.5 199.631H241.5V201.311H417.5V199.631ZM242.344 200.471V176.471H240.656V200.471H242.344Z" fill="#212525" mask="url(#path-7-inside-1_447_5145)"/>
<path d="M284.605 190.383L285.433 190.191C285.613 191.211 286.297 191.907 287.509 191.907C288.685 191.907 289.177 191.307 289.177 190.623C289.177 189.699 288.421 189.447 287.365 189.219C286.057 188.943 285.001 188.547 285.001 187.071C285.001 185.967 285.853 185.139 287.425 185.139C288.913 185.139 289.633 186.027 289.861 187.059L289.021 187.215C288.817 186.459 288.373 185.823 287.389 185.823C286.381 185.823 285.841 186.339 285.841 187.011C285.841 188.007 286.681 188.247 287.713 188.499C289.117 188.811 290.053 189.219 290.053 190.551C290.053 191.667 289.297 192.603 287.497 192.603C285.745 192.603 284.797 191.667 284.605 190.383ZM292.189 192.471V184.431H293.017V188.271H293.137C293.485 187.467 294.145 186.759 295.129 186.759C296.077 186.759 296.677 187.431 296.677 188.679V192.471H295.849V188.859C295.849 187.995 295.513 187.515 294.817 187.515C293.737 187.515 293.017 188.307 293.017 189.363V192.471H292.189ZM300.648 192.591C299.592 192.591 298.86 192.003 298.86 191.043C298.86 190.131 299.496 189.471 300.852 189.471H302.784V188.799C302.784 188.043 302.388 187.443 301.416 187.443C300.612 187.443 300.096 187.899 299.868 188.463L299.112 188.175C299.424 187.395 300.264 186.759 301.44 186.759C302.88 186.759 303.612 187.575 303.612 188.787V192.471H302.868V191.247H302.7C302.364 192.027 301.668 192.591 300.648 192.591ZM302.784 189.999H300.984C300.108 189.999 299.64 190.347 299.64 191.007C299.64 191.487 300.06 191.919 300.912 191.919C302.004 191.919 302.784 191.283 302.784 190.419V189.999ZM306.456 192.471V186.891H307.224V188.523L307.32 188.535C307.716 187.431 308.544 186.771 309.576 186.771C310.116 186.771 310.572 186.915 311.112 187.203L310.896 187.959C310.404 187.683 309.9 187.527 309.444 187.527C308.148 187.527 307.284 188.379 307.284 189.735V192.471H306.456ZM315.587 192.603C313.895 192.603 312.935 191.535 312.935 189.699C312.935 187.851 314.015 186.759 315.587 186.759C317.123 186.759 317.975 187.755 317.975 189.279C317.975 189.411 317.963 189.651 317.939 189.855H313.763C313.811 191.163 314.387 191.919 315.575 191.919C316.547 191.919 317.015 191.379 317.207 190.755L317.927 190.935C317.663 191.931 316.883 192.603 315.587 192.603ZM313.775 189.267H317.207C317.171 188.079 316.655 187.407 315.563 187.407C314.519 187.407 313.895 188.031 313.775 189.267ZM319.739 189.699C319.739 187.875 320.615 186.759 321.923 186.759C322.907 186.759 323.507 187.395 323.819 188.199H323.939V184.431H324.767V192.471H323.939V191.151H323.807C323.471 191.967 322.727 192.603 321.863 192.603C320.639 192.603 319.739 191.511 319.739 189.699ZM323.939 190.095V189.315C323.939 188.271 323.231 187.515 322.271 187.515C321.203 187.515 320.555 188.283 320.555 189.699C320.555 191.091 321.191 191.883 322.271 191.883C323.219 191.883 323.939 191.127 323.939 190.095ZM333.874 192.471V185.271H335.314L336.07 188.631C336.19 189.195 336.298 189.927 336.466 190.791H336.67C336.85 189.651 337.006 188.847 337.246 187.755L337.762 185.271H339.178V192.471H338.386V188.787C338.386 187.875 338.446 186.735 338.482 185.979H338.206C338.074 186.783 337.942 187.695 337.762 188.463L337.03 191.559H336.046L335.242 188.223C335.086 187.599 334.93 186.687 334.798 185.979H334.57C334.594 186.723 334.654 187.803 334.654 188.607V192.471H333.874ZM343.665 192.603C341.973 192.603 341.013 191.535 341.013 189.699C341.013 187.851 342.093 186.759 343.665 186.759C345.201 186.759 346.053 187.755 346.053 189.279C346.053 189.411 346.041 189.651 346.017 189.855H341.841C341.889 191.163 342.465 191.919 343.653 191.919C344.625 191.919 345.093 191.379 345.285 190.755L346.005 190.935C345.741 191.931 344.961 192.603 343.665 192.603ZM341.853 189.267H345.285C345.249 188.079 344.733 187.407 343.641 187.407C342.597 187.407 341.973 188.031 341.853 189.267ZM348.009 192.471V186.891H348.669V187.743H348.777C348.957 187.131 349.353 186.783 349.893 186.783C350.421 186.783 350.757 187.107 350.841 187.743H350.961C351.141 187.179 351.513 186.783 352.089 186.783C352.737 186.783 353.157 187.263 353.157 188.091V192.471H352.413V188.295C352.413 187.827 352.197 187.503 351.765 187.503C351.261 187.503 350.949 187.863 350.949 188.595V192.471H350.217V188.295C350.217 187.779 349.989 187.503 349.569 187.503C349.113 187.503 348.753 187.887 348.753 188.523V192.471H348.009ZM354.92 189.663C354.92 187.971 355.964 186.759 357.584 186.759C359.192 186.759 360.236 187.971 360.236 189.663C360.236 191.343 359.3 192.603 357.584 192.603C355.856 192.603 354.92 191.343 354.92 189.663ZM355.748 189.651C355.748 190.887 356.3 191.907 357.572 191.907C358.844 191.907 359.408 190.887 359.408 189.651C359.408 188.403 358.808 187.455 357.584 187.455C356.36 187.455 355.748 188.403 355.748 189.651ZM362.612 192.471V186.891H363.38V188.523L363.476 188.535C363.872 187.431 364.7 186.771 365.732 186.771C366.272 186.771 366.728 186.915 367.268 187.203L367.052 187.959C366.56 187.683 366.056 187.527 365.6 187.527C364.304 187.527 363.44 188.379 363.44 189.735V192.471H362.612ZM368.695 194.511L368.827 193.779C369.079 193.827 369.307 193.851 369.547 193.851C370.267 193.851 370.711 193.659 371.287 192.459L368.707 186.891H369.631L370.423 188.883C370.759 189.723 371.251 190.899 371.587 191.823H371.827C372.139 190.875 372.607 189.675 372.907 188.883L373.663 186.891H374.539L372.007 192.543C371.359 193.971 370.675 194.595 369.547 194.595C369.187 194.595 368.911 194.547 368.695 194.511Z" fill="#212525"/>
<path d="M267.5 212.471L277.003 217.519C279.377 218.781 279.021 222.288 276.442 223.047L266.314 226.026C263.581 226.829 263.401 230.631 266.046 231.689L272.281 234.183C274.944 235.248 274.737 239.084 271.976 239.857L265.989 241.534C263.055 242.355 263.073 246.522 266.014 247.318L270.671 248.579C273.468 249.337 273.672 253.227 270.969 254.273L270.324 254.523C267.896 255.463 267.736 258.839 270.066 260.004L271.563 260.752C273.309 261.625 273.77 263.906 272.499 265.388L266 272.971" stroke="#212525"/>
<path d="M262.147 277.118L263.632 269.908L269.133 274.799L262.147 277.118Z" fill="#212525"/>
<path d="M279.5 212.471L289.003 217.519C291.377 218.781 291.021 222.288 288.442 223.047L278.314 226.026C275.581 226.829 275.401 230.631 278.046 231.689L284.281 234.183C286.944 235.248 286.737 239.084 283.976 239.857L277.989 241.534C275.055 242.355 275.073 246.522 278.014 247.318L282.671 248.579C285.468 249.337 285.672 253.227 282.969 254.273L282.324 254.523C279.896 255.463 279.736 258.839 282.066 260.004L283.563 260.752C285.309 261.625 285.77 263.906 284.499 265.388L278 272.971" stroke="#212525"/>
<path d="M274.147 277.118L275.632 269.908L281.133 274.799L274.147 277.118Z" fill="#212525"/>
<path d="M291.5 212.471L301.003 217.519C303.377 218.781 303.021 222.288 300.442 223.047L290.314 226.026C287.581 226.829 287.401 230.631 290.046 231.689L296.281 234.183C298.944 235.248 298.737 239.084 295.976 239.857L289.989 241.534C287.055 242.355 287.073 246.522 290.014 247.318L294.671 248.579C297.468 249.337 297.672 253.227 294.969 254.273L294.324 254.523C291.896 255.463 291.736 258.839 294.066 260.004L295.563 260.752C297.309 261.625 297.77 263.906 296.499 265.388L290 272.971" stroke="#212525"/>
<path d="M286.147 277.118L287.632 269.908L293.133 274.799L286.147 277.118Z" fill="#212525"/>
<path d="M303.5 212.471L313.003 217.519C315.377 218.781 315.021 222.288 312.442 223.047L302.314 226.026C299.581 226.829 299.401 230.631 302.046 231.689L308.281 234.183C310.944 235.248 310.737 239.084 307.976 239.857L301.989 241.534C299.055 242.355 299.073 246.522 302.014 247.318L306.671 248.579C309.468 249.337 309.672 253.227 306.969 254.273L306.324 254.523C303.896 255.463 303.736 258.839 306.066 260.004L307.563 260.752C309.309 261.625 309.77 263.906 308.499 265.388L302 272.971" stroke="#212525"/>
<path d="M298.147 277.118L299.632 269.908L305.133 274.799L298.147 277.118Z" fill="#212525"/>
<path d="M315.5 212.471L325.003 217.519C327.377 218.781 327.021 222.288 324.442 223.047L314.314 226.026C311.581 226.829 311.401 230.631 314.046 231.689L320.281 234.183C322.944 235.248 322.737 239.084 319.976 239.857L313.989 241.534C311.055 242.355 311.073 246.522 314.014 247.318L318.671 248.579C321.468 249.337 321.672 253.227 318.969 254.273L318.324 254.523C315.896 255.463 315.736 258.839 318.066 260.004L319.563 260.752C321.309 261.625 321.77 263.906 320.499 265.388L314 272.971" stroke="#212525"/>
<path d="M310.147 277.118L311.632 269.908L317.133 274.799L310.147 277.118Z" fill="#212525"/>
<path d="M327.5 212.471L337.003 217.519C339.377 218.781 339.021 222.288 336.442 223.047L326.314 226.026C323.581 226.829 323.401 230.631 326.046 231.689L332.281 234.183C334.944 235.248 334.737 239.084 331.976 239.857L325.989 241.534C323.055 242.355 323.073 246.522 326.014 247.318L330.671 248.579C333.468 249.337 333.672 253.227 330.969 254.273L330.324 254.523C327.896 255.463 327.736 258.839 330.066 260.004L331.563 260.752C333.309 261.625 333.77 263.906 332.499 265.388L326 272.971" stroke="#212525"/>
<path d="M322.147 277.118L323.632 269.908L329.133 274.799L322.147 277.118Z" fill="#212525"/>
<path d="M339.5 212.471L349.003 217.519C351.377 218.781 351.021 222.288 348.442 223.047L338.314 226.026C335.581 226.829 335.401 230.631 338.046 231.689L344.281 234.183C346.944 235.248 346.737 239.084 343.976 239.857L337.989 241.534C335.055 242.355 335.073 246.522 338.014 247.318L342.671 248.579C345.468 249.337 345.672 253.227 342.969 254.273L342.324 254.523C339.896 255.463 339.736 258.839 342.066 260.004L343.563 260.752C345.309 261.625 345.77 263.906 344.499 265.388L338 272.971" stroke="#212525"/>
<path d="M334.147 277.118L335.632 269.908L341.133 274.799L334.147 277.118Z" fill="#212525"/>
<path d="M351.5 212.471L361.003 217.519C363.377 218.781 363.021 222.288 360.442 223.047L350.314 226.026C347.581 226.829 347.401 230.631 350.046 231.689L356.281 234.183C358.944 235.248 358.737 239.084 355.976 239.857L349.989 241.534C347.055 242.355 347.073 246.522 350.014 247.318L354.671 248.579C357.468 249.337 357.672 253.227 354.969 254.273L354.324 254.523C351.896 255.463 351.736 258.839 354.066 260.004L355.563 260.752C357.309 261.625 357.77 263.906 356.499 265.388L350 272.971" stroke="#212525"/>
<path d="M346.147 277.118L347.632 269.908L353.133 274.799L346.147 277.118Z" fill="#212525"/>
<path d="M363.5 212.471L373.003 217.519C375.377 218.781 375.021 222.288 372.442 223.047L362.314 226.026C359.581 226.829 359.401 230.631 362.046 231.689L368.281 234.183C370.944 235.248 370.737 239.084 367.976 239.857L361.989 241.534C359.055 242.355 359.073 246.522 362.014 247.318L366.671 248.579C369.468 249.337 369.672 253.227 366.969 254.273L366.324 254.523C363.896 255.463 363.736 258.839 366.066 260.004L367.563 260.752C369.309 261.625 369.77 263.906 368.499 265.388L362 272.971" stroke="#212525"/>
<path d="M358.147 277.118L359.632 269.908L365.133 274.799L358.147 277.118Z" fill="#212525"/>
<path d="M375.5 212.471L385.003 217.519C387.377 218.781 387.021 222.288 384.442 223.047L374.314 226.026C371.581 226.829 371.401 230.631 374.046 231.689L380.281 234.183C382.944 235.248 382.737 239.084 379.976 239.857L373.989 241.534C371.055 242.355 371.073 246.522 374.014 247.318L378.671 248.579C381.468 249.337 381.672 253.227 378.969 254.273L378.324 254.523C375.896 255.463 375.736 258.839 378.066 260.004L379.563 260.752C381.309 261.625 381.77 263.906 380.499 265.388L374 272.971" stroke="#212525"/>
<path d="M370.147 277.118L371.632 269.908L377.133 274.799L370.147 277.118Z" fill="#212525"/>
<path d="M387.5 212.471L397.003 217.519C399.377 218.781 399.021 222.288 396.442 223.047L386.314 226.026C383.581 226.829 383.401 230.631 386.046 231.689L392.281 234.183C394.944 235.248 394.737 239.084 391.976 239.857L385.989 241.534C383.055 242.355 383.073 246.522 386.014 247.318L390.671 248.579C393.468 249.337 393.672 253.227 390.969 254.273L390.324 254.523C387.896 255.463 387.736 258.839 390.066 260.004L391.563 260.752C393.309 261.625 393.77 263.906 392.499 265.388L386 272.971" stroke="#212525"/>
<path d="M382.147 277.118L383.632 269.908L389.133 274.799L382.147 277.118Z" fill="#212525"/>
<path d="M246.382 325.523C246.382 321.905 247.894 319.925 250.63 319.925C252.88 319.925 254.14 321.185 254.446 323.543L252.898 323.903C252.574 322.121 251.944 321.347 250.594 321.347C248.686 321.347 248.038 322.931 248.038 325.523C248.038 328.259 248.704 329.771 250.558 329.771C252.052 329.771 252.646 328.961 252.988 327.143L254.536 327.485C254.194 329.897 252.952 331.157 250.558 331.157C247.768 331.157 246.382 329.159 246.382 325.523ZM261.069 331.139C258.567 331.139 257.271 329.699 257.271 326.927V320.141H258.927V326.801C258.927 328.565 259.377 329.771 261.069 329.771C262.707 329.771 263.193 328.745 263.193 326.891V320.141H264.849V326.927C264.849 329.699 263.535 331.139 261.069 331.139ZM267.944 330.941V320.141H271.436C274.406 320.141 275.738 321.833 275.738 325.469C275.738 329.069 274.064 330.941 271.418 330.941H267.944ZM269.6 329.573H271.31C273.344 329.573 274.082 328.061 274.082 325.469C274.082 322.535 273.29 321.509 271.238 321.509H269.6V329.573ZM277.502 330.941L280.832 320.141H283.406L286.736 330.941H284.972L284.144 328.007H280.04L279.212 330.941H277.502ZM280.4 326.693H283.784L283.388 325.325C283.046 324.101 282.704 322.661 282.47 321.509H281.75C281.48 322.679 281.12 324.083 280.778 325.325L280.4 326.693ZM300.09 330.941V318.881H301.638V326.027H303.276L305.706 322.535H307.38V322.895L304.41 326.657L307.686 330.581V330.941H306.03L303.348 327.377H301.638V330.941H300.09ZM313.895 331.157C311.339 331.157 309.809 329.609 309.809 326.801C309.809 323.993 311.429 322.319 313.895 322.319C316.307 322.319 317.585 323.813 317.585 326.135C317.585 326.387 317.567 326.783 317.513 327.125H311.375C311.465 328.925 312.275 329.915 313.895 329.915C315.263 329.915 315.893 329.177 316.145 328.313L317.477 328.655C317.099 330.113 315.983 331.157 313.895 331.157ZM311.393 326.081H316.127C316.091 324.389 315.353 323.471 313.859 323.471C312.401 323.471 311.555 324.317 311.393 326.081ZM321.131 330.941V322.535H322.553V325.019L322.715 325.037C323.363 323.219 324.587 322.355 326.081 322.355C326.891 322.355 327.503 322.535 328.349 322.949L327.989 324.371C327.251 323.975 326.495 323.759 325.811 323.759C323.921 323.759 322.679 324.929 322.679 327.017V330.941H321.131ZM331.318 330.941V322.535H332.794V324.623H333.064C333.586 323.345 334.648 322.319 335.98 322.319C337.438 322.319 338.302 323.345 338.302 325.217V330.941H336.736V325.577C336.736 324.407 336.34 323.741 335.278 323.741C333.874 323.741 332.884 324.857 332.884 326.315V330.941H331.318ZM345.483 331.157C342.927 331.157 341.397 329.609 341.397 326.801C341.397 323.993 343.017 322.319 345.483 322.319C347.895 322.319 349.173 323.813 349.173 326.135C349.173 326.387 349.155 326.783 349.101 327.125H342.963C343.053 328.925 343.863 329.915 345.483 329.915C346.851 329.915 347.481 329.177 347.733 328.313L349.065 328.655C348.687 330.113 347.571 331.157 345.483 331.157ZM342.981 326.081H347.715C347.679 324.389 346.941 323.471 345.447 323.471C343.989 323.471 343.143 324.317 342.981 326.081ZM351.999 330.941V329.699H355.185V320.123H352.161V318.881H356.733V329.699H359.649V330.941H351.999ZM373.057 325.505C373.057 323.561 374.443 322.535 376.765 322.535H380.995V323.669H380.059C379.591 323.669 378.907 323.615 378.043 323.507L378.025 323.777C379.213 324.029 380.257 324.569 380.257 325.757C380.257 327.323 378.997 328.349 376.639 328.349C376.117 328.349 375.667 328.295 375.253 328.205L374.983 328.601C374.821 328.853 374.731 329.033 374.731 329.267C374.731 329.645 375.037 329.789 375.667 329.789H378.313C380.059 329.789 381.049 330.527 381.049 331.841C381.049 333.569 379.987 334.343 376.639 334.343C373.525 334.343 372.571 333.623 372.571 332.489C372.571 331.733 373.327 331.229 374.371 330.941V330.743C373.831 330.581 373.489 330.221 373.489 329.681C373.489 329.213 373.795 328.871 374.281 328.547L374.929 328.097C373.705 327.683 373.057 326.765 373.057 325.505ZM374.497 325.451C374.497 326.531 375.091 327.179 376.657 327.179C378.223 327.179 378.889 326.549 378.889 325.451C378.889 324.407 378.133 323.723 376.639 323.723C375.127 323.723 374.497 324.425 374.497 325.451ZM375.451 330.851C374.371 330.851 373.849 331.463 373.849 332.021C373.849 332.831 374.497 333.191 376.783 333.191C379.177 333.191 379.753 332.741 379.753 331.931C379.753 331.283 379.249 330.851 378.205 330.851H375.451ZM384.306 330.941V322.535H385.728V325.019L385.89 325.037C386.538 323.219 387.762 322.355 389.256 322.355C390.066 322.355 390.678 322.535 391.524 322.949L391.164 324.371C390.426 323.975 389.67 323.759 388.986 323.759C387.096 323.759 385.854 324.929 385.854 327.017V330.941H384.306ZM394.116 330.941V329.699H397.356V323.777H394.278V322.535H398.922V329.699H401.766V330.941H394.116ZM396.834 320.573V319.097H398.994V320.573H396.834ZM404.285 326.783C404.285 323.975 405.563 322.319 407.435 322.319C408.857 322.319 409.757 323.291 410.225 324.515H410.441V318.881H412.007V330.941H410.441V328.907H410.225C409.721 330.149 408.677 331.157 407.363 331.157C405.599 331.157 404.285 329.555 404.285 326.783ZM410.441 327.377V326.207C410.441 324.767 409.469 323.741 408.155 323.741C406.697 323.741 405.815 324.785 405.815 326.765C405.815 328.727 406.679 329.807 408.155 329.807C409.451 329.807 410.441 328.763 410.441 327.377Z" fill="#212525"/>
<rect x="27" y="345.941" width="605" height="159.471" fill="#212525" fill-opacity="0.05"/>
<rect x="27.5" y="346.441" width="604" height="158.471" stroke="#212525" stroke-opacity="0.5" stroke-dasharray="8 8"/>
<rect width="164" height="91.4707" transform="translate(39 357.941)" fill="#212525" fill-opacity="0.1"/>
<path d="M59 369.941L68.503 374.99C70.8774 376.251 70.5214 379.759 67.942 380.517L57.8136 383.496C55.0812 384.3 54.9015 388.102 57.5459 389.16L63.7811 391.654C66.4438 392.719 66.2375 396.555 63.4758 397.328L57.4894 399.004C54.555 399.826 54.5727 403.992 57.514 404.789L62.1708 406.05C64.9678 406.808 65.1719 410.697 62.4695 411.744L61.8244 411.993C59.3956 412.933 59.2362 416.31 61.5657 417.474L63.0633 418.223C64.809 419.096 65.2696 421.377 63.9994 422.859L57.5 430.441" stroke="#212525"/>
<path d="M53.647 434.588L55.1318 427.379L60.6333 432.269L53.647 434.588Z" fill="#212525"/>
<path d="M71 369.941L80.503 374.99C82.8774 376.251 82.5214 379.759 79.942 380.517L69.8136 383.496C67.0812 384.3 66.9015 388.102 69.5459 389.16L75.7811 391.654C78.4438 392.719 78.2375 396.555 75.4758 397.328L69.4894 399.004C66.555 399.826 66.5727 403.992 69.514 404.789L74.1708 406.05C76.9678 406.808 77.1719 410.697 74.4695 411.744L73.8244 411.993C71.3956 412.933 71.2362 416.31 73.5657 417.474L75.0633 418.223C76.809 419.096 77.2696 421.377 75.9994 422.859L69.5 430.441" stroke="#212525"/>
<path d="M65.647 434.588L67.1318 427.379L72.6333 432.269L65.647 434.588Z" fill="#212525"/>
<path d="M83 369.941L92.503 374.99C94.8774 376.251 94.5214 379.759 91.942 380.517L81.8136 383.496C79.0812 384.3 78.9015 388.102 81.5459 389.16L87.7811 391.654C90.4438 392.719 90.2375 396.555 87.4758 397.328L81.4894 399.004C78.555 399.826 78.5727 403.992 81.514 404.789L86.1708 406.05C88.9678 406.808 89.1719 410.697 86.4695 411.744L85.8244 411.993C83.3956 412.933 83.2362 416.31 85.5657 417.474L87.0633 418.223C88.809 419.096 89.2696 421.377 87.9994 422.859L81.5 430.441" stroke="#212525"/>
<path d="M77.647 434.588L79.1318 427.379L84.6333 432.269L77.647 434.588Z" fill="#212525"/>
<path d="M95 369.941L104.503 374.99C106.877 376.251 106.521 379.759 103.942 380.517L93.8136 383.496C91.0812 384.3 90.9015 388.102 93.5459 389.16L99.7811 391.654C102.444 392.719 102.237 396.555 99.4758 397.328L93.4894 399.004C90.555 399.826 90.5727 403.992 93.514 404.789L98.1708 406.05C100.968 406.808 101.172 410.697 98.4695 411.744L97.8244 411.993C95.3956 412.933 95.2362 416.31 97.5657 417.474L99.0633 418.223C100.809 419.096 101.27 421.377 99.9994 422.859L93.5 430.441" stroke="#212525"/>
<path d="M89.647 434.588L91.1318 427.379L96.6333 432.269L89.647 434.588Z" fill="#212525"/>
<path d="M107 369.941L116.503 374.99C118.877 376.251 118.521 379.759 115.942 380.517L105.814 383.496C103.081 384.3 102.901 388.102 105.546 389.16L111.781 391.654C114.444 392.719 114.237 396.555 111.476 397.328L105.489 399.004C102.555 399.826 102.573 403.992 105.514 404.789L110.171 406.05C112.968 406.808 113.172 410.697 110.469 411.744L109.824 411.993C107.396 412.933 107.236 416.31 109.566 417.474L111.063 418.223C112.809 419.096 113.27 421.377 111.999 422.859L105.5 430.441" stroke="#212525"/>
<path d="M101.647 434.588L103.132 427.379L108.633 432.269L101.647 434.588Z" fill="#212525"/>
<path d="M119 369.941L128.503 374.99C130.877 376.251 130.521 379.759 127.942 380.517L117.814 383.496C115.081 384.3 114.901 388.102 117.546 389.16L123.781 391.654C126.444 392.719 126.237 396.555 123.476 397.328L117.489 399.004C114.555 399.826 114.573 403.992 117.514 404.789L122.171 406.05C124.968 406.808 125.172 410.697 122.469 411.744L121.824 411.993C119.396 412.933 119.236 416.31 121.566 417.474L123.063 418.223C124.809 419.096 125.27 421.377 123.999 422.859L117.5 430.441" stroke="#212525"/>
<path d="M113.647 434.588L115.132 427.379L120.633 432.269L113.647 434.588Z" fill="#212525"/>
<path d="M131 369.941L140.503 374.99C142.877 376.251 142.521 379.759 139.942 380.517L129.814 383.496C127.081 384.3 126.901 388.102 129.546 389.16L135.781 391.654C138.444 392.719 138.237 396.555 135.476 397.328L129.489 399.004C126.555 399.826 126.573 403.992 129.514 404.789L134.171 406.05C136.968 406.808 137.172 410.697 134.469 411.744L133.824 411.993C131.396 412.933 131.236 416.31 133.566 417.474L135.063 418.223C136.809 419.096 137.27 421.377 135.999 422.859L129.5 430.441" stroke="#212525"/>
<path d="M125.647 434.588L127.132 427.379L132.633 432.269L125.647 434.588Z" fill="#212525"/>
<path d="M143 369.941L152.503 374.99C154.877 376.251 154.521 379.759 151.942 380.517L141.814 383.496C139.081 384.3 138.901 388.102 141.546 389.16L147.781 391.654C150.444 392.719 150.237 396.555 147.476 397.328L141.489 399.004C138.555 399.826 138.573 403.992 141.514 404.789L146.171 406.05C148.968 406.808 149.172 410.697 146.469 411.744L145.824 411.993C143.396 412.933 143.236 416.31 145.566 417.474L147.063 418.223C148.809 419.096 149.27 421.377 147.999 422.859L141.5 430.441" stroke="#212525"/>
<path d="M137.647 434.588L139.132 427.379L144.633 432.269L137.647 434.588Z" fill="#212525"/>
<path d="M155 369.941L164.503 374.99C166.877 376.251 166.521 379.759 163.942 380.517L153.814 383.496C151.081 384.3 150.901 388.102 153.546 389.16L159.781 391.654C162.444 392.719 162.237 396.555 159.476 397.328L153.489 399.004C150.555 399.826 150.573 403.992 153.514 404.789L158.171 406.05C160.968 406.808 161.172 410.697 158.469 411.744L157.824 411.993C155.396 412.933 155.236 416.31 157.566 417.474L159.063 418.223C160.809 419.096 161.27 421.377 159.999 422.859L153.5 430.441" stroke="#212525"/>
<path d="M149.647 434.588L151.132 427.379L156.633 432.269L149.647 434.588Z" fill="#212525"/>
<path d="M167 369.941L176.503 374.99C178.877 376.251 178.521 379.759 175.942 380.517L165.814 383.496C163.081 384.3 162.901 388.102 165.546 389.16L171.781 391.654C174.444 392.719 174.237 396.555 171.476 397.328L165.489 399.004C162.555 399.826 162.573 403.992 165.514 404.789L170.171 406.05C172.968 406.808 173.172 410.697 170.469 411.744L169.824 411.993C167.396 412.933 167.236 416.31 169.566 417.474L171.063 418.223C172.809 419.096 173.27 421.377 171.999 422.859L165.5 430.441" stroke="#212525"/>
<path d="M161.647 434.588L163.132 427.379L168.633 432.269L161.647 434.588Z" fill="#212525"/>
<path d="M179 369.941L188.503 374.99C190.877 376.251 190.521 379.759 187.942 380.517L177.814 383.496C175.081 384.3 174.901 388.102 177.546 389.16L183.781 391.654C186.444 392.719 186.237 396.555 183.476 397.328L177.489 399.004C174.555 399.826 174.573 403.992 177.514 404.789L182.171 406.05C184.968 406.808 185.172 410.697 182.469 411.744L181.824 411.993C179.396 412.933 179.236 416.31 181.566 417.474L183.063 418.223C184.809 419.096 185.27 421.377 183.999 422.859L177.5 430.441" stroke="#212525"/>
<path d="M173.647 434.588L175.132 427.379L180.633 432.269L173.647 434.588Z" fill="#212525"/>
<rect width="164" height="91.4707" transform="translate(226 357.941)" fill="#212525" fill-opacity="0.1"/>
<path d="M246 369.941L255.503 374.99C257.877 376.251 257.521 379.759 254.942 380.517L244.814 383.496C242.081 384.3 241.901 388.102 244.546 389.16L250.781 391.654C253.444 392.719 253.237 396.555 250.476 397.328L244.489 399.004C241.555 399.826 241.573 403.992 244.514 404.789L249.171 406.05C251.968 406.808 252.172 410.697 249.469 411.744L248.824 411.993C246.396 412.933 246.236 416.31 248.566 417.474L250.063 418.223C251.809 419.096 252.27 421.377 250.999 422.859L244.5 430.441" stroke="#212525"/>
<path d="M240.647 434.588L242.132 427.379L247.633 432.269L240.647 434.588Z" fill="#212525"/>
<path d="M258 369.941L267.503 374.99C269.877 376.251 269.521 379.759 266.942 380.517L256.814 383.496C254.081 384.3 253.901 388.102 256.546 389.16L262.781 391.654C265.444 392.719 265.237 396.555 262.476 397.328L256.489 399.004C253.555 399.826 253.573 403.992 256.514 404.789L261.171 406.05C263.968 406.808 264.172 410.697 261.469 411.744L260.824 411.993C258.396 412.933 258.236 416.31 260.566 417.474L262.063 418.223C263.809 419.096 264.27 421.377 262.999 422.859L256.5 430.441" stroke="#212525"/>
<path d="M252.647 434.588L254.132 427.379L259.633 432.269L252.647 434.588Z" fill="#212525"/>
<path d="M270 369.941L279.503 374.99C281.877 376.251 281.521 379.759 278.942 380.517L268.814 383.496C266.081 384.3 265.901 388.102 268.546 389.16L274.781 391.654C277.444 392.719 277.237 396.555 274.476 397.328L268.489 399.004C265.555 399.826 265.573 403.992 268.514 404.789L273.171 406.05C275.968 406.808 276.172 410.697 273.469 411.744L272.824 411.993C270.396 412.933 270.236 416.31 272.566 417.474L274.063 418.223C275.809 419.096 276.27 421.377 274.999 422.859L268.5 430.441" stroke="#212525"/>
<path d="M264.647 434.588L266.132 427.379L271.633 432.269L264.647 434.588Z" fill="#212525"/>
<path d="M282 369.941L291.503 374.99C293.877 376.251 293.521 379.759 290.942 380.517L280.814 383.496C278.081 384.3 277.901 388.102 280.546 389.16L286.781 391.654C289.444 392.719 289.237 396.555 286.476 397.328L280.489 399.004C277.555 399.826 277.573 403.992 280.514 404.789L285.171 406.05C287.968 406.808 288.172 410.697 285.469 411.744L284.824 411.993C282.396 412.933 282.236 416.31 284.566 417.474L286.063 418.223C287.809 419.096 288.27 421.377 286.999 422.859L280.5 430.441" stroke="#212525"/>
<path d="M276.647 434.588L278.132 427.379L283.633 432.269L276.647 434.588Z" fill="#212525"/>
<path d="M294 369.941L303.503 374.99C305.877 376.251 305.521 379.759 302.942 380.517L292.814 383.496C290.081 384.3 289.901 388.102 292.546 389.16L298.781 391.654C301.444 392.719 301.237 396.555 298.476 397.328L292.489 399.004C289.555 399.826 289.573 403.992 292.514 404.789L297.171 406.05C299.968 406.808 300.172 410.697 297.469 411.744L296.824 411.993C294.396 412.933 294.236 416.31 296.566 417.474L298.063 418.223C299.809 419.096 300.27 421.377 298.999 422.859L292.5 430.441" stroke="#212525"/>
<path d="M288.647 434.588L290.132 427.379L295.633 432.269L288.647 434.588Z" fill="#212525"/>
<path d="M306 369.941L315.503 374.99C317.877 376.251 317.521 379.759 314.942 380.517L304.814 383.496C302.081 384.3 301.901 388.102 304.546 389.16L310.781 391.654C313.444 392.719 313.237 396.555 310.476 397.328L304.489 399.004C301.555 399.826 301.573 403.992 304.514 404.789L309.171 406.05C311.968 406.808 312.172 410.697 309.469 411.744L308.824 411.993C306.396 412.933 306.236 416.31 308.566 417.474L310.063 418.223C311.809 419.096 312.27 421.377 310.999 422.859L304.5 430.441" stroke="#212525"/>
<path d="M300.647 434.588L302.132 427.379L307.633 432.269L300.647 434.588Z" fill="#212525"/>
<path d="M318 369.941L327.503 374.99C329.877 376.251 329.521 379.759 326.942 380.517L316.814 383.496C314.081 384.3 313.901 388.102 316.546 389.16L322.781 391.654C325.444 392.719 325.237 396.555 322.476 397.328L316.489 399.004C313.555 399.826 313.573 403.992 316.514 404.789L321.171 406.05C323.968 406.808 324.172 410.697 321.469 411.744L320.824 411.993C318.396 412.933 318.236 416.31 320.566 417.474L322.063 418.223C323.809 419.096 324.27 421.377 322.999 422.859L316.5 430.441" stroke="#212525"/>
<path d="M312.647 434.588L314.132 427.379L319.633 432.269L312.647 434.588Z" fill="#212525"/>
<path d="M330 369.941L339.503 374.99C341.877 376.251 341.521 379.759 338.942 380.517L328.814 383.496C326.081 384.3 325.901 388.102 328.546 389.16L334.781 391.654C337.444 392.719 337.237 396.555 334.476 397.328L328.489 399.004C325.555 399.826 325.573 403.992 328.514 404.789L333.171 406.05C335.968 406.808 336.172 410.697 333.469 411.744L332.824 411.993C330.396 412.933 330.236 416.31 332.566 417.474L334.063 418.223C335.809 419.096 336.27 421.377 334.999 422.859L328.5 430.441" stroke="#212525"/>
<path d="M324.647 434.588L326.132 427.379L331.633 432.269L324.647 434.588Z" fill="#212525"/>
<path d="M342 369.941L351.503 374.99C353.877 376.251 353.521 379.759 350.942 380.517L340.814 383.496C338.081 384.3 337.901 388.102 340.546 389.16L346.781 391.654C349.444 392.719 349.237 396.555 346.476 397.328L340.489 399.004C337.555 399.826 337.573 403.992 340.514 404.789L345.171 406.05C347.968 406.808 348.172 410.697 345.469 411.744L344.824 411.993C342.396 412.933 342.236 416.31 344.566 417.474L346.063 418.223C347.809 419.096 348.27 421.377 346.999 422.859L340.5 430.441" stroke="#212525"/>
<path d="M336.647 434.588L338.132 427.379L343.633 432.269L336.647 434.588Z" fill="#212525"/>
<path d="M354 369.941L363.503 374.99C365.877 376.251 365.521 379.759 362.942 380.517L352.814 383.496C350.081 384.3 349.901 388.102 352.546 389.16L358.781 391.654C361.444 392.719 361.237 396.555 358.476 397.328L352.489 399.004C349.555 399.826 349.573 403.992 352.514 404.789L357.171 406.05C359.968 406.808 360.172 410.697 357.469 411.744L356.824 411.993C354.396 412.933 354.236 416.31 356.566 417.474L358.063 418.223C359.809 419.096 360.27 421.377 358.999 422.859L352.5 430.441" stroke="#212525"/>
<path d="M348.647 434.588L350.132 427.379L355.633 432.269L348.647 434.588Z" fill="#212525"/>
<path d="M366 369.941L375.503 374.99C377.877 376.251 377.521 379.759 374.942 380.517L364.814 383.496C362.081 384.3 361.901 388.102 364.546 389.16L370.781 391.654C373.444 392.719 373.237 396.555 370.476 397.328L364.489 399.004C361.555 399.826 361.573 403.992 364.514 404.789L369.171 406.05C371.968 406.808 372.172 410.697 369.469 411.744L368.824 411.993C366.396 412.933 366.236 416.31 368.566 417.474L370.063 418.223C371.809 419.096 372.27 421.377 370.999 422.859L364.5 430.441" stroke="#212525"/>
<path d="M360.647 434.588L362.132 427.379L367.633 432.269L360.647 434.588Z" fill="#212525"/>
<rect x="413" y="401.677" width="4" height="4" fill="#212525"/>
<rect x="421" y="401.677" width="4" height="4" fill="#212525"/>
<rect x="429" y="401.677" width="4" height="4" fill="#212525"/>
<rect width="164" height="91.4707" transform="translate(456 357.941)" fill="#212525" fill-opacity="0.1"/>
<path d="M476 369.941L485.503 374.99C487.877 376.251 487.521 379.759 484.942 380.517L474.814 383.496C472.081 384.3 471.901 388.102 474.546 389.16L480.781 391.654C483.444 392.719 483.237 396.555 480.476 397.328L474.489 399.004C471.555 399.826 471.573 403.992 474.514 404.789L479.171 406.05C481.968 406.808 482.172 410.697 479.469 411.744L478.824 411.993C476.396 412.933 476.236 416.31 478.566 417.474L480.063 418.223C481.809 419.096 482.27 421.377 480.999 422.859L474.5 430.441" stroke="#212525"/>
<path d="M470.647 434.588L472.132 427.379L477.633 432.269L470.647 434.588Z" fill="#212525"/>
<path d="M488 369.941L497.503 374.99C499.877 376.251 499.521 379.759 496.942 380.517L486.814 383.496C484.081 384.3 483.901 388.102 486.546 389.16L492.781 391.654C495.444 392.719 495.237 396.555 492.476 397.328L486.489 399.004C483.555 399.826 483.573 403.992 486.514 404.789L491.171 406.05C493.968 406.808 494.172 410.697 491.469 411.744L490.824 411.993C488.396 412.933 488.236 416.31 490.566 417.474L492.063 418.223C493.809 419.096 494.27 421.377 492.999 422.859L486.5 430.441" stroke="#212525"/>
<path d="M482.647 434.588L484.132 427.379L489.633 432.269L482.647 434.588Z" fill="#212525"/>
<path d="M500 369.941L509.503 374.99C511.877 376.251 511.521 379.759 508.942 380.517L498.814 383.496C496.081 384.3 495.901 388.102 498.546 389.16L504.781 391.654C507.444 392.719 507.237 396.555 504.476 397.328L498.489 399.004C495.555 399.826 495.573 403.992 498.514 404.789L503.171 406.05C505.968 406.808 506.172 410.697 503.469 411.744L502.824 411.993C500.396 412.933 500.236 416.31 502.566 417.474L504.063 418.223C505.809 419.096 506.27 421.377 504.999 422.859L498.5 430.441" stroke="#212525"/>
<path d="M494.647 434.588L496.132 427.379L501.633 432.269L494.647 434.588Z" fill="#212525"/>
<path d="M512 369.941L521.503 374.99C523.877 376.251 523.521 379.759 520.942 380.517L510.814 383.496C508.081 384.3 507.901 388.102 510.546 389.16L516.781 391.654C519.444 392.719 519.237 396.555 516.476 397.328L510.489 399.004C507.555 399.826 507.573 403.992 510.514 404.789L515.171 406.05C517.968 406.808 518.172 410.697 515.469 411.744L514.824 411.993C512.396 412.933 512.236 416.31 514.566 417.474L516.063 418.223C517.809 419.096 518.27 421.377 516.999 422.859L510.5 430.441" stroke="#212525"/>
<path d="M506.647 434.588L508.132 427.379L513.633 432.269L506.647 434.588Z" fill="#212525"/>
<path d="M524 369.941L533.503 374.99C535.877 376.251 535.521 379.759 532.942 380.517L522.814 383.496C520.081 384.3 519.901 388.102 522.546 389.16L528.781 391.654C531.444 392.719 531.237 396.555 528.476 397.328L522.489 399.004C519.555 399.826 519.573 403.992 522.514 404.789L527.171 406.05C529.968 406.808 530.172 410.697 527.469 411.744L526.824 411.993C524.396 412.933 524.236 416.31 526.566 417.474L528.063 418.223C529.809 419.096 530.27 421.377 528.999 422.859L522.5 430.441" stroke="#212525"/>
<path d="M518.647 434.588L520.132 427.379L525.633 432.269L518.647 434.588Z" fill="#212525"/>
<path d="M536 369.941L545.503 374.99C547.877 376.251 547.521 379.759 544.942 380.517L534.814 383.496C532.081 384.3 531.901 388.102 534.546 389.16L540.781 391.654C543.444 392.719 543.237 396.555 540.476 397.328L534.489 399.004C531.555 399.826 531.573 403.992 534.514 404.789L539.171 406.05C541.968 406.808 542.172 410.697 539.469 411.744L538.824 411.993C536.396 412.933 536.236 416.31 538.566 417.474L540.063 418.223C541.809 419.096 542.27 421.377 540.999 422.859L534.5 430.441" stroke="#212525"/>
<path d="M530.647 434.588L532.132 427.379L537.633 432.269L530.647 434.588Z" fill="#212525"/>
<path d="M548 369.941L557.503 374.99C559.877 376.251 559.521 379.759 556.942 380.517L546.814 383.496C544.081 384.3 543.901 388.102 546.546 389.16L552.781 391.654C555.444 392.719 555.237 396.555 552.476 397.328L546.489 399.004C543.555 399.826 543.573 403.992 546.514 404.789L551.171 406.05C553.968 406.808 554.172 410.697 551.469 411.744L550.824 411.993C548.396 412.933 548.236 416.31 550.566 417.474L552.063 418.223C553.809 419.096 554.27 421.377 552.999 422.859L546.5 430.441" stroke="#212525"/>
<path d="M542.647 434.588L544.132 427.379L549.633 432.269L542.647 434.588Z" fill="#212525"/>
<path d="M560 369.941L569.503 374.99C571.877 376.251 571.521 379.759 568.942 380.517L558.814 383.496C556.081 384.3 555.901 388.102 558.546 389.16L564.781 391.654C567.444 392.719 567.237 396.555 564.476 397.328L558.489 399.004C555.555 399.826 555.573 403.992 558.514 404.789L563.171 406.05C565.968 406.808 566.172 410.697 563.469 411.744L562.824 411.993C560.396 412.933 560.236 416.31 562.566 417.474L564.063 418.223C565.809 419.096 566.27 421.377 564.999 422.859L558.5 430.441" stroke="#212525"/>
<path d="M554.647 434.588L556.132 427.379L561.633 432.269L554.647 434.588Z" fill="#212525"/>
<path d="M572 369.941L581.503 374.99C583.877 376.251 583.521 379.759 580.942 380.517L570.814 383.496C568.081 384.3 567.901 388.102 570.546 389.16L576.781 391.654C579.444 392.719 579.237 396.555 576.476 397.328L570.489 399.004C567.555 399.826 567.573 403.992 570.514 404.789L575.171 406.05C577.968 406.808 578.172 410.697 575.469 411.744L574.824 411.993C572.396 412.933 572.236 416.31 574.566 417.474L576.063 418.223C577.809 419.096 578.27 421.377 576.999 422.859L570.5 430.441" stroke="#212525"/>
<path d="M566.647 434.588L568.132 427.379L573.633 432.269L566.647 434.588Z" fill="#212525"/>
<path d="M584 369.941L593.503 374.99C595.877 376.251 595.521 379.759 592.942 380.517L582.814 383.496C580.081 384.3 579.901 388.102 582.546 389.16L588.781 391.654C591.444 392.719 591.237 396.555 588.476 397.328L582.489 399.004C579.555 399.826 579.573 403.992 582.514 404.789L587.171 406.05C589.968 406.808 590.172 410.697 587.469 411.744L586.824 411.993C584.396 412.933 584.236 416.31 586.566 417.474L588.063 418.223C589.809 419.096 590.27 421.377 588.999 422.859L582.5 430.441" stroke="#212525"/>
<path d="M578.647 434.588L580.132 427.379L585.633 432.269L578.647 434.588Z" fill="#212525"/>
<path d="M596 369.941L605.503 374.99C607.877 376.251 607.521 379.759 604.942 380.517L594.814 383.496C592.081 384.3 591.901 388.102 594.546 389.16L600.781 391.654C603.444 392.719 603.237 396.555 600.476 397.328L594.489 399.004C591.555 399.826 591.573 403.992 594.514 404.789L599.171 406.05C601.968 406.808 602.172 410.697 599.469 411.744L598.824 411.993C596.396 412.933 596.236 416.31 598.566 417.474L600.063 418.223C601.809 419.096 602.27 421.377 600.999 422.859L594.5 430.441" stroke="#212525"/>
<path d="M590.647 434.588L592.132 427.379L597.633 432.269L590.647 434.588Z" fill="#212525"/>
<mask id="path-104-inside-2_447_5145" fill="white">
<path d="M39 461.412H620V493.412H39V461.412Z"/>
</mask>
<path d="M39 461.412H620V493.412H39V461.412Z" fill="#212525" fill-opacity="0.1"/>
<path d="M39 461.412V460.568H38.1562V461.412H39ZM620 461.412H620.844V460.568H620V461.412ZM620 493.412V494.252H620.844V493.412H620ZM39 493.412H38.1562V494.252H39V493.412ZM39 462.256H620V460.568H39V462.256ZM619.156 461.412V493.412H620.844V461.412H619.156ZM620 492.572H39V494.252H620V492.572ZM39.8438 493.412V461.412H38.1562V493.412H39.8438Z" fill="#212525" mask="url(#path-104-inside-2_447_5145)"/>
<path d="M281.599 482.061C280.181 482.061 278.98 481.008 278.98 477.97C278.98 475.203 280.019 473.65 282.112 473.65C283.826 473.65 284.636 474.555 284.92 476.269L283.759 476.526C283.529 475.27 283.111 474.717 282.112 474.717C280.721 474.717 280.235 475.864 280.235 477.97C280.235 480.049 280.775 481.035 282.098 481.035C283.516 481.035 283.88 479.941 283.907 478.753H282.179V477.781H285.055V481.912H283.961V480.171H283.759C283.408 481.197 282.773 482.061 281.599 482.061ZM287.147 481.912V480.981H289.536V473.799H287.268V472.867H290.697V480.981H292.884V481.912H287.147ZM294.855 478.74C294.855 476.796 296.043 475.446 297.919 475.446C299.782 475.446 300.97 476.796 300.97 478.74C300.97 480.67 299.877 482.074 297.919 482.074C295.948 482.074 294.855 480.67 294.855 478.74ZM296.029 478.726C296.029 480.076 296.583 481.116 297.906 481.116C299.229 481.116 299.796 480.076 299.796 478.726C299.796 477.376 299.188 476.404 297.919 476.404C296.637 476.404 296.029 477.376 296.029 478.726ZM308.948 478.794C308.948 480.873 307.949 482.074 306.667 482.074C305.681 482.074 304.871 481.318 304.493 480.387H304.331V481.912H303.157V472.867H304.331V477.093H304.493C304.858 476.175 305.533 475.446 306.613 475.446C307.963 475.446 308.948 476.688 308.948 478.794ZM304.331 478.362V479.239C304.331 480.279 305.047 481.062 306.059 481.062C307.166 481.062 307.801 480.252 307.801 478.78C307.801 477.295 307.153 476.512 306.073 476.512C305.033 476.512 304.331 477.282 304.331 478.362ZM312.728 482.047C311.567 482.047 310.743 481.399 310.743 480.265C310.743 479.212 311.459 478.456 313.038 478.456H315.104V477.781C315.104 476.998 314.699 476.391 313.713 476.391C312.863 476.391 312.35 476.85 312.107 477.444L311.04 477.066C311.378 476.161 312.336 475.446 313.74 475.446C315.455 475.446 316.278 476.35 316.278 477.768V481.912H315.225V480.495H315.009C314.645 481.386 313.875 482.047 312.728 482.047ZM315.104 479.172H313.268C312.363 479.172 311.837 479.536 311.837 480.198C311.837 480.697 312.255 481.143 313.16 481.143C314.307 481.143 315.104 480.468 315.104 479.563V479.172ZM318.735 481.912V480.981H321.124V473.799H318.856V472.867H322.285V480.981H324.472V481.912H318.735ZM334.326 481.912V473.812H336.229L336.985 477.484C337.107 478.078 337.201 478.942 337.336 479.86H337.552C337.714 478.686 337.849 477.768 338.052 476.674L338.565 473.812H340.468V481.912H339.375V478.065C339.375 476.944 339.456 475.675 339.51 474.811H339.213C339.078 475.689 338.956 476.688 338.781 477.538L338.052 480.913H336.769L335.946 477.214C335.811 476.593 335.649 475.621 335.514 474.811H335.271C335.311 475.648 335.406 476.823 335.406 477.714V481.912H334.326ZM345.436 482.074C343.519 482.074 342.371 480.913 342.371 478.807C342.371 476.701 343.586 475.446 345.436 475.446C347.245 475.446 348.203 476.566 348.203 478.308C348.203 478.497 348.19 478.794 348.149 479.05H343.546C343.613 480.4 344.221 481.143 345.436 481.143C346.462 481.143 346.934 480.589 347.123 479.941L348.122 480.198C347.839 481.291 347.002 482.074 345.436 482.074ZM343.559 478.267H347.11C347.083 476.998 346.529 476.31 345.409 476.31C344.315 476.31 343.681 476.944 343.559 478.267ZM350.241 481.912V475.608H351.173V476.58H351.308C351.51 475.891 351.956 475.473 352.55 475.473C353.157 475.473 353.508 475.851 353.603 476.58H353.751C353.967 475.932 354.386 475.473 354.993 475.473C355.736 475.473 356.195 476.026 356.195 476.971V481.912H355.182V477.295C355.182 476.823 354.953 476.499 354.534 476.499C354.021 476.499 353.724 476.877 353.724 477.646V481.912H352.725V477.295C352.725 476.782 352.482 476.499 352.064 476.499C351.605 476.499 351.254 476.904 351.254 477.579V481.912H350.241ZM358.03 478.74C358.03 476.796 359.218 475.446 361.095 475.446C362.958 475.446 364.146 476.796 364.146 478.74C364.146 480.67 363.052 482.074 361.095 482.074C359.124 482.074 358.03 480.67 358.03 478.74ZM359.205 478.726C359.205 480.076 359.758 481.116 361.081 481.116C362.404 481.116 362.971 480.076 362.971 478.726C362.971 477.376 362.364 476.404 361.095 476.404C359.812 476.404 359.205 477.376 359.205 478.726ZM366.656 481.912V475.608H367.723V477.471L367.844 477.484C368.33 476.121 369.248 475.473 370.369 475.473C370.976 475.473 371.435 475.608 372.07 475.918L371.8 476.985C371.246 476.688 370.679 476.526 370.166 476.526C368.749 476.526 367.817 477.403 367.817 478.969V481.912H366.656ZM373.527 484.207L373.716 483.181C374 483.235 374.27 483.262 374.54 483.262C375.336 483.262 375.795 483.046 376.362 481.885L373.541 475.608H374.85L375.674 477.876C375.998 478.794 376.47 479.995 376.808 481.008H377.145C377.483 479.968 377.915 478.74 378.225 477.876L378.995 475.608H380.25L377.415 481.993C376.7 483.586 375.917 484.288 374.526 484.288C374.108 484.288 373.797 484.248 373.527 484.207Z" fill="#212525"/>
<path d="M942.734 35.582C942.734 31.964 944.246 29.984 946.982 29.984C949.232 29.984 950.492 31.244 950.798 33.602L949.25 33.962C948.926 32.18 948.296 31.406 946.946 31.406C945.038 31.406 944.39 32.99 944.39 35.582C944.39 38.318 945.056 39.83 946.91 39.83C948.404 39.83 948.998 39.02 949.34 37.202L950.888 37.544C950.546 39.956 949.304 41.216 946.91 41.216C944.12 41.216 942.734 39.218 942.734 35.582ZM957.421 41.198C954.919 41.198 953.623 39.758 953.623 36.986V30.2H955.279V36.86C955.279 38.624 955.729 39.83 957.421 39.83C959.059 39.83 959.545 38.804 959.545 36.95V30.2H961.201V36.986C961.201 39.758 959.887 41.198 957.421 41.198ZM964.297 41V30.2H967.789C970.759 30.2 972.091 31.892 972.091 35.528C972.091 39.128 970.417 41 967.771 41H964.297ZM965.953 39.632H967.663C969.697 39.632 970.435 38.12 970.435 35.528C970.435 32.594 969.643 31.568 967.591 31.568H965.953V39.632ZM973.854 41L977.184 30.2H979.758L983.088 41H981.324L980.496 38.066H976.392L975.564 41H973.854ZM976.752 36.752H980.136L979.74 35.384C979.398 34.16 979.056 32.72 978.822 31.568H978.102C977.832 32.738 977.472 34.142 977.13 35.384L976.752 36.752ZM995.381 35.582C995.381 31.964 996.893 29.984 999.629 29.984C1001.88 29.984 1003.14 31.244 1003.44 33.602L1001.9 33.962C1001.57 32.18 1000.94 31.406 999.593 31.406C997.685 31.406 997.037 32.99 997.037 35.582C997.037 38.318 997.703 39.83 999.557 39.83C1001.05 39.83 1001.64 39.02 1001.99 37.202L1003.53 37.544C1003.19 39.956 1001.95 41.216 999.557 41.216C996.767 41.216 995.381 39.218 995.381 35.582ZM1005.98 36.77C1005.98 34.178 1007.57 32.378 1010.07 32.378C1012.55 32.378 1014.14 34.178 1014.14 36.77C1014.14 39.344 1012.68 41.216 1010.07 41.216C1007.44 41.216 1005.98 39.344 1005.98 36.77ZM1007.55 36.752C1007.55 38.552 1008.29 39.938 1010.05 39.938C1011.81 39.938 1012.57 38.552 1012.57 36.752C1012.57 34.952 1011.76 33.656 1010.07 33.656C1008.36 33.656 1007.55 34.952 1007.55 36.752ZM1017.48 41V32.594H1018.91V35.078L1019.07 35.096C1019.72 33.278 1020.94 32.414 1022.43 32.414C1023.24 32.414 1023.86 32.594 1024.7 33.008L1024.34 34.43C1023.6 34.034 1022.85 33.818 1022.16 33.818C1020.27 33.818 1019.03 34.988 1019.03 37.076V41H1017.48ZM1031.31 41.216C1028.75 41.216 1027.22 39.668 1027.22 36.86C1027.22 34.052 1028.84 32.378 1031.31 32.378C1033.72 32.378 1035 33.872 1035 36.194C1035 36.446 1034.98 36.842 1034.92 37.184H1028.79C1028.88 38.984 1029.69 39.974 1031.31 39.974C1032.67 39.974 1033.3 39.236 1033.56 38.372L1034.89 38.714C1034.51 40.172 1033.39 41.216 1031.31 41.216ZM1028.8 36.14H1033.54C1033.5 34.448 1032.76 33.53 1031.27 33.53C1029.81 33.53 1028.97 34.376 1028.8 36.14Z" fill="#212525"/>
<rect x="983" y="56" width="12" height="60" fill="#212525"/>
<path d="M863.656 146.94L865.24 146.58C865.492 147.984 866.446 148.938 868.084 148.938C869.668 148.938 870.352 148.146 870.352 147.21C870.352 145.968 869.38 145.59 867.742 145.248C865.636 144.834 864.178 144.114 864.178 141.972C864.178 140.262 865.492 138.984 867.994 138.984C870.334 138.984 871.432 140.334 871.738 141.864L870.136 142.152C869.884 141.108 869.272 140.244 867.904 140.244C866.536 140.244 865.798 140.91 865.798 141.846C865.798 143.16 866.86 143.52 868.39 143.898C870.784 144.42 872.026 145.158 872.026 147.084C872.026 148.812 870.838 150.216 868.066 150.216C865.33 150.216 863.926 148.812 863.656 146.94ZM876.436 146.886V142.836H874.276V141.594H876.436V139.2H878.002V141.594H882.196V142.836H878.002V146.652C878.002 148.11 878.56 148.866 880 148.866C880.612 148.866 881.26 148.722 882.088 148.362L882.394 149.586C881.458 150 880.63 150.216 879.658 150.216C877.408 150.216 876.436 148.812 876.436 146.886ZM885.867 150V141.594H887.289V144.078L887.451 144.096C888.099 142.278 889.323 141.414 890.817 141.414C891.627 141.414 892.239 141.594 893.085 142.008L892.725 143.43C891.987 143.034 891.231 142.818 890.547 142.818C888.657 142.818 887.415 143.988 887.415 146.076V150H885.867ZM899.69 150.216C897.134 150.216 895.604 148.668 895.604 145.86C895.604 143.052 897.224 141.378 899.69 141.378C902.102 141.378 903.38 142.872 903.38 145.194C903.38 145.446 903.362 145.842 903.308 146.184H897.17C897.26 147.984 898.07 148.974 899.69 148.974C901.058 148.974 901.688 148.236 901.94 147.372L903.272 147.714C902.894 149.172 901.778 150.216 899.69 150.216ZM897.188 145.14H901.922C901.886 143.448 901.148 142.53 899.654 142.53C898.196 142.53 897.35 143.376 897.188 145.14ZM908.726 150.18C907.178 150.18 906.08 149.316 906.08 147.804C906.08 146.4 907.034 145.392 909.14 145.392H911.894V144.492C911.894 143.448 911.354 142.638 910.04 142.638C908.906 142.638 908.222 143.25 907.898 144.042L906.476 143.538C906.926 142.332 908.204 141.378 910.076 141.378C912.362 141.378 913.46 142.584 913.46 144.474V150H912.056V148.11H911.768C911.282 149.298 910.256 150.18 908.726 150.18ZM911.894 146.346H909.446C908.24 146.346 907.538 146.832 907.538 147.714C907.538 148.38 908.096 148.974 909.302 148.974C910.832 148.974 911.894 148.074 911.894 146.868V146.346ZM916.627 150V141.594H917.869V142.89H918.049C918.319 141.972 918.913 141.414 919.705 141.414C920.515 141.414 920.983 141.918 921.109 142.89H921.307C921.595 142.026 922.153 141.414 922.963 141.414C923.953 141.414 924.565 142.152 924.565 143.412V150H923.215V143.844C923.215 143.214 922.909 142.782 922.351 142.782C921.667 142.782 921.271 143.286 921.271 144.312V150H919.939V143.844C919.939 143.16 919.615 142.782 919.057 142.782C918.445 142.782 917.977 143.322 917.977 144.222V150H916.627ZM927.264 150V148.758H930.504V142.836H927.426V141.594H932.07V148.758H934.914V150H927.264ZM929.982 139.632V138.156H932.142V139.632H929.982ZM938.172 150V141.594H939.648V143.682H939.918C940.44 142.404 941.502 141.378 942.834 141.378C944.292 141.378 945.156 142.404 945.156 144.276V150H943.59V144.636C943.59 143.466 943.194 142.8 942.132 142.8C940.728 142.8 939.738 143.916 939.738 145.374V150H938.172ZM948.323 144.564C948.323 142.62 949.709 141.594 952.031 141.594H956.261V142.728H955.325C954.857 142.728 954.173 142.674 953.309 142.566L953.291 142.836C954.479 143.088 955.523 143.628 955.523 144.816C955.523 146.382 954.263 147.408 951.905 147.408C951.383 147.408 950.933 147.354 950.519 147.264L950.249 147.66C950.087 147.912 949.997 148.092 949.997 148.326C949.997 148.704 950.303 148.848 950.933 148.848H953.579C955.325 148.848 956.315 149.586 956.315 150.9C956.315 152.628 955.253 153.402 951.905 153.402C948.791 153.402 947.837 152.682 947.837 151.548C947.837 150.792 948.593 150.288 949.637 150V149.802C949.097 149.64 948.755 149.28 948.755 148.74C948.755 148.272 949.061 147.93 949.547 147.606L950.195 147.156C948.971 146.742 948.323 145.824 948.323 144.564ZM949.763 144.51C949.763 145.59 950.357 146.238 951.923 146.238C953.489 146.238 954.155 145.608 954.155 144.51C954.155 143.466 953.399 142.782 951.905 142.782C950.393 142.782 949.763 143.484 949.763 144.51ZM950.717 149.91C949.637 149.91 949.115 150.522 949.115 151.08C949.115 151.89 949.763 152.25 952.049 152.25C954.443 152.25 955.019 151.8 955.019 150.99C955.019 150.342 954.515 149.91 953.471 149.91H950.717ZM969.111 150V139.2H971.649L972.657 144.096C972.819 144.888 972.945 146.04 973.125 147.264H973.413C973.629 145.698 973.809 144.474 974.079 143.016L974.763 139.2H977.301V150H975.843V144.87C975.843 143.376 975.951 141.684 976.023 140.532H975.627C975.447 141.702 975.285 143.034 975.051 144.168L974.079 148.668H972.369L971.271 143.736C971.091 142.908 970.875 141.612 970.695 140.532H970.371C970.425 141.648 970.551 143.214 970.551 144.402V150H969.111ZM980.217 147.318V141.594H981.783V146.958C981.783 148.128 982.197 148.776 983.241 148.776C984.645 148.776 985.635 147.678 985.635 146.202V141.594H987.183V150H985.707V147.894H985.437C984.915 149.19 983.853 150.216 982.539 150.216C981.081 150.216 980.217 149.19 980.217 147.318ZM990.44 150V148.758H993.626V139.182H990.602V137.94H995.174V148.758H998.09V150H990.44ZM1002.79 146.886V142.836H1000.63V141.594H1002.79V139.2H1004.35V141.594H1008.55V142.836H1004.35V146.652C1004.35 148.11 1004.91 148.866 1006.35 148.866C1006.96 148.866 1007.61 148.722 1008.44 148.362L1008.75 149.586C1007.81 150 1006.98 150.216 1006.01 150.216C1003.76 150.216 1002.79 148.812 1002.79 146.886ZM1011.5 150V148.758H1014.74V142.836H1011.66V141.594H1016.3V148.758H1019.15V150H1011.5ZM1014.22 139.632V138.156H1016.38V139.632H1014.22ZM1030.04 145.842C1030.04 148.614 1028.72 150.216 1027 150.216C1025.65 150.216 1024.58 149.208 1024.1 147.966H1023.88V153.006H1022.32V141.594H1023.88V143.574H1024.1C1024.57 142.35 1025.47 141.378 1026.92 141.378C1028.74 141.378 1030.04 143.034 1030.04 145.842ZM1023.88 146.436C1023.88 147.822 1024.85 148.866 1026.19 148.866C1027.64 148.866 1028.51 147.804 1028.51 145.824C1028.51 143.826 1027.63 142.8 1026.2 142.8C1024.84 142.8 1023.88 143.826 1023.88 145.266V146.436ZM1033.28 150V141.594H1034.7V144.078L1034.86 144.096C1035.51 142.278 1036.73 141.414 1038.23 141.414C1039.04 141.414 1039.65 141.594 1040.5 142.008L1040.14 143.43C1039.4 143.034 1038.64 142.818 1037.96 142.818C1036.07 142.818 1034.83 143.988 1034.83 146.076V150H1033.28ZM1042.83 145.77C1042.83 143.178 1044.42 141.378 1046.92 141.378C1049.4 141.378 1050.99 143.178 1050.99 145.77C1050.99 148.344 1049.53 150.216 1046.92 150.216C1044.29 150.216 1042.83 148.344 1042.83 145.77ZM1044.4 145.752C1044.4 147.552 1045.14 148.938 1046.9 148.938C1048.67 148.938 1049.42 147.552 1049.42 145.752C1049.42 143.952 1048.61 142.656 1046.92 142.656C1045.21 142.656 1044.4 143.952 1044.4 145.752ZM1053.49 145.86C1053.49 143.052 1055.04 141.378 1057.61 141.378C1059.75 141.378 1060.94 142.386 1061.3 144.24L1059.88 144.564C1059.59 143.394 1058.98 142.656 1057.58 142.656C1055.94 142.656 1055.07 143.718 1055.07 145.806C1055.07 147.696 1055.83 148.92 1057.61 148.92C1059 148.92 1059.68 148.02 1059.93 147.03L1061.34 147.462C1060.96 149.208 1059.65 150.216 1057.63 150.216C1054.97 150.216 1053.49 148.632 1053.49 145.86ZM1068.16 150.216C1065.6 150.216 1064.07 148.668 1064.07 145.86C1064.07 143.052 1065.69 141.378 1068.16 141.378C1070.57 141.378 1071.85 142.872 1071.85 145.194C1071.85 145.446 1071.83 145.842 1071.78 146.184H1065.64C1065.73 147.984 1066.54 148.974 1068.16 148.974C1069.53 148.974 1070.16 148.236 1070.41 147.372L1071.74 147.714C1071.36 149.172 1070.25 150.216 1068.16 150.216ZM1065.66 145.14H1070.39C1070.36 143.448 1069.62 142.53 1068.12 142.53C1066.67 142.53 1065.82 143.376 1065.66 145.14ZM1078.63 150.216C1076.2 150.216 1075.02 149.172 1074.66 147.624L1076.1 147.336C1076.38 148.362 1077.14 149.064 1078.65 149.064C1079.91 149.064 1080.72 148.668 1080.72 147.804C1080.72 146.868 1079.7 146.58 1078.36 146.364C1076.55 146.076 1075.11 145.554 1075.11 143.862C1075.11 142.422 1076.24 141.378 1078.54 141.378C1080.83 141.378 1081.62 142.35 1081.98 143.664L1080.56 143.934C1080.29 142.854 1079.62 142.512 1078.49 142.512C1077.23 142.512 1076.62 142.962 1076.62 143.736C1076.62 144.672 1077.59 144.924 1078.85 145.14C1080.88 145.464 1082.29 145.932 1082.29 147.714C1082.29 149.136 1081.15 150.216 1078.63 150.216ZM1089.16 150.216C1086.73 150.216 1085.55 149.172 1085.19 147.624L1086.63 147.336C1086.91 148.362 1087.67 149.064 1089.18 149.064C1090.44 149.064 1091.25 148.668 1091.25 147.804C1091.25 146.868 1090.23 146.58 1088.89 146.364C1087.08 146.076 1085.64 145.554 1085.64 143.862C1085.64 142.422 1086.77 141.378 1089.07 141.378C1091.36 141.378 1092.15 142.35 1092.51 143.664L1091.09 143.934C1090.82 142.854 1090.15 142.512 1089.02 142.512C1087.76 142.512 1087.15 142.962 1087.15 143.736C1087.15 144.672 1088.12 144.924 1089.38 145.14C1091.41 145.464 1092.82 145.932 1092.82 147.714C1092.82 149.136 1091.68 150.216 1089.16 150.216ZM1095.48 145.77C1095.48 143.178 1097.06 141.378 1099.57 141.378C1102.05 141.378 1103.63 143.178 1103.63 145.77C1103.63 148.344 1102.18 150.216 1099.57 150.216C1096.94 150.216 1095.48 148.344 1095.48 145.77ZM1097.05 145.752C1097.05 147.552 1097.78 148.938 1099.55 148.938C1101.31 148.938 1102.07 147.552 1102.07 145.752C1102.07 143.952 1101.26 142.656 1099.57 142.656C1097.86 142.656 1097.05 143.952 1097.05 145.752ZM1106.98 150V141.594H1108.4V144.078L1108.57 144.096C1109.21 142.278 1110.44 141.414 1111.93 141.414C1112.74 141.414 1113.35 141.594 1114.2 142.008L1113.84 143.43C1113.1 143.034 1112.35 142.818 1111.66 142.818C1109.77 142.818 1108.53 143.988 1108.53 146.076V150H1106.98Z" fill="#212525"/>
<rect x="893" y="164" width="192" height="127" fill="#212525" fill-opacity="0.1"/>
<rect x="893.5" y="164.5" width="191" height="126" stroke="#212525" stroke-opacity="0.5" stroke-dasharray="8 8"/>
<mask id="path-112-inside-3_447_5145" fill="white">
<path d="M901 176H1077V200H901V176Z"/>
</mask>
<path d="M901 176H1077V200H901V176Z" fill="#212525" fill-opacity="0.1"/>
<path d="M901 176V175.156H900.156V176H901ZM1077 176H1077.84V175.156H1077V176ZM1077 200V200.84H1077.84V200H1077ZM901 200H900.156V200.84H901V200ZM901 176.844H1077V175.156H901V176.844ZM1076.16 176V200H1077.84V176H1076.16ZM1077 199.16H901V200.84H1077V199.16ZM901.844 200V176H900.156V200H901.844Z" fill="#212525" mask="url(#path-112-inside-3_447_5145)"/>
<path d="M945.005 192V184.8H945.881V191.244H949.601V192H945.005ZM951.437 185.7L954.149 184.8H954.617V191.28H956.381V192H951.557V191.28H953.777V185.472C953.153 185.832 952.421 186.168 951.725 186.432L951.437 185.7ZM965.62 192V184.8H967.828C969.748 184.8 970.624 185.916 970.624 188.364C970.624 190.764 969.52 192 967.828 192H965.62ZM966.496 191.268H967.768C969.232 191.268 969.76 190.14 969.76 188.364C969.76 186.288 969.184 185.532 967.72 185.532H966.496V191.268ZM974.187 192.12C973.131 192.12 972.399 191.532 972.399 190.572C972.399 189.66 973.035 189 974.391 189H976.323V188.328C976.323 187.572 975.927 186.972 974.955 186.972C974.151 186.972 973.635 187.428 973.407 187.992L972.651 187.704C972.963 186.924 973.803 186.288 974.979 186.288C976.419 186.288 977.151 187.104 977.151 188.316V192H976.407V190.776H976.239C975.903 191.556 975.207 192.12 974.187 192.12ZM976.323 189.528H974.523C973.647 189.528 973.179 189.876 973.179 190.536C973.179 191.016 973.599 191.448 974.451 191.448C975.543 191.448 976.323 190.812 976.323 189.948V189.528ZM980.715 189.984V187.104H979.263V186.42H980.715V184.8H981.531V186.42H984.411V187.104H981.531V189.852C981.531 190.884 981.939 191.412 982.947 191.412C983.367 191.412 983.787 191.328 984.351 191.064L984.531 191.724C983.907 192 983.379 192.132 982.791 192.132C981.351 192.132 980.715 191.244 980.715 189.984ZM988.226 192.12C987.17 192.12 986.438 191.532 986.438 190.572C986.438 189.66 987.074 189 988.43 189H990.362V188.328C990.362 187.572 989.966 186.972 988.994 186.972C988.19 186.972 987.674 187.428 987.446 187.992L986.69 187.704C987.002 186.924 987.842 186.288 989.018 186.288C990.458 186.288 991.19 187.104 991.19 188.316V192H990.446V190.776H990.278C989.942 191.556 989.246 192.12 988.226 192.12ZM990.362 189.528H988.562C987.686 189.528 987.218 189.876 987.218 190.536C987.218 191.016 987.638 191.448 988.49 191.448C989.582 191.448 990.362 190.812 990.362 189.948V189.528ZM1000.35 188.4C1000.35 186.012 1001.29 184.668 1003.08 184.668C1004.53 184.668 1005.35 185.508 1005.55 187.044L1004.75 187.236C1004.51 185.964 1004.04 185.424 1003.07 185.424C1001.7 185.424 1001.21 186.516 1001.21 188.4C1001.21 190.332 1001.71 191.388 1003.05 191.388C1004.13 191.388 1004.57 190.824 1004.81 189.528L1005.63 189.708C1005.4 191.268 1004.61 192.132 1003.03 192.132C1001.21 192.132 1000.35 190.788 1000.35 188.4ZM1009.28 192.12C1008.23 192.12 1007.5 191.532 1007.5 190.572C1007.5 189.66 1008.13 189 1009.49 189H1011.42V188.328C1011.42 187.572 1011.02 186.972 1010.05 186.972C1009.25 186.972 1008.73 187.428 1008.5 187.992L1007.75 187.704C1008.06 186.924 1008.9 186.288 1010.08 186.288C1011.52 186.288 1012.25 187.104 1012.25 188.316V192H1011.5V190.776H1011.34C1011 191.556 1010.3 192.12 1009.28 192.12ZM1011.42 189.528H1009.62C1008.74 189.528 1008.28 189.876 1008.28 190.536C1008.28 191.016 1008.7 191.448 1009.55 191.448C1010.64 191.448 1011.42 190.812 1011.42 189.948V189.528ZM1014.52 189.228C1014.52 187.38 1015.52 186.288 1017.18 186.288C1018.54 186.288 1019.35 186.936 1019.59 188.172L1018.84 188.352C1018.64 187.5 1018.16 186.984 1017.16 186.984C1015.97 186.984 1015.34 187.752 1015.34 189.216C1015.34 190.56 1015.92 191.436 1017.19 191.436C1018.18 191.436 1018.68 190.8 1018.87 190.068L1019.62 190.308C1019.35 191.472 1018.48 192.132 1017.19 192.132C1015.45 192.132 1014.52 191.052 1014.52 189.228ZM1021.88 192V183.96H1022.71V187.8H1022.83C1023.18 186.996 1023.84 186.288 1024.82 186.288C1025.77 186.288 1026.37 186.96 1026.37 188.208V192H1025.54V188.388C1025.54 187.524 1025.21 187.044 1024.51 187.044C1023.43 187.044 1022.71 187.836 1022.71 188.892V192H1021.88ZM1031.24 192.132C1029.55 192.132 1028.59 191.064 1028.59 189.228C1028.59 187.38 1029.67 186.288 1031.24 186.288C1032.78 186.288 1033.63 187.284 1033.63 188.808C1033.63 188.94 1033.62 189.18 1033.6 189.384H1029.42C1029.47 190.692 1030.04 191.448 1031.23 191.448C1032.2 191.448 1032.67 190.908 1032.86 190.284L1033.58 190.464C1033.32 191.46 1032.54 192.132 1031.24 192.132ZM1029.43 188.796H1032.86C1032.83 187.608 1032.31 186.936 1031.22 186.936C1030.18 186.936 1029.55 187.56 1029.43 188.796Z" fill="#212525"/>
<rect x="909" y="212" width="16" height="67" fill="#212525" fill-opacity="0.8"/>
<rect x="945" y="212" width="16" height="67" fill="#212525" fill-opacity="0.8"/>
<rect x="981" y="212" width="16" height="67" fill="#212525" fill-opacity="0.8"/>
<rect x="1017" y="212" width="16" height="67" fill="#212525" fill-opacity="0.8"/>
<rect x="1053" y="212" width="16" height="67" fill="#212525" fill-opacity="0.8"/>
<path d="M977.778 330.198C975.888 330.198 974.286 328.794 974.286 324.744C974.286 321.054 975.672 318.984 978.462 318.984C980.748 318.984 981.828 320.19 982.206 322.476L980.658 322.818C980.352 321.144 979.794 320.406 978.462 320.406C976.608 320.406 975.96 321.936 975.96 324.744C975.96 327.516 976.68 328.83 978.444 328.83C980.334 328.83 980.82 327.372 980.856 325.788H978.552V324.492H982.386V330H980.928V327.678H980.658C980.19 329.046 979.344 330.198 977.778 330.198ZM985.589 330V319.2H989.513C992.033 319.2 993.329 320.604 993.329 322.818C993.329 324.816 991.997 326.382 989.585 326.382H987.245V330H985.589ZM987.245 325.086H989.387C991.079 325.086 991.745 324.204 991.745 322.836C991.745 321.45 991.169 320.55 989.369 320.55H987.245V325.086ZM999.539 330.198C997.037 330.198 995.741 328.758 995.741 325.986V319.2H997.397V325.86C997.397 327.624 997.847 328.83 999.539 328.83C1001.18 328.83 1001.66 327.804 1001.66 325.95V319.2H1003.32V325.986C1003.32 328.758 1002 330.198 999.539 330.198Z" fill="#212525"/>
<rect x="689" y="345" width="600" height="158" fill="#212525" fill-opacity="0.05"/>
<rect x="689.5" y="345.5" width="599" height="157" stroke="#212525" stroke-opacity="0.5" stroke-dasharray="8 8"/>
<rect x="701" y="357" width="184" height="90" fill="#212525" fill-opacity="0.1"/>
<rect x="701.5" y="357.5" width="183" height="89" stroke="#212525" stroke-opacity="0.8"/>
<rect x="713" y="366.9" width="16" height="69.3" fill="#212525" fill-opacity="0.7"/>
<rect x="749" y="366.9" width="16" height="69.3" fill="#212525" fill-opacity="0.7"/>
<rect x="785" y="366.9" width="16" height="69.3" fill="#212525" fill-opacity="0.7"/>
<rect x="821" y="367" width="16" height="69.3" fill="#212525" fill-opacity="0.7"/>
<rect x="857" y="366.9" width="16" height="69.3" fill="#212525" fill-opacity="0.7"/>
<rect x="897" y="357" width="184" height="90" fill="#212525" fill-opacity="0.1"/>
<rect x="897.5" y="357.5" width="183" height="89" stroke="#212525" stroke-opacity="0.8"/>
<rect x="909" y="366.9" width="16" height="69.3" fill="#212525" fill-opacity="0.7"/>
<rect x="945" y="366.9" width="16" height="69.3" fill="#212525" fill-opacity="0.7"/>
<rect x="981" y="366.9" width="16" height="69.3" fill="#212525" fill-opacity="0.7"/>
<rect x="1017" y="367" width="16" height="69.3" fill="#212525" fill-opacity="0.7"/>
<rect x="1053" y="366.9" width="16" height="69.3" fill="#212525" fill-opacity="0.7"/>
<rect x="1093" y="357" width="184" height="90" fill="#212525" fill-opacity="0.1"/>
<rect x="1093.5" y="357.5" width="183" height="89" stroke="#212525" stroke-opacity="0.8"/>
<rect x="1105" y="366.9" width="16" height="69.3" fill="#212525" fill-opacity="0.7"/>
<rect x="1141" y="366.9" width="16" height="69.3" fill="#212525" fill-opacity="0.7"/>
<rect x="1177" y="366.9" width="16" height="69.3" fill="#212525" fill-opacity="0.7"/>
<rect x="1213" y="367" width="16" height="69.3" fill="#212525" fill-opacity="0.7"/>
<rect x="1249" y="366.9" width="16" height="69.3" fill="#212525" fill-opacity="0.7"/>
<mask id="path-144-inside-4_447_5145" fill="white">
<path d="M701.5 459H1276.5V491H701.5V459Z"/>
</mask>
<path d="M701.5 459H1276.5V491H701.5V459Z" fill="#212525" fill-opacity="0.1"/>
<path d="M701.5 459V458.156H700.656V459H701.5ZM1276.5 459H1277.34V458.156H1276.5V459ZM1276.5 491V491.84H1277.34V491H1276.5ZM701.5 491H700.656V491.84H701.5V491ZM701.5 459.844H1276.5V458.156H701.5V459.844ZM1275.66 459V491H1277.34V459H1275.66ZM1276.5 490.16H701.5V491.84H1276.5V490.16ZM702.344 491V459H700.656V491H702.344Z" fill="#212525" mask="url(#path-144-inside-4_447_5145)"/>
<path d="M964.79 479.649C963.372 479.649 962.171 478.595 962.171 475.558C962.171 472.79 963.21 471.238 965.303 471.238C967.017 471.238 967.827 472.142 968.111 473.857L966.95 474.113C966.72 472.858 966.302 472.304 965.303 472.304C963.912 472.304 963.426 473.452 963.426 475.558C963.426 477.637 963.966 478.622 965.289 478.622C966.707 478.622 967.071 477.529 967.098 476.341H965.37V475.369H968.246V479.5H967.152V477.758H966.95C966.599 478.784 965.964 479.649 964.79 479.649ZM970.648 479.5V471.4H973.591C975.481 471.4 976.453 472.453 976.453 474.113C976.453 475.612 975.454 476.786 973.645 476.786H971.89V479.5H970.648ZM971.89 475.814H973.497C974.766 475.814 975.265 475.153 975.265 474.127C975.265 473.087 974.833 472.412 973.483 472.412H971.89V475.814ZM981.11 479.649C979.234 479.649 978.262 478.568 978.262 476.489V471.4H979.504V476.395C979.504 477.718 979.841 478.622 981.11 478.622C982.339 478.622 982.703 477.853 982.703 476.462V471.4H983.945V476.489C983.945 478.568 982.96 479.649 981.11 479.649ZM994.298 479.5V471.4H997.093C998.942 471.4 999.793 472.264 999.793 473.897C999.793 475.112 999.253 475.949 998.267 476.3L1000.14 479.23V479.5H998.767L997.039 476.489H995.527V479.5H994.298ZM995.527 475.49H996.985C998.038 475.49 998.564 474.991 998.564 473.911C998.564 472.858 998.159 472.412 996.958 472.412H995.527V475.49ZM1001.33 479.5L1003.83 471.4H1005.76L1008.26 479.5H1006.93L1006.31 477.299H1003.23L1002.61 479.5H1001.33ZM1003.5 476.314H1006.04L1005.75 475.288C1005.49 474.37 1005.23 473.29 1005.06 472.426H1004.52C1004.31 473.303 1004.04 474.356 1003.79 475.288L1003.5 476.314ZM1009.62 479.5V471.4H1011.52L1012.28 475.072C1012.4 475.666 1012.5 476.53 1012.63 477.448H1012.85C1013.01 476.273 1013.14 475.355 1013.35 474.262L1013.86 471.4H1015.76V479.5H1014.67V475.652C1014.67 474.532 1014.75 473.263 1014.8 472.399H1014.51C1014.37 473.276 1014.25 474.275 1014.07 475.126L1013.35 478.501H1012.06L1011.24 474.802C1011.1 474.181 1010.94 473.209 1010.81 472.399H1010.56C1010.61 473.236 1010.7 474.41 1010.7 475.301V479.5H1009.62Z" fill="#212525"/>
</svg>
