<svg width="1208" height="834" viewBox="0 0 1208 834" fill="none" xmlns="http://www.w3.org/2000/svg">
<rect width="1208" height="834" fill="#E9E9E9"/>
<mask id="path-1-inside-1_779_5824" fill="white">
<path d="M270.129 238.195H398.154V319.399H270.129V238.195Z"/>
</mask>
<path d="M270.129 238.195H398.154V319.399H270.129V238.195Z" fill="#786823" fill-opacity="0.1"/>
<path d="M270.129 238.195V236.195H268.129V238.195H270.129ZM398.154 238.195H400.154V236.195H398.154V238.195ZM398.154 319.399V321.399H400.154V319.399H398.154ZM270.129 319.399H268.129V321.399H270.129V319.399ZM270.129 238.195V240.195H398.154V238.195V236.195H270.129V238.195ZM398.154 238.195H396.154V319.399H398.154H400.154V238.195H398.154ZM398.154 319.399V317.399H270.129V319.399V321.399H398.154V319.399ZM270.129 319.399H272.129V238.195H270.129H268.129V319.399H270.129Z" fill="#786823" mask="url(#path-1-inside-1_779_5824)"/>
<path d="M311.064 288V271.8H314.871L316.383 279.144C316.626 280.332 316.815 282.06 317.085 283.896H317.517C317.841 281.547 318.111 279.711 318.516 277.524L319.542 271.8H323.349V288H321.162V280.305C321.162 278.064 321.324 275.526 321.432 273.798H320.838C320.568 275.553 320.325 277.551 319.974 279.252L318.516 286.002H315.951L314.304 278.604C314.034 277.362 313.71 275.418 313.44 273.798H312.954C313.035 275.472 313.224 277.821 313.224 279.603V288H311.064ZM326.858 288V271.8H330.665L332.177 279.144C332.42 280.332 332.609 282.06 332.879 283.896H333.311C333.635 281.547 333.905 279.711 334.31 277.524L335.336 271.8H339.143V288H336.956V280.305C336.956 278.064 337.118 275.526 337.226 273.798H336.632C336.362 275.553 336.119 277.551 335.768 279.252L334.31 286.002H331.745L330.098 278.604C329.828 277.362 329.504 275.418 329.234 273.798H328.748C328.829 275.472 329.018 277.821 329.018 279.603V288H326.858ZM341.869 288L346.864 271.8H350.725L355.72 288H353.074L351.832 283.599H345.676L344.434 288H341.869ZM346.216 281.628H351.292L350.698 279.576C350.185 277.74 349.672 275.58 349.321 273.852H348.241C347.836 275.607 347.296 277.713 346.783 279.576L346.216 281.628Z" fill="#786823"/>
<path d="M467.064 288V271.8H470.871L472.383 279.144C472.626 280.332 472.815 282.06 473.085 283.896H473.517C473.841 281.547 474.111 279.711 474.516 277.524L475.542 271.8H479.349V288H477.162V280.305C477.162 278.064 477.324 275.526 477.432 273.798H476.838C476.568 275.553 476.325 277.551 475.974 279.252L474.516 286.002H471.951L470.304 278.604C470.034 277.362 469.71 275.418 469.44 273.798H468.954C469.035 275.472 469.224 277.821 469.224 279.603V288H467.064ZM482.858 288V271.8H486.665L488.177 279.144C488.42 280.332 488.609 282.06 488.879 283.896H489.311C489.635 281.547 489.905 279.711 490.31 277.524L491.336 271.8H495.143V288H492.956V280.305C492.956 278.064 493.118 275.526 493.226 273.798H492.632C492.362 275.553 492.119 277.551 491.768 279.252L490.31 286.002H487.745L486.098 278.604C485.828 277.362 485.504 275.418 485.234 273.798H484.748C484.829 275.472 485.018 277.821 485.018 279.603V288H482.858ZM497.869 288L502.864 271.8H506.725L511.72 288H509.074L507.832 283.599H501.676L500.434 288H497.869ZM502.216 281.628H507.292L506.698 279.576C506.185 277.74 505.672 275.58 505.321 273.852H504.241C503.836 275.607 503.296 277.713 502.783 279.576L502.216 281.628Z" fill="#786823"/>
<path d="M625.064 288V271.8H628.871L630.383 279.144C630.626 280.332 630.815 282.06 631.085 283.896H631.517C631.841 281.547 632.111 279.711 632.516 277.524L633.542 271.8H637.349V288H635.162V280.305C635.162 278.064 635.324 275.526 635.432 273.798H634.838C634.568 275.553 634.325 277.551 633.974 279.252L632.516 286.002H629.951L628.304 278.604C628.034 277.362 627.71 275.418 627.44 273.798H626.954C627.035 275.472 627.224 277.821 627.224 279.603V288H625.064ZM640.858 288V271.8H644.665L646.177 279.144C646.42 280.332 646.609 282.06 646.879 283.896H647.311C647.635 281.547 647.905 279.711 648.31 277.524L649.336 271.8H653.143V288H650.956V280.305C650.956 278.064 651.118 275.526 651.226 273.798H650.632C650.362 275.553 650.119 277.551 649.768 279.252L648.31 286.002H645.745L644.098 278.604C643.828 277.362 643.504 275.418 643.234 273.798H642.748C642.829 275.472 643.018 277.821 643.018 279.603V288H640.858ZM655.869 288L660.864 271.8H664.725L669.72 288H667.074L665.832 283.599H659.676L658.434 288H655.869ZM660.216 281.628H665.292L664.698 279.576C664.185 277.74 663.672 275.58 663.321 273.852H662.241C661.836 275.607 661.296 277.713 660.783 279.576L660.216 281.628Z" fill="#786823"/>
<path d="M783.064 288V271.8H786.871L788.383 279.144C788.626 280.332 788.815 282.06 789.085 283.896H789.517C789.841 281.547 790.111 279.711 790.516 277.524L791.542 271.8H795.349V288H793.162V280.305C793.162 278.064 793.324 275.526 793.432 273.798H792.838C792.568 275.553 792.325 277.551 791.974 279.252L790.516 286.002H787.951L786.304 278.604C786.034 277.362 785.71 275.418 785.44 273.798H784.954C785.035 275.472 785.224 277.821 785.224 279.603V288H783.064ZM798.858 288V271.8H802.665L804.177 279.144C804.42 280.332 804.609 282.06 804.879 283.896H805.311C805.635 281.547 805.905 279.711 806.31 277.524L807.336 271.8H811.143V288H808.956V280.305C808.956 278.064 809.118 275.526 809.226 273.798H808.632C808.362 275.553 808.119 277.551 807.768 279.252L806.31 286.002H803.745L802.098 278.604C801.828 277.362 801.504 275.418 801.234 273.798H800.748C800.829 275.472 801.018 277.821 801.018 279.603V288H798.858ZM813.869 288L818.864 271.8H822.725L827.72 288H825.074L823.832 283.599H817.676L816.434 288H813.869ZM818.216 281.628H823.292L822.698 279.576C822.185 277.74 821.672 275.58 821.321 273.852H820.241C819.836 275.607 819.296 277.713 818.783 279.576L818.216 281.628Z" fill="#786823"/>
<mask id="path-7-inside-2_779_5824" fill="white">
<path d="M270.129 324.815H398.154V406.019H270.129V324.815Z"/>
</mask>
<path d="M270.129 324.815H398.154V406.019H270.129V324.815Z" fill="#786823" fill-opacity="0.1"/>
<path d="M270.129 324.815V322.815H268.129V324.815H270.129ZM398.154 324.815H400.154V322.815H398.154V324.815ZM398.154 406.019V408.019H400.154V406.019H398.154ZM270.129 406.019H268.129V408.019H270.129V406.019ZM270.129 324.815V326.815H398.154V324.815V322.815H270.129V324.815ZM398.154 324.815H396.154V406.019H398.154H400.154V324.815H398.154ZM398.154 406.019V404.019H270.129V406.019V408.019H398.154V406.019ZM270.129 406.019H272.129V324.815H270.129H268.129V406.019H270.129Z" fill="#786823" mask="url(#path-7-inside-2_779_5824)"/>
<path d="M312.738 376V359.8H315.222V373.894H323.43V376H312.738ZM327.533 376V359.8H332.771C337.226 359.8 339.224 362.338 339.224 367.792C339.224 373.192 336.713 376 332.744 376H327.533ZM330.017 373.948H332.582C335.633 373.948 336.74 371.68 336.74 367.792C336.74 363.391 335.552 361.852 332.474 361.852H330.017V373.948ZM347.755 376.297C344.92 376.297 342.517 374.191 342.517 368.116C342.517 362.581 344.596 359.476 348.781 359.476C352.21 359.476 353.83 361.285 354.397 364.714L352.075 365.227C351.616 362.716 350.779 361.609 348.781 361.609C346 361.609 345.028 363.904 345.028 368.116C345.028 372.274 346.108 374.245 348.754 374.245C351.589 374.245 352.318 372.058 352.372 369.682H348.916V367.738H354.667V376H352.48V372.517H352.075C351.373 374.569 350.104 376.297 347.755 376.297Z" fill="#786823"/>
<path d="M470.738 376V359.8H473.222V373.894H481.43V376H470.738ZM485.533 376V359.8H490.771C495.226 359.8 497.224 362.338 497.224 367.792C497.224 373.192 494.713 376 490.744 376H485.533ZM488.017 373.948H490.582C493.633 373.948 494.74 371.68 494.74 367.792C494.74 363.391 493.552 361.852 490.474 361.852H488.017V373.948ZM505.755 376.297C502.92 376.297 500.517 374.191 500.517 368.116C500.517 362.581 502.596 359.476 506.781 359.476C510.21 359.476 511.83 361.285 512.397 364.714L510.075 365.227C509.616 362.716 508.779 361.609 506.781 361.609C504 361.609 503.028 363.904 503.028 368.116C503.028 372.274 504.108 374.245 506.754 374.245C509.589 374.245 510.318 372.058 510.372 369.682H506.916V367.738H512.667V376H510.48V372.517H510.075C509.373 374.569 508.104 376.297 505.755 376.297Z" fill="#786823"/>
<path d="M628.738 376V359.8H631.222V373.894H639.43V376H628.738ZM643.533 376V359.8H648.771C653.226 359.8 655.224 362.338 655.224 367.792C655.224 373.192 652.713 376 648.744 376H643.533ZM646.017 373.948H648.582C651.633 373.948 652.74 371.68 652.74 367.792C652.74 363.391 651.552 361.852 648.474 361.852H646.017V373.948ZM663.755 376.297C660.92 376.297 658.517 374.191 658.517 368.116C658.517 362.581 660.596 359.476 664.781 359.476C668.21 359.476 669.83 361.285 670.397 364.714L668.075 365.227C667.616 362.716 666.779 361.609 664.781 361.609C662 361.609 661.028 363.904 661.028 368.116C661.028 372.274 662.108 374.245 664.754 374.245C667.589 374.245 668.318 372.058 668.372 369.682H664.916V367.738H670.667V376H668.48V372.517H668.075C667.373 374.569 666.104 376.297 663.755 376.297Z" fill="#786823"/>
<mask id="path-12-inside-3_779_5824" fill="white">
<path d="M272 414H396V490H272V414Z"/>
</mask>
<path d="M272 414H396V490H272V414Z" fill="#B1259C" fill-opacity="0.1"/>
<path d="M272 414V412H270V414H272ZM396 414H398V412H396V414ZM396 490V492H398V490H396ZM272 490H270V492H272V490ZM272 414V416H396V414V412H272V414ZM396 414H394V490H396H398V414H396ZM396 490V488H272V490V492H396V490ZM272 490H274V414H272H270V490H272Z" fill="#B1259C" mask="url(#path-12-inside-3_779_5824)"/>
<path d="M312.281 464L317.276 447.8H321.137L326.132 464H323.486L322.244 459.599H316.088L314.846 464H312.281ZM316.628 457.628H321.704L321.11 455.576C320.597 453.74 320.084 451.58 319.733 449.852H318.653C318.248 451.607 317.708 453.713 317.195 455.576L316.628 457.628ZM329.533 464V447.8H334.771C339.226 447.8 341.224 450.338 341.224 455.792C341.224 461.192 338.713 464 334.744 464H329.533ZM332.017 461.948H334.582C337.633 461.948 338.74 459.68 338.74 455.792C338.74 451.391 337.552 449.852 334.474 449.852H332.017V461.948ZM345.327 464V447.8H350.565C355.02 447.8 357.018 450.338 357.018 455.792C357.018 461.192 354.507 464 350.538 464H345.327ZM347.811 461.948H350.376C353.427 461.948 354.534 459.68 354.534 455.792C354.534 451.391 353.346 449.852 350.268 449.852H347.811V461.948Z" fill="#B1259C"/>
<mask id="path-15-inside-4_779_5824" fill="white">
<path d="M270 412H398V492H270V412Z"/>
</mask>
<path d="M270 412V410H268V412H270ZM398 412H400V410H398V412ZM398 492V494H400V492H398ZM270 492H268V494H270V492ZM270 412V414H398V412V410H270V412ZM398 412H396V492H398H400V412H398ZM398 492V490H270V492V494H398V492ZM270 492H272V412H270H268V492H270Z" fill="#1342FF" mask="url(#path-15-inside-4_779_5824)"/>
<mask id="path-17-inside-5_779_5824" fill="white">
<path d="M270.129 500.668H398.154V581.872H270.129V500.668Z"/>
</mask>
<path d="M270.129 500.668H398.154V581.872H270.129V500.668Z" fill="#1342FF" fill-opacity="0.1"/>
<path d="M270.129 500.668V498.668H268.129V500.668H270.129ZM398.154 500.668H400.154V498.668H398.154V500.668ZM398.154 581.872V583.872H400.154V581.872H398.154ZM270.129 581.872H268.129V583.872H270.129V581.872ZM270.129 500.668V502.668H398.154V500.668V498.668H270.129V500.668ZM398.154 500.668H396.154V581.872H398.154H400.154V500.668H398.154ZM398.154 581.872V579.872H270.129V581.872V583.872H398.154V581.872ZM270.129 581.872H272.129V500.668H270.129H268.129V581.872H270.129Z" fill="#1342FF" mask="url(#path-17-inside-5_779_5824)"/>
<path d="M312.009 554V537.8H317.598C321.297 537.8 322.998 539.528 322.998 542.795C322.998 545.225 321.918 546.899 319.947 547.601L323.7 553.46V554H320.946L317.49 547.979H314.466V554H312.009ZM314.466 545.981H317.382C319.488 545.981 320.541 544.982 320.541 542.822C320.541 540.716 319.731 539.825 317.328 539.825H314.466V545.981ZM328.046 554V537.8H338.576V539.852H330.503V544.739H337.712V546.791H330.503V551.948H338.549V554H328.046ZM347.566 554V539.933H342.409V537.8H355.153V539.933H350.023V554H347.566Z" fill="#1342FF"/>
<mask id="path-20-inside-6_779_5824" fill="white">
<path d="M426 500H554.025V581.204H426V500Z"/>
</mask>
<path d="M426 500V498H424V500H426ZM554.025 500H556.025V498H554.025V500ZM554.025 581.204V583.204H556.025V581.204H554.025ZM426 581.204H424V583.204H426V581.204ZM426 500V502H554.025V500V498H426V500ZM554.025 500H552.025V581.204H554.025H556.025V500H554.025ZM554.025 581.204V579.204H426V581.204V583.204H554.025V581.204ZM426 581.204H428V500H426H424V581.204H426Z" fill="#1342FF" mask="url(#path-20-inside-6_779_5824)"/>
<rect x="995" y="528.095" width="48" height="48" stroke="#327831" stroke-width="2"/>
<path d="M1063.86 560.22C1061.18 560.22 1059.78 558.6 1059.78 555.54V548H1061.22V555.42C1061.22 557.46 1061.78 558.98 1063.86 558.98C1065.84 558.98 1066.48 557.72 1066.48 555.52V548H1067.92V555.54C1067.92 558.6 1066.52 560.22 1063.86 560.22ZM1071.86 560V550.7H1073.16V553H1073.42C1073.98 551.64 1075.18 550.48 1076.7 550.48C1078.36 550.48 1079.34 551.6 1079.34 553.68V560H1077.96V553.98C1077.96 552.54 1077.5 551.74 1076.2 551.74C1074.46 551.74 1073.24 553.06 1073.24 554.82V560H1071.86ZM1083.48 557.02V550.7H1084.84V556.74C1084.84 558.16 1085.34 558.96 1086.64 558.96C1088.34 558.96 1089.58 557.64 1089.58 555.88V550.7H1090.94V560H1089.64V557.7H1089.38C1088.82 559.08 1087.62 560.22 1086.1 560.22C1084.46 560.22 1083.48 559.1 1083.48 557.02ZM1099.1 560.24C1096.54 560.24 1095.24 559.1 1094.8 557.32L1096.1 557.06C1096.42 558.24 1097.3 559.14 1099.12 559.14C1100.64 559.14 1101.64 558.64 1101.64 557.58C1101.64 556.42 1100.4 556.12 1098.9 555.86C1097.02 555.56 1095.34 555.06 1095.34 553.16C1095.34 551.6 1096.54 550.48 1098.98 550.48C1101.44 550.48 1102.28 551.54 1102.7 553L1101.42 553.26C1101.08 551.96 1100.26 551.54 1098.94 551.54C1097.42 551.54 1096.68 552.1 1096.68 553.06C1096.68 554.22 1097.88 554.5 1099.32 554.74C1101.36 555.06 1103.02 555.52 1103.02 557.52C1103.02 559.04 1101.8 560.24 1099.1 560.24ZM1110.86 560.22C1108.04 560.22 1106.44 558.44 1106.44 555.38C1106.44 552.3 1108.24 550.48 1110.86 550.48C1113.42 550.48 1114.84 552.14 1114.84 554.68C1114.84 554.9 1114.82 555.3 1114.78 555.64H1107.82C1107.9 557.82 1108.86 559.08 1110.84 559.08C1112.46 559.08 1113.24 558.18 1113.56 557.14L1114.76 557.44C1114.32 559.1 1113.02 560.22 1110.86 560.22ZM1107.84 554.66H1113.56C1113.5 552.68 1112.64 551.56 1110.82 551.56C1109.08 551.56 1108.04 552.6 1107.84 554.66ZM1117.78 555.38C1117.78 552.34 1119.24 550.48 1121.42 550.48C1123.06 550.48 1124.06 551.54 1124.58 552.88H1124.78V546.6H1126.16V560H1124.78V557.8H1124.56C1124 559.16 1122.76 560.22 1121.32 560.22C1119.28 560.22 1117.78 558.4 1117.78 555.38ZM1124.78 556.04V554.74C1124.78 553 1123.6 551.74 1122 551.74C1120.22 551.74 1119.14 553.02 1119.14 555.38C1119.14 557.7 1120.2 559.02 1122 559.02C1123.58 559.02 1124.78 557.76 1124.78 556.04Z" fill="#327831"/>
<rect x="995" y="236" width="48" height="48" fill="#786823" fill-opacity="0.1" stroke="#786823" stroke-width="2"/>
<path d="M1059.22 266.52L1060.6 266.2C1060.9 267.9 1062.04 269.06 1064.06 269.06C1066.02 269.06 1066.84 268.06 1066.84 266.92C1066.84 265.38 1065.58 264.96 1063.82 264.58C1061.64 264.12 1059.88 263.46 1059.88 261C1059.88 259.16 1061.3 257.78 1063.92 257.78C1066.4 257.78 1067.6 259.26 1067.98 260.98L1066.58 261.24C1066.24 259.98 1065.5 258.92 1063.86 258.92C1062.18 258.92 1061.28 259.78 1061.28 260.9C1061.28 262.56 1062.68 262.96 1064.4 263.38C1066.74 263.9 1068.3 264.58 1068.3 266.8C1068.3 268.66 1067.04 270.22 1064.04 270.22C1061.12 270.22 1059.54 268.66 1059.22 266.52ZM1073.44 266.64V261.84H1071.02V260.7H1073.44V258H1074.8V260.7H1079.6V261.84H1074.8V266.42C1074.8 268.14 1075.48 269.02 1077.16 269.02C1077.86 269.02 1078.56 268.88 1079.5 268.44L1079.8 269.54C1078.76 270 1077.88 270.22 1076.9 270.22C1074.5 270.22 1073.44 268.74 1073.44 266.64ZM1085.96 270.2C1084.2 270.2 1082.98 269.22 1082.98 267.62C1082.98 266.1 1084.04 265 1086.3 265H1089.52V263.88C1089.52 262.62 1088.86 261.62 1087.24 261.62C1085.9 261.62 1085.04 262.38 1084.66 263.32L1083.4 262.84C1083.92 261.54 1085.32 260.48 1087.28 260.48C1089.68 260.48 1090.9 261.84 1090.9 263.86V270H1089.66V267.96H1089.38C1088.82 269.26 1087.66 270.2 1085.96 270.2ZM1089.52 265.88H1086.52C1085.06 265.88 1084.28 266.46 1084.28 267.56C1084.28 268.36 1084.98 269.08 1086.4 269.08C1088.22 269.08 1089.52 268.02 1089.52 266.58V265.88ZM1094.78 270V268.86H1098.42V257.74H1094.96V256.6H1099.8V268.86H1103.12V270H1094.78ZM1106.48 270V268.86H1110.12V257.74H1106.66V256.6H1111.5V268.86H1114.82V270H1106.48ZM1122.56 270.22C1119.74 270.22 1118.14 268.44 1118.14 265.38C1118.14 262.3 1119.94 260.48 1122.56 260.48C1125.12 260.48 1126.54 262.14 1126.54 264.68C1126.54 264.9 1126.52 265.3 1126.48 265.64H1119.52C1119.6 267.82 1120.56 269.08 1122.54 269.08C1124.16 269.08 1124.94 268.18 1125.26 267.14L1126.46 267.44C1126.02 269.1 1124.72 270.22 1122.56 270.22ZM1119.54 264.66H1125.26C1125.2 262.68 1124.34 261.56 1122.52 261.56C1120.78 261.56 1119.74 262.6 1119.54 264.66ZM1129.48 265.38C1129.48 262.34 1130.94 260.48 1133.12 260.48C1134.76 260.48 1135.76 261.54 1136.28 262.88H1136.48V256.6H1137.86V270H1136.48V267.8H1136.26C1135.7 269.16 1134.46 270.22 1133.02 270.22C1130.98 270.22 1129.48 268.4 1129.48 265.38ZM1136.48 266.04V264.74C1136.48 263 1135.3 261.74 1133.7 261.74C1131.92 261.74 1130.84 263.02 1130.84 265.38C1130.84 267.7 1131.9 269.02 1133.7 269.02C1135.28 269.02 1136.48 267.76 1136.48 266.04Z" fill="#786823"/>
<rect x="995" y="455.074" width="48" height="48" fill="#327831" fill-opacity="0.1" stroke="#327831" stroke-width="2"/>
<path d="M1058.88 490L1062.74 478H1064.96L1068.82 490H1067.3L1066.24 486.52H1061.42L1060.36 490H1058.88ZM1061.76 485.34H1065.88L1065.4 483.76C1064.94 482.3 1064.5 480.52 1064.22 479.22H1063.48C1063.14 480.54 1062.68 482.28 1062.24 483.76L1061.76 485.34ZM1071.28 485.38C1071.28 482.3 1072.96 480.48 1075.72 480.48C1077.98 480.48 1079.34 481.56 1079.74 483.62L1078.48 483.92C1078.16 482.5 1077.36 481.64 1075.68 481.64C1073.7 481.64 1072.66 482.92 1072.66 485.36C1072.66 487.6 1073.62 489.06 1075.74 489.06C1077.38 489.06 1078.22 488 1078.54 486.78L1079.78 487.18C1079.34 489.12 1077.88 490.22 1075.74 490.22C1072.84 490.22 1071.28 488.42 1071.28 485.38ZM1085.14 486.64V481.84H1082.72V480.7H1085.14V478H1086.5V480.7H1091.3V481.84H1086.5V486.42C1086.5 488.14 1087.18 489.02 1088.86 489.02C1089.56 489.02 1090.26 488.88 1091.2 488.44L1091.5 489.54C1090.46 490 1089.58 490.22 1088.6 490.22C1086.2 490.22 1085.14 488.74 1085.14 486.64ZM1094.78 490V488.86H1098.52V481.84H1094.96V480.7H1099.88V488.86H1103.12V490H1094.78ZM1097.9 478.36V476.88H1100V478.36H1097.9ZM1109.72 490L1105.98 480.7H1107.44L1108.72 484.22C1109.28 485.8 1109.84 487.2 1110.32 488.84H1110.94C1111.42 487.28 1112.04 485.78 1112.58 484.26L1113.86 480.7H1115.32L1111.56 490H1109.72ZM1122.56 490.22C1119.74 490.22 1118.14 488.44 1118.14 485.38C1118.14 482.3 1119.94 480.48 1122.56 480.48C1125.12 480.48 1126.54 482.14 1126.54 484.68C1126.54 484.9 1126.52 485.3 1126.48 485.64H1119.52C1119.6 487.82 1120.56 489.08 1122.54 489.08C1124.16 489.08 1124.94 488.18 1125.26 487.14L1126.46 487.44C1126.02 489.1 1124.72 490.22 1122.56 490.22ZM1119.54 484.66H1125.26C1125.2 482.68 1124.34 481.56 1122.52 481.56C1120.78 481.56 1119.74 482.6 1119.54 484.66Z" fill="#327831"/>
<rect x="995" y="382.049" width="48" height="48" fill="#B1259C" fill-opacity="0.1" stroke="#B1259C" stroke-width="2"/>
<path d="M1059.22 412.52L1060.6 412.2C1060.9 413.9 1062.04 415.06 1064.06 415.06C1066.02 415.06 1066.84 414.06 1066.84 412.92C1066.84 411.38 1065.58 410.96 1063.82 410.58C1061.64 410.12 1059.88 409.46 1059.88 407C1059.88 405.16 1061.3 403.78 1063.92 403.78C1066.4 403.78 1067.6 405.26 1067.98 406.98L1066.58 407.24C1066.24 405.98 1065.5 404.92 1063.86 404.92C1062.18 404.92 1061.28 405.78 1061.28 406.9C1061.28 408.56 1062.68 408.96 1064.4 409.38C1066.74 409.9 1068.3 410.58 1068.3 412.8C1068.3 414.66 1067.04 416.22 1064.04 416.22C1061.12 416.22 1059.54 414.66 1059.22 412.52ZM1075.76 416.22C1072.94 416.22 1071.34 414.44 1071.34 411.38C1071.34 408.3 1073.14 406.48 1075.76 406.48C1078.32 406.48 1079.74 408.14 1079.74 410.68C1079.74 410.9 1079.72 411.3 1079.68 411.64H1072.72C1072.8 413.82 1073.76 415.08 1075.74 415.08C1077.36 415.08 1078.14 414.18 1078.46 413.14L1079.66 413.44C1079.22 415.1 1077.92 416.22 1075.76 416.22ZM1072.74 410.66H1078.46C1078.4 408.68 1077.54 407.56 1075.72 407.56C1073.98 407.56 1072.94 408.6 1072.74 410.66ZM1083.08 416V414.86H1086.72V403.74H1083.26V402.6H1088.1V414.86H1091.42V416H1083.08ZM1099.16 416.22C1096.34 416.22 1094.74 414.44 1094.74 411.38C1094.74 408.3 1096.54 406.48 1099.16 406.48C1101.72 406.48 1103.14 408.14 1103.14 410.68C1103.14 410.9 1103.12 411.3 1103.08 411.64H1096.12C1096.2 413.82 1097.16 415.08 1099.14 415.08C1100.76 415.08 1101.54 414.18 1101.86 413.14L1103.06 413.44C1102.62 415.1 1101.32 416.22 1099.16 416.22ZM1096.14 410.66H1101.86C1101.8 408.68 1100.94 407.56 1099.12 407.56C1097.38 407.56 1096.34 408.6 1096.14 410.66ZM1106.38 411.38C1106.38 408.3 1108.06 406.48 1110.82 406.48C1113.08 406.48 1114.44 407.56 1114.84 409.62L1113.58 409.92C1113.26 408.5 1112.46 407.64 1110.78 407.64C1108.8 407.64 1107.76 408.92 1107.76 411.36C1107.76 413.6 1108.72 415.06 1110.84 415.06C1112.48 415.06 1113.32 414 1113.64 412.78L1114.88 413.18C1114.44 415.12 1112.98 416.22 1110.84 416.22C1107.94 416.22 1106.38 414.42 1106.38 411.38ZM1120.24 412.64V407.84H1117.82V406.7H1120.24V404H1121.6V406.7H1126.4V407.84H1121.6V412.42C1121.6 414.14 1122.28 415.02 1123.96 415.02C1124.66 415.02 1125.36 414.88 1126.3 414.44L1126.6 415.54C1125.56 416 1124.68 416.22 1123.7 416.22C1121.3 416.22 1120.24 414.74 1120.24 412.64ZM1134.26 416.22C1131.44 416.22 1129.84 414.44 1129.84 411.38C1129.84 408.3 1131.64 406.48 1134.26 406.48C1136.82 406.48 1138.24 408.14 1138.24 410.68C1138.24 410.9 1138.22 411.3 1138.18 411.64H1131.22C1131.3 413.82 1132.26 415.08 1134.24 415.08C1135.86 415.08 1136.64 414.18 1136.96 413.14L1138.16 413.44C1137.72 415.1 1136.42 416.22 1134.26 416.22ZM1131.24 410.66H1136.96C1136.9 408.68 1136.04 407.56 1134.22 407.56C1132.48 407.56 1131.44 408.6 1131.24 410.66ZM1141.17 411.38C1141.17 408.34 1142.63 406.48 1144.81 406.48C1146.45 406.48 1147.45 407.54 1147.97 408.88H1148.17V402.6H1149.55V416H1148.17V413.8H1147.95C1147.39 415.16 1146.15 416.22 1144.71 416.22C1142.67 416.22 1141.17 414.4 1141.17 411.38ZM1148.17 412.04V410.74C1148.17 409 1146.99 407.74 1145.39 407.74C1143.61 407.74 1142.53 409.02 1142.53 411.38C1142.53 413.7 1143.59 415.02 1145.39 415.02C1146.97 415.02 1148.17 413.76 1148.17 412.04Z" fill="#B1259C"/>
<rect x="995" y="309.024" width="48" height="48" fill="#1342FF" fill-opacity="0.1" stroke="#1342FF" stroke-width="2"/>
<path d="M1060.34 344V332H1067.84V333.22H1061.78V337.26H1067.14V338.5H1061.78V342.78H1067.8V344H1060.34ZM1071.38 344V342.86H1075.02V331.74H1071.56V330.6H1076.4V342.86H1079.72V344H1071.38ZM1083.08 344V342.86H1086.82V335.84H1083.26V334.7H1088.18V342.86H1091.42V344H1083.08ZM1086.2 332.36V330.88H1088.3V332.36H1086.2ZM1094.88 337.98C1094.88 335.82 1096.34 334.7 1098.8 334.7H1103.36V335.78H1102.36C1101.86 335.78 1101.08 335.7 1100.14 335.58L1100.12 335.84C1101.4 336.14 1102.52 336.78 1102.52 338.18C1102.52 339.98 1101.2 341.08 1098.64 341.08C1098.08 341.08 1097.58 341.02 1097.14 340.9L1096.78 341.4C1096.58 341.72 1096.48 341.9 1096.48 342.18C1096.48 342.62 1096.86 342.78 1097.54 342.78H1100.44C1102.32 342.78 1103.42 343.58 1103.42 345.02C1103.42 346.86 1102.3 347.68 1098.74 347.68C1095.34 347.68 1094.3 346.88 1094.3 345.58C1094.3 344.76 1095.06 344.2 1096.26 343.86V343.68C1095.72 343.5 1095.36 343.14 1095.36 342.54C1095.36 342.04 1095.68 341.68 1096.16 341.34L1096.86 340.82C1095.56 340.34 1094.88 339.34 1094.88 337.98ZM1096.16 337.92C1096.16 339.24 1096.86 340 1098.68 340C1100.48 340 1101.28 339.26 1101.28 337.92C1101.28 336.62 1100.38 335.8 1098.64 335.8C1096.92 335.8 1096.16 336.64 1096.16 337.92ZM1097.34 343.8C1096.06 343.8 1095.48 344.58 1095.48 345.22C1095.48 346.2 1096.24 346.6 1098.84 346.6C1101.6 346.6 1102.24 346.06 1102.24 345.1C1102.24 344.34 1101.64 343.8 1100.38 343.8H1097.34ZM1106.48 344V342.86H1110.22V335.84H1106.66V334.7H1111.58V342.86H1114.82V344H1106.48ZM1109.6 332.36V330.88H1111.7V332.36H1109.6ZM1126.92 339.38C1126.92 342.4 1125.38 344.22 1123.44 344.22C1121.96 344.22 1120.72 343.16 1120.14 341.8H1119.92V344H1118.54V330.6H1119.92V336.88H1120.12C1120.64 335.54 1121.66 334.48 1123.34 334.48C1125.4 334.48 1126.92 336.34 1126.92 339.38ZM1119.92 338.74V340.04C1119.92 341.76 1121.08 343.02 1122.74 343.02C1124.52 343.02 1125.56 341.7 1125.56 339.38C1125.56 337.02 1124.5 335.74 1122.76 335.74C1121.06 335.74 1119.92 337 1119.92 338.74ZM1129.88 344V342.86H1133.52V331.74H1130.06V330.6H1134.9V342.86H1138.22V344H1129.88ZM1145.95 344.22C1143.13 344.22 1141.53 342.44 1141.53 339.38C1141.53 336.3 1143.33 334.48 1145.95 334.48C1148.51 334.48 1149.93 336.14 1149.93 338.68C1149.93 338.9 1149.91 339.3 1149.87 339.64H1142.91C1142.99 341.82 1143.95 343.08 1145.93 343.08C1147.55 343.08 1148.33 342.18 1148.65 341.14L1149.85 341.44C1149.41 343.1 1148.11 344.22 1145.95 344.22ZM1142.93 338.66H1148.65C1148.59 336.68 1147.73 335.56 1145.91 335.56C1144.17 335.56 1143.13 336.6 1142.93 338.66Z" fill="#1342FF"/>
<mask id="path-32-inside-7_779_5824" fill="white">
<path d="M426 238H554.025V319.203H426V238Z"/>
</mask>
<path d="M426 238H554.025V319.203H426V238Z" fill="#786823" fill-opacity="0.1"/>
<path d="M426 238V236H424V238H426ZM554.025 238H556.025V236H554.025V238ZM554.025 319.203V321.203H556.025V319.203H554.025ZM426 319.203H424V321.203H426V319.203ZM426 238V240H554.025V238V236H426V238ZM554.025 238H552.025V319.203H554.025H556.025V238H554.025ZM554.025 319.203V317.203H426V319.203V321.203H554.025V319.203ZM426 319.203H428V238H426H424V319.203H426Z" fill="#786823" mask="url(#path-32-inside-7_779_5824)"/>
<mask id="path-34-inside-8_779_5824" fill="white">
<path d="M426 324.62H554.025V405.824H426V324.62Z"/>
</mask>
<path d="M426 324.62H554.025V405.824H426V324.62Z" fill="#786823" fill-opacity="0.1"/>
<path d="M426 324.62V322.62H424V324.62H426ZM554.025 324.62H556.025V322.62H554.025V324.62ZM554.025 405.824V407.824H556.025V405.824H554.025ZM426 405.824H424V407.824H426V405.824ZM426 324.62V326.62H554.025V324.62V322.62H426V324.62ZM554.025 324.62H552.025V405.824H554.025H556.025V324.62H554.025ZM554.025 405.824V403.824H426V405.824V407.824H554.025V405.824ZM426 405.824H428V324.62H426H424V405.824H426Z" fill="#786823" mask="url(#path-34-inside-8_779_5824)"/>
<mask id="path-36-inside-9_779_5824" fill="white">
<path d="M426 411.236H554.025V492.44H426V411.236Z"/>
</mask>
<path d="M426 411.236H554.025V492.44H426V411.236Z" fill="#786823" fill-opacity="0.1"/>
<path d="M426 411.236V409.236H424V411.236H426ZM554.025 411.236H556.025V409.236H554.025V411.236ZM554.025 492.44V494.44H556.025V492.44H554.025ZM426 492.44H424V494.44H426V492.44ZM426 411.236V413.236H554.025V411.236V409.236H426V411.236ZM554.025 411.236H552.025V492.44H554.025H556.025V411.236H554.025ZM554.025 492.44V490.44H426V492.44V494.44H554.025V492.44ZM426 492.44H428V411.236H426H424V492.44H426Z" fill="#786823" mask="url(#path-36-inside-9_779_5824)"/>
<path d="M466.281 462L471.276 445.8H475.137L480.132 462H477.486L476.244 457.599H470.088L468.846 462H466.281ZM470.628 455.628H475.704L475.11 453.576C474.597 451.74 474.084 449.58 473.733 447.852H472.653C472.248 449.607 471.708 451.713 471.195 453.576L470.628 455.628ZM483.533 462V445.8H488.771C493.226 445.8 495.224 448.338 495.224 453.792C495.224 459.192 492.713 462 488.744 462H483.533ZM486.017 459.948H488.582C491.633 459.948 492.74 457.68 492.74 453.792C492.74 449.391 491.552 447.852 488.474 447.852H486.017V459.948ZM499.327 462V445.8H504.565C509.02 445.8 511.018 448.338 511.018 453.792C511.018 459.192 508.507 462 504.538 462H499.327ZM501.811 459.948H504.376C507.427 459.948 508.534 457.68 508.534 453.792C508.534 449.391 507.346 447.852 504.268 447.852H501.811V459.948Z" fill="#786823"/>
<mask id="path-39-inside-10_779_5824" fill="white">
<path d="M428 502H552V580H428V502Z"/>
</mask>
<path d="M428 502H552V580H428V502Z" fill="#B1259C" fill-opacity="0.1"/>
<path d="M428 502V500H426V502H428ZM552 502H554V500H552V502ZM552 580V582H554V580H552ZM428 580H426V582H428V580ZM428 502V504H552V502V500H428V502ZM552 502H550V580H552H554V502H552ZM552 580V578H428V580V582H552V580ZM428 580H430V502H428H426V580H428Z" fill="#B1259C" mask="url(#path-39-inside-10_779_5824)"/>
<path d="M468.029 552.52V536.32H473.618C477.317 536.32 479.018 538.048 479.018 541.315C479.018 543.745 477.938 545.419 475.967 546.121L479.72 551.98V552.52H476.966L473.51 546.499H470.486V552.52H468.029ZM470.486 544.501H473.402C475.508 544.501 476.561 543.502 476.561 541.342C476.561 539.236 475.751 538.345 473.348 538.345H470.486V544.501ZM484.066 552.52V536.32H494.596V538.372H486.523V543.259H493.732V545.311H486.523V550.468H494.569V552.52H484.066ZM503.586 552.52V538.453H498.429V536.32H511.173V538.453H506.043V552.52H503.586Z" fill="#B1259C"/>
<path d="M468.009 710V693.8H473.598C477.297 693.8 478.998 695.528 478.998 698.795C478.998 701.225 477.918 702.899 475.947 703.601L479.7 709.46V710H476.946L473.49 703.979H470.466V710H468.009ZM470.466 701.981H473.382C475.488 701.981 476.541 700.982 476.541 698.822C476.541 696.716 475.731 695.825 473.328 695.825H470.466V701.981ZM484.046 710V693.8H494.576V695.852H486.503V700.739H493.712V702.791H486.503V707.948H494.549V710H484.046ZM503.566 710V695.933H498.409V693.8H511.153V695.933H506.023V710H503.566Z" fill="#B1259C"/>
<path d="M310.281 710L315.276 693.8H319.137L324.132 710H321.486L320.244 705.599H314.088L312.846 710H310.281ZM314.628 703.628H319.704L319.11 701.576C318.597 699.74 318.084 697.58 317.733 695.852H316.653C316.248 697.607 315.708 699.713 315.195 701.576L314.628 703.628ZM327.533 710V693.8H332.771C337.226 693.8 339.224 696.338 339.224 701.792C339.224 707.192 336.713 710 332.744 710H327.533ZM330.017 707.948H332.582C335.633 707.948 336.74 705.68 336.74 701.792C336.74 697.391 335.552 695.852 332.474 695.852H330.017V707.948ZM343.327 710V693.8H348.565C353.02 693.8 355.018 696.338 355.018 701.792C355.018 707.192 352.507 710 348.538 710H343.327ZM345.811 707.948H348.376C351.427 707.948 352.534 705.68 352.534 701.792C352.534 697.391 351.346 695.852 348.268 695.852H345.811V707.948Z" fill="#B1259C"/>
<mask id="path-44-inside-11_779_5824" fill="white">
<path d="M584 238H712.025V319.203H584V238Z"/>
</mask>
<path d="M584 238H712.025V319.203H584V238Z" fill="#786823" fill-opacity="0.1"/>
<path d="M584 238V236H582V238H584ZM712.025 238H714.025V236H712.025V238ZM712.025 319.203V321.203H714.025V319.203H712.025ZM584 319.203H582V321.203H584V319.203ZM584 238V240H712.025V238V236H584V238ZM712.025 238H710.025V319.203H712.025H714.025V238H712.025ZM712.025 319.203V317.203H584V319.203V321.203H712.025V319.203ZM584 319.203H586V238H584H582V319.203H584Z" fill="#786823" mask="url(#path-44-inside-11_779_5824)"/>
<mask id="path-46-inside-12_779_5824" fill="white">
<path d="M584 324.62H712.025V405.824H584V324.62Z"/>
</mask>
<path d="M584 324.62H712.025V405.824H584V324.62Z" fill="#786823" fill-opacity="0.1"/>
<path d="M584 324.62V322.62H582V324.62H584ZM712.025 324.62H714.025V322.62H712.025V324.62ZM712.025 405.824V407.824H714.025V405.824H712.025ZM584 405.824H582V407.824H584V405.824ZM584 324.62V326.62H712.025V324.62V322.62H584V324.62ZM712.025 324.62H710.025V405.824H712.025H714.025V324.62H712.025ZM712.025 405.824V403.824H584V405.824V407.824H712.025V405.824ZM584 405.824H586V324.62H584H582V405.824H584Z" fill="#786823" mask="url(#path-46-inside-12_779_5824)"/>
<mask id="path-48-inside-13_779_5824" fill="white">
<path d="M584 411.236H712.025V492.44H584V411.236Z"/>
</mask>
<path d="M584 411.236H712.025V492.44H584V411.236Z" fill="#786823" fill-opacity="0.1"/>
<path d="M584 411.236V409.236H582V411.236H584ZM712.025 411.236H714.025V409.236H712.025V411.236ZM712.025 492.44V494.44H714.025V492.44H712.025ZM584 492.44H582V494.44H584V492.44ZM584 411.236V413.236H712.025V411.236V409.236H584V411.236ZM712.025 411.236H710.025V492.44H712.025H714.025V411.236H712.025ZM712.025 492.44V490.44H584V492.44V494.44H712.025V492.44ZM584 492.44H586V411.236H584H582V492.44H584Z" fill="#786823" mask="url(#path-48-inside-13_779_5824)"/>
<path d="M622.281 462L627.276 445.8H631.137L636.132 462H633.486L632.244 457.599H626.088L624.846 462H622.281ZM626.628 455.628H631.704L631.11 453.576C630.597 451.74 630.084 449.58 629.733 447.852H628.653C628.248 449.607 627.708 451.713 627.195 453.576L626.628 455.628ZM639.533 462V445.8H644.771C649.226 445.8 651.224 448.338 651.224 453.792C651.224 459.192 648.713 462 644.744 462H639.533ZM642.017 459.948H644.582C647.633 459.948 648.74 457.68 648.74 453.792C648.74 449.391 647.552 447.852 644.474 447.852H642.017V459.948ZM655.327 462V445.8H660.565C665.02 445.8 667.018 448.338 667.018 453.792C667.018 459.192 664.507 462 660.538 462H655.327ZM657.811 459.948H660.376C663.427 459.948 664.534 457.68 664.534 453.792C664.534 449.391 663.346 447.852 660.268 447.852H657.811V459.948Z" fill="#786823"/>
<mask id="path-51-inside-14_779_5824" fill="white">
<path d="M584 500.473H712.025V581.677H584V500.473Z"/>
</mask>
<path d="M584 500.473V498.473H582V500.473H584ZM712.025 500.473H714.025V498.473H712.025V500.473ZM712.025 581.677V583.677H714.025V581.677H712.025ZM584 581.677H582V583.677H584V581.677ZM584 500.473V502.473H712.025V500.473V498.473H584V500.473ZM712.025 500.473H710.025V581.677H712.025H714.025V500.473H712.025ZM712.025 581.677V579.677H584V581.677V583.677H712.025V581.677ZM584 581.677H586V500.473H584H582V581.677H584Z" fill="#327831" mask="url(#path-51-inside-14_779_5824)"/>
<mask id="path-53-inside-15_779_5824" fill="white">
<path d="M740 238H868.025V319.203H740V238Z"/>
</mask>
<path d="M740 238H868.025V319.203H740V238Z" fill="#786823" fill-opacity="0.1"/>
<path d="M740 238V236H738V238H740ZM868.025 238H870.025V236H868.025V238ZM868.025 319.203V321.203H870.025V319.203H868.025ZM740 319.203H738V321.203H740V319.203ZM740 238V240H868.025V238V236H740V238ZM868.025 238H866.025V319.203H868.025H870.025V238H868.025ZM868.025 319.203V317.203H740V319.203V321.203H868.025V319.203ZM740 319.203H742V238H740H738V319.203H740Z" fill="#786823" mask="url(#path-53-inside-15_779_5824)"/>
<path d="M782.355 376V359.8H784.839V373.894H793.047V376H782.355ZM797.15 376V359.8H802.388C806.843 359.8 808.841 362.338 808.841 367.792C808.841 373.192 806.33 376 802.361 376H797.15ZM799.634 373.948H802.199C805.25 373.948 806.357 371.68 806.357 367.792C806.357 363.391 805.169 361.852 802.091 361.852H799.634V373.948ZM812.026 371.41L814.402 370.87C814.78 372.976 816.211 374.407 818.668 374.407C821.044 374.407 822.07 373.219 822.07 371.815C822.07 369.952 820.612 369.385 818.155 368.872C814.996 368.251 812.809 367.171 812.809 363.958C812.809 361.393 814.78 359.476 818.533 359.476C822.043 359.476 823.69 361.501 824.149 363.796L821.746 364.228C821.368 362.662 820.45 361.366 818.398 361.366C816.346 361.366 815.239 362.365 815.239 363.769C815.239 365.74 816.832 366.28 819.127 366.847C822.718 367.63 824.581 368.737 824.581 371.626C824.581 374.218 822.799 376.324 818.641 376.324C814.537 376.324 812.431 374.218 812.026 371.41Z" fill="#B1259C"/>
<mask id="path-56-inside-16_779_5824" fill="white">
<path d="M740 238H868.025V319.203H740V238Z"/>
</mask>
<path d="M740 238H868.025V319.203H740V238Z" fill="#786823" fill-opacity="0.1"/>
<path d="M740 238V236H738V238H740ZM868.025 238H870.025V236H868.025V238ZM868.025 319.203V321.203H870.025V319.203H868.025ZM740 319.203H738V321.203H740V319.203ZM740 238V240H868.025V238V236H740V238ZM868.025 238H866.025V319.203H868.025H870.025V238H868.025ZM868.025 319.203V317.203H740V319.203V321.203H868.025V319.203ZM740 319.203H742V238H740H738V319.203H740Z" fill="#786823" mask="url(#path-56-inside-16_779_5824)"/>
<rect x="741" y="325" width="126" height="80" stroke="#1342FF" stroke-width="2"/>
<rect x="741" y="325" width="126" height="80" stroke="#1342FF" stroke-width="2"/>
<path d="M782.355 376V359.8H784.839V373.894H793.047V376H782.355ZM797.15 376V359.8H802.388C806.843 359.8 808.841 362.338 808.841 367.792C808.841 373.192 806.33 376 802.361 376H797.15ZM799.634 373.948H802.199C805.25 373.948 806.357 371.68 806.357 367.792C806.357 363.391 805.169 361.852 802.091 361.852H799.634V373.948ZM812.026 371.41L814.402 370.87C814.78 372.976 816.211 374.407 818.668 374.407C821.044 374.407 822.07 373.219 822.07 371.815C822.07 369.952 820.612 369.385 818.155 368.872C814.996 368.251 812.809 367.171 812.809 363.958C812.809 361.393 814.78 359.476 818.533 359.476C822.043 359.476 823.69 361.501 824.149 363.796L821.746 364.228C821.368 362.662 820.45 361.366 818.398 361.366C816.346 361.366 815.239 362.365 815.239 363.769C815.239 365.74 816.832 366.28 819.127 366.847C822.718 367.63 824.581 368.737 824.581 371.626C824.581 374.218 822.799 376.324 818.641 376.324C814.537 376.324 812.431 374.218 812.026 371.41Z" fill="#B1259C"/>
<mask id="path-61-inside-17_779_5824" fill="white">
<path d="M742 326.41H866V404H742V326.41Z"/>
</mask>
<path d="M742 326.41H866V404H742V326.41Z" fill="#B1259C" fill-opacity="0.1"/>
<path d="M742 326.41V324.41H740V326.41H742ZM866 326.41H868V324.41H866V326.41ZM866 404V406H868V404H866ZM742 404H740V406H742V404ZM742 326.41V328.41H866V326.41V324.41H742V326.41ZM866 326.41H864V404H866H868V326.41H866ZM866 404V402H742V404V406H866V404ZM742 404H744V326.41H742H740V404H742Z" fill="#B1259C" mask="url(#path-61-inside-17_779_5824)"/>
<path d="M784.738 710V693.8H787.222V707.894H795.43V710H784.738ZM799.533 710V693.8H804.771C809.226 693.8 811.224 696.338 811.224 701.792C811.224 707.192 808.713 710 804.744 710H799.533ZM802.017 707.948H804.582C807.633 707.948 808.74 705.68 808.74 701.792C808.74 697.391 807.552 695.852 804.474 695.852H802.017V707.948ZM814.409 705.41L816.785 704.87C817.163 706.976 818.594 708.407 821.051 708.407C823.427 708.407 824.453 707.219 824.453 705.815C824.453 703.952 822.995 703.385 820.538 702.872C817.379 702.251 815.192 701.171 815.192 697.958C815.192 695.393 817.163 693.476 820.916 693.476C824.426 693.476 826.073 695.501 826.532 697.796L824.129 698.228C823.751 696.662 822.833 695.366 820.781 695.366C818.729 695.366 817.622 696.365 817.622 697.769C817.622 699.74 819.215 700.28 821.51 700.847C825.101 701.63 826.964 702.737 826.964 705.626C826.964 708.218 825.182 710.324 821.024 710.324C816.92 710.324 814.814 708.218 814.409 705.41Z" fill="#B1259C"/>
<mask id="path-64-inside-18_779_5824" fill="white">
<path d="M740 411.236H868.025V492.44H740V411.236Z"/>
</mask>
<path d="M740 411.236H868.025V492.44H740V411.236Z" fill="#786823" fill-opacity="0.1"/>
<path d="M740 411.236V409.236H738V411.236H740ZM868.025 411.236H870.025V409.236H868.025V411.236ZM868.025 492.44V494.44H870.025V492.44H868.025ZM740 492.44H738V494.44H740V492.44ZM740 411.236V413.236H868.025V411.236V409.236H740V411.236ZM868.025 411.236H866.025V492.44H868.025H870.025V411.236H868.025ZM868.025 492.44V490.44H740V492.44V494.44H868.025V492.44ZM740 492.44H742V411.236H740H738V492.44H740Z" fill="#786823" mask="url(#path-64-inside-18_779_5824)"/>
<path d="M780.738 462V445.8H783.222V459.894H791.43V462H780.738ZM795.533 462V445.8H800.771C805.226 445.8 807.224 448.338 807.224 453.792C807.224 459.192 804.713 462 800.744 462H795.533ZM798.017 459.948H800.582C803.633 459.948 804.74 457.68 804.74 453.792C804.74 449.391 803.552 447.852 800.474 447.852H798.017V459.948ZM810.409 457.41L812.785 456.87C813.163 458.976 814.594 460.407 817.051 460.407C819.427 460.407 820.453 459.219 820.453 457.815C820.453 455.952 818.995 455.385 816.538 454.872C813.379 454.251 811.192 453.171 811.192 449.958C811.192 447.393 813.163 445.476 816.916 445.476C820.426 445.476 822.073 447.501 822.532 449.796L820.129 450.228C819.751 448.662 818.833 447.366 816.781 447.366C814.729 447.366 813.622 448.365 813.622 449.769C813.622 451.74 815.215 452.28 817.51 452.847C821.101 453.63 822.964 454.737 822.964 457.626C822.964 460.218 821.182 462.324 817.024 462.324C812.92 462.324 810.814 460.218 810.409 457.41Z" fill="#786823"/>
<mask id="path-67-inside-19_779_5824" fill="white">
<path d="M740 500.473H868.025V581.677H740V500.473Z"/>
</mask>
<path d="M740 500.473H868.025V581.677H740V500.473Z" fill="#786823" fill-opacity="0.1"/>
<path d="M740 500.473V498.473H738V500.473H740ZM868.025 500.473H870.025V498.473H868.025V500.473ZM868.025 581.677V583.677H870.025V581.677H868.025ZM740 581.677H738V583.677H740V581.677ZM740 500.473V502.473H868.025V500.473V498.473H740V500.473ZM868.025 500.473H866.025V581.677H868.025H870.025V500.473H868.025ZM868.025 581.677V579.677H740V581.677V583.677H868.025V581.677ZM740 581.677H742V500.473H740H738V581.677H740Z" fill="#786823" mask="url(#path-67-inside-19_779_5824)"/>
<path d="M783.738 552V535.8H786.222V549.894H794.43V552H783.738ZM798.533 552V535.8H803.771C808.226 535.8 810.224 538.338 810.224 543.792C810.224 549.192 807.713 552 803.744 552H798.533ZM801.017 549.948H803.582C806.633 549.948 807.74 547.68 807.74 543.792C807.74 539.391 806.552 537.852 803.474 537.852H801.017V549.948ZM818.755 552.297C815.92 552.297 813.517 550.191 813.517 544.116C813.517 538.581 815.596 535.476 819.781 535.476C823.21 535.476 824.83 537.285 825.397 540.714L823.075 541.227C822.616 538.716 821.779 537.609 819.781 537.609C817 537.609 816.028 539.904 816.028 544.116C816.028 548.274 817.108 550.245 819.754 550.245C822.589 550.245 823.318 548.058 823.372 545.682H819.916V543.738H825.667V552H823.48V548.517H823.075C822.373 550.569 821.104 552.297 818.755 552.297Z" fill="#786823"/>
<mask id="path-70-inside-20_779_5824" fill="white">
<path d="M270 674.258H398.025V740H270V674.258Z"/>
</mask>
<path d="M398.025 740V742H400.025V740H398.025ZM270 740H268V742H270V740ZM398.025 674.258H396.025V740H398.025H400.025V674.258H398.025ZM398.025 740V738H270V740V742H398.025V740ZM270 740H272V674.258H270H268V740H270Z" fill="#327831" mask="url(#path-70-inside-20_779_5824)"/>
<mask id="path-72-inside-21_779_5824" fill="white">
<path d="M426.477 674.258H554.502V740H426.477V674.258Z"/>
</mask>
<path d="M554.502 740V742H556.502V740H554.502ZM426.477 740H424.477V742H426.477V740ZM554.502 674.258H552.502V740H554.502H556.502V674.258H554.502ZM554.502 740V738H426.477V740V742H554.502V740ZM426.477 740H428.477V674.258H426.477H424.477V740H426.477Z" fill="#327831" mask="url(#path-72-inside-21_779_5824)"/>
<mask id="path-74-inside-22_779_5824" fill="white">
<path d="M582.949 674.258H710.974V740H582.949V674.258Z"/>
</mask>
<path d="M710.974 740V742H712.974V740H710.974ZM582.949 740H580.949V742H582.949V740ZM710.974 674.258H708.974V740H710.974H712.974V674.258H710.974ZM710.974 740V738H582.949V740V742H710.974V740ZM582.949 740H584.949V674.258H582.949H580.949V740H582.949Z" fill="#327831" mask="url(#path-74-inside-22_779_5824)"/>
<mask id="path-76-inside-23_779_5824" fill="white">
<path d="M739.426 674.258H867.451V740H739.426V674.258Z"/>
</mask>
<path d="M867.451 740V742H869.451V740H867.451ZM739.426 740H737.426V742H739.426V740ZM867.451 674.258H865.451V740H867.451H869.451V674.258H867.451ZM867.451 740V738H739.426V740V742H867.451V740ZM739.426 740H741.426V674.258H739.426H737.426V740H739.426Z" fill="#327831" mask="url(#path-76-inside-23_779_5824)"/>
<rect x="51" y="234.064" width="126.025" height="79.204" stroke="#327831" stroke-width="2"/>
<path d="M105.209 269.825L111.473 267.8H112.823V281.975H116.738V284H105.56V281.975H110.447V269.771C109.124 270.554 107.612 271.283 105.992 271.85L105.209 269.825Z" fill="#327831"/>
<rect x="51" y="320.686" width="126.025" height="79.204" stroke="#327831" stroke-width="2"/>
<path d="M107.074 370C107.047 369.541 107.047 369.055 107.047 368.569C107.047 364.978 108.451 363.601 111.691 362.413C115.336 361.171 116.281 360.118 116.281 358.228C116.281 356.581 115.444 355.42 113.446 355.42C111.205 355.42 110.233 356.905 109.882 359.173L107.587 358.768C108.127 355.609 109.909 353.503 113.419 353.503C116.794 353.503 118.657 355.231 118.657 358.39C118.657 361.495 116.227 362.872 113.122 363.898C109.855 365.032 108.937 365.896 108.856 368.407C110.449 368.164 112.987 367.975 114.715 367.975H118.819V370H107.074Z" fill="#327831"/>
<rect x="51" y="407.301" width="126.025" height="79.204" stroke="#327831" stroke-width="2"/>
<path d="M106.993 451.41L109.342 450.978C109.774 452.868 111.043 454.434 113.311 454.434C115.471 454.434 116.551 453.192 116.551 451.491C116.551 449.763 115.66 448.737 113.5 448.737H110.989V447.036H113.446C114.931 447.036 116.011 446.253 116.011 444.255C116.011 442.473 115.039 441.393 113.284 441.393C111.313 441.393 110.341 442.77 109.936 444.633L107.695 444.363C108.181 441.609 109.909 439.53 113.257 439.53C116.524 439.53 118.333 441.069 118.333 443.823C118.333 445.983 117.091 447.144 114.85 447.603V448.17C117.982 448.386 118.954 449.439 118.954 451.734C118.954 454.326 116.983 456.27 113.311 456.27C109.855 456.27 107.56 454.434 106.993 451.41Z" fill="#327831"/>
<rect x="51" y="496.533" width="126.025" height="79.204" stroke="#327831" stroke-width="2"/>
<path d="M106.372 541.437V539.898L114.013 529.8H117.01V539.574H119.629V541.437H117.01V546H114.634V541.437H106.372ZM114.634 539.574V531.717L114.337 531.609L108.316 539.628L108.586 540.087C110.341 539.763 112.528 539.574 114.04 539.574H114.634Z" fill="#327831"/>
<path d="M550.328 51.368C550.328 44.936 553.016 41.416 557.88 41.416C561.88 41.416 564.12 43.656 564.664 47.848L561.912 48.488C561.336 45.32 560.216 43.944 557.816 43.944C554.424 43.944 553.272 46.76 553.272 51.368C553.272 56.232 554.456 58.92 557.752 58.92C560.408 58.92 561.464 57.48 562.072 54.248L564.824 54.856C564.216 59.144 562.008 61.384 557.752 61.384C552.792 61.384 550.328 57.832 550.328 51.368ZM568.471 66.44L568.919 64.008C569.591 64.136 570.231 64.2 570.871 64.2C572.759 64.2 573.847 63.688 575.191 60.936L568.503 46.056H571.607L573.559 51.432C574.327 53.608 575.447 56.456 576.247 58.856H577.047C577.847 56.392 578.871 53.48 579.607 51.432L581.431 46.056H584.407L577.687 61.192C575.991 64.968 574.135 66.632 570.839 66.632C569.847 66.632 569.111 66.536 568.471 66.44ZM588.117 53.64C588.117 48.648 590.869 45.672 595.445 45.672C599.253 45.672 601.365 47.464 602.005 50.76L599.477 51.336C598.965 49.256 597.877 47.944 595.381 47.944C592.469 47.944 590.933 49.832 590.933 53.544C590.933 56.904 592.277 59.08 595.445 59.08C597.909 59.08 599.125 57.48 599.573 55.72L602.069 56.488C601.397 59.592 599.061 61.384 595.477 61.384C590.741 61.384 588.117 58.568 588.117 53.64ZM607.06 61V58.792H612.724V41.768H607.348V39.56H615.476V58.792H620.66V61H607.06ZM632.915 61.384C628.371 61.384 625.651 58.632 625.651 53.64C625.651 48.648 628.531 45.672 632.915 45.672C637.203 45.672 639.475 48.328 639.475 52.456C639.475 52.904 639.443 53.608 639.347 54.216H628.435C628.595 57.416 630.035 59.176 632.915 59.176C635.347 59.176 636.467 57.864 636.915 56.328L639.283 56.936C638.611 59.528 636.627 61.384 632.915 61.384ZM628.467 52.36H636.883C636.819 49.352 635.507 47.72 632.851 47.72C630.259 47.72 628.755 49.224 628.467 52.36ZM651.538 61.384C647.218 61.384 645.106 59.528 644.466 56.776L647.026 56.264C647.538 58.088 648.882 59.336 651.57 59.336C653.81 59.336 655.25 58.632 655.25 57.096C655.25 55.432 653.426 54.92 651.058 54.536C647.826 54.024 645.266 53.096 645.266 50.088C645.266 47.528 647.282 45.672 651.378 45.672C655.442 45.672 656.85 47.4 657.49 49.736L654.962 50.216C654.482 48.296 653.298 47.688 651.282 47.688C649.042 47.688 647.954 48.488 647.954 49.864C647.954 51.528 649.682 51.976 651.922 52.36C655.538 52.936 658.034 53.768 658.034 56.936C658.034 59.464 656.018 61.384 651.538 61.384Z" fill="#327831"/>
<path d="M450.326 139V127.792H452.294V130.576H452.654C453.35 128.872 454.766 127.504 456.542 127.504C458.486 127.504 459.638 128.872 459.638 131.368V139H457.55V131.848C457.55 130.288 457.022 129.4 455.606 129.4C453.734 129.4 452.414 130.888 452.414 132.832V139H450.326ZM481.956 137.008V132.664H477.684V130.72H481.956V126.448H484.068V130.72H488.316V132.664H484.068V137.008H481.956ZM505.931 126.4L511.499 124.6H512.699V137.2H516.179V139H506.243V137.2H510.587V126.352C509.411 127.048 508.067 127.696 506.627 128.2L505.931 126.4Z" fill="#327831"/>
<path d="M320.404 139V127.792H322.372V130.576H322.732C323.428 128.872 324.844 127.504 326.62 127.504C328.564 127.504 329.716 128.872 329.716 131.368V139H327.628V131.848C327.628 130.288 327.1 129.4 325.684 129.4C323.812 129.4 322.492 130.888 322.492 132.832V139H320.404Z" fill="#327831"/>
<path d="M606.326 139V127.792H608.294V130.576H608.654C609.35 128.872 610.766 127.504 612.542 127.504C614.486 127.504 615.638 128.872 615.638 131.368V139H613.55V131.848C613.55 130.288 613.022 129.4 611.606 129.4C609.734 129.4 608.414 130.888 608.414 132.832V139H606.326ZM637.956 137.008V132.664H633.684V130.72H637.956V126.448H640.068V130.72H644.316V132.664H640.068V137.008H637.956ZM661.811 139C661.787 138.592 661.787 138.16 661.787 137.728C661.787 134.536 663.035 133.312 665.915 132.256C669.155 131.152 669.995 130.216 669.995 128.536C669.995 127.072 669.251 126.04 667.475 126.04C665.483 126.04 664.619 127.36 664.307 129.376L662.267 129.016C662.747 126.208 664.331 124.336 667.451 124.336C670.451 124.336 672.107 125.872 672.107 128.68C672.107 131.44 669.947 132.664 667.187 133.576C664.283 134.584 663.467 135.352 663.395 137.584C664.811 137.368 667.067 137.2 668.603 137.2H672.251V139H661.811Z" fill="#327831"/>
<path d="M762.326 139V127.792H764.294V130.576H764.654C765.35 128.872 766.766 127.504 768.542 127.504C770.486 127.504 771.638 128.872 771.638 131.368V139H769.55V131.848C769.55 130.288 769.022 129.4 767.606 129.4C765.734 129.4 764.414 130.888 764.414 132.832V139H762.326ZM793.956 137.008V132.664H789.684V130.72H793.956V126.448H796.068V130.72H800.316V132.664H796.068V137.008H793.956ZM817.739 134.92L819.827 134.536C820.211 136.216 821.339 137.608 823.355 137.608C825.275 137.608 826.235 136.504 826.235 134.992C826.235 133.456 825.443 132.544 823.523 132.544H821.291V131.032H823.475C824.795 131.032 825.755 130.336 825.755 128.56C825.755 126.976 824.891 126.016 823.331 126.016C821.579 126.016 820.715 127.24 820.355 128.896L818.363 128.656C818.795 126.208 820.331 124.36 823.307 124.36C826.211 124.36 827.819 125.728 827.819 128.176C827.819 130.096 826.715 131.128 824.723 131.536V132.04C827.507 132.232 828.371 133.168 828.371 135.208C828.371 137.512 826.619 139.24 823.355 139.24C820.283 139.24 818.243 137.608 817.739 134.92Z" fill="#327831"/>
<path d="M475.43 623.852V621.8H486.365V623.852H482.126V635.948H486.365V638H475.43V635.948H479.669V623.852H475.43ZM496.894 638.324C493.249 638.324 491.467 636.758 490.927 634.436L493.087 634.004C493.519 635.543 494.653 636.596 496.921 636.596C498.811 636.596 500.026 636.002 500.026 634.706C500.026 633.302 498.487 632.87 496.489 632.546C493.762 632.114 491.602 631.331 491.602 628.793C491.602 626.633 493.303 625.067 496.759 625.067C500.188 625.067 501.376 626.525 501.916 628.496L499.783 628.901C499.378 627.281 498.379 626.768 496.678 626.768C494.788 626.768 493.87 627.443 493.87 628.604C493.87 630.008 495.328 630.386 497.218 630.71C500.269 631.196 502.375 631.898 502.375 634.571C502.375 636.704 500.674 638.324 496.894 638.324ZM512.688 638.324C509.043 638.324 507.261 636.758 506.721 634.436L508.881 634.004C509.313 635.543 510.447 636.596 512.715 636.596C514.605 636.596 515.82 636.002 515.82 634.706C515.82 633.302 514.281 632.87 512.283 632.546C509.556 632.114 507.396 631.331 507.396 628.793C507.396 626.633 509.097 625.067 512.553 625.067C515.982 625.067 517.17 626.525 517.71 628.496L515.577 628.901C515.172 627.281 514.173 626.768 512.472 626.768C510.582 626.768 509.664 627.443 509.664 628.604C509.664 630.008 511.122 630.386 513.012 630.71C516.063 631.196 518.169 631.898 518.169 634.571C518.169 636.704 516.468 638.324 512.688 638.324ZM523.001 633.977V625.391H525.35V633.437C525.35 635.192 525.971 636.164 527.537 636.164C529.643 636.164 531.128 634.517 531.128 632.303V625.391H533.45V638H531.236V634.841H530.831C530.048 636.785 528.455 638.324 526.484 638.324C524.297 638.324 523.001 636.785 523.001 633.977ZM544.357 638.324C540.523 638.324 538.228 636.002 538.228 631.79C538.228 627.578 540.658 625.067 544.357 625.067C547.975 625.067 549.892 627.308 549.892 630.791C549.892 631.169 549.865 631.763 549.784 632.276H540.577C540.712 634.976 541.927 636.461 544.357 636.461C546.409 636.461 547.354 635.354 547.732 634.058L549.73 634.571C549.163 636.758 547.489 638.324 544.357 638.324ZM540.604 630.71H547.705C547.651 628.172 546.544 626.795 544.303 626.795C542.116 626.795 540.847 628.064 540.604 630.71ZM569.276 633.41L571.652 632.87C572.03 634.976 573.461 636.407 575.918 636.407C578.294 636.407 579.32 635.219 579.32 633.815C579.32 631.952 577.862 631.385 575.405 630.872C572.246 630.251 570.059 629.171 570.059 625.958C570.059 623.393 572.03 621.476 575.783 621.476C579.293 621.476 580.94 623.501 581.399 625.796L578.996 626.228C578.618 624.662 577.7 623.366 575.648 623.366C573.596 623.366 572.489 624.365 572.489 625.769C572.489 627.74 574.082 628.28 576.377 628.847C579.968 629.63 581.831 630.737 581.831 633.626C581.831 636.218 580.049 638.324 575.891 638.324C571.787 638.324 569.681 636.218 569.276 633.41ZM585.718 638V636.137H590.497V621.773H585.961V619.91H592.819V636.137H597.193V638H585.718ZM601.134 631.655C601.134 627.767 603.51 625.067 607.263 625.067C610.989 625.067 613.365 627.767 613.365 631.655C613.365 635.516 611.178 638.324 607.263 638.324C603.321 638.324 601.134 635.516 601.134 631.655ZM603.483 631.628C603.483 634.328 604.59 636.407 607.236 636.407C609.882 636.407 611.016 634.328 611.016 631.628C611.016 628.928 609.801 626.984 607.263 626.984C604.698 626.984 603.483 628.928 603.483 631.628ZM620.033 633.329V627.254H616.793V625.391H620.033V621.8H622.382V625.391H628.673V627.254H622.382V632.978C622.382 635.165 623.219 636.299 625.379 636.299C626.297 636.299 627.269 636.083 628.511 635.543L628.97 637.379C627.566 638 626.324 638.324 624.866 638.324C621.491 638.324 620.033 636.218 620.033 633.329ZM639.04 638.324C635.395 638.324 633.613 636.758 633.073 634.436L635.233 634.004C635.665 635.543 636.799 636.596 639.067 636.596C640.957 636.596 642.172 636.002 642.172 634.706C642.172 633.302 640.633 632.87 638.635 632.546C635.908 632.114 633.748 631.331 633.748 628.793C633.748 626.633 635.449 625.067 638.905 625.067C642.334 625.067 643.522 626.525 644.062 628.496L641.929 628.901C641.524 627.281 640.525 626.768 638.824 626.768C636.934 626.768 636.016 627.443 636.016 628.604C636.016 630.008 637.474 630.386 639.364 630.71C642.415 631.196 644.521 631.898 644.521 634.571C644.521 636.704 642.82 638.324 639.04 638.324Z" fill="#327831"/>
<path d="M83.0581 164L80.9791 147.8H83.4361L83.9761 153.983C84.2461 156.764 84.3541 159.194 84.5431 161.921H84.9481C85.2451 160.031 85.5421 158.357 85.8931 156.521L86.9731 150.662H89.7541L90.7531 156.251C91.0771 158.087 91.3741 159.869 91.6441 161.921H92.0761C92.2651 159.194 92.4271 156.71 92.6971 153.983L93.2911 147.8H95.6401L93.5341 164H90.2941L89.2681 158.924C88.8631 156.872 88.7011 154.874 88.5391 152.741H88.0801C87.8911 154.793 87.6751 156.818 87.2701 158.87L86.1901 164H83.0581ZM102.146 164.27C99.8241 164.27 98.1771 162.974 98.1771 160.706C98.1771 158.6 99.6081 157.088 102.767 157.088H106.898V155.738C106.898 154.172 106.088 152.957 104.117 152.957C102.416 152.957 101.39 153.875 100.904 155.063L98.7711 154.307C99.4461 152.498 101.363 151.067 104.171 151.067C107.6 151.067 109.247 152.876 109.247 155.711V164H107.141V161.165H106.709C105.98 162.947 104.441 164.27 102.146 164.27ZM106.898 158.519H103.226C101.417 158.519 100.364 159.248 100.364 160.571C100.364 161.57 101.201 162.461 103.01 162.461C105.305 162.461 106.898 161.111 106.898 159.302V158.519ZM115.24 164V151.391H117.373V155.117L117.616 155.144C118.588 152.417 120.424 151.121 122.665 151.121C123.88 151.121 124.798 151.391 126.067 152.012L125.527 154.145C124.42 153.551 123.286 153.227 122.26 153.227C119.425 153.227 117.562 154.982 117.562 158.114V164H115.24ZM141.969 157.763C141.969 161.921 139.998 164.324 137.406 164.324C135.381 164.324 133.788 162.812 133.059 160.949H132.735V168.509H130.386V151.391H132.735V154.361H133.059C133.761 152.525 135.111 151.067 137.298 151.067C140.025 151.067 141.969 153.551 141.969 157.763ZM132.735 158.654C132.735 160.733 134.193 162.299 136.191 162.299C138.378 162.299 139.674 160.706 139.674 157.736C139.674 154.739 138.351 153.2 136.218 153.2C134.166 153.2 132.735 154.739 132.735 156.899V158.654ZM74.0271 195.41L76.4031 194.87C76.7811 196.976 78.2121 198.407 80.6691 198.407C83.0451 198.407 84.0711 197.219 84.0711 195.815C84.0711 193.952 82.6131 193.385 80.1561 192.872C76.9971 192.251 74.8101 191.171 74.8101 187.958C74.8101 185.393 76.7811 183.476 80.5341 183.476C84.0441 183.476 85.6911 185.501 86.1501 187.796L83.7471 188.228C83.3691 186.662 82.4511 185.366 80.3991 185.366C78.3471 185.366 77.2401 186.365 77.2401 187.769C77.2401 189.74 78.8331 190.28 81.1281 190.847C84.7191 191.63 86.5821 192.737 86.5821 195.626C86.5821 198.218 84.8001 200.324 80.6421 200.324C76.5381 200.324 74.4321 198.218 74.0271 195.41ZM90.4691 200V198.137H95.2481V183.773H90.7121V181.91H97.5701V198.137H101.944V200H90.4691ZM105.885 193.655C105.885 189.767 108.261 187.067 112.014 187.067C115.74 187.067 118.116 189.767 118.116 193.655C118.116 197.516 115.929 200.324 112.014 200.324C108.072 200.324 105.885 197.516 105.885 193.655ZM108.234 193.628C108.234 196.328 109.341 198.407 111.987 198.407C114.633 198.407 115.767 196.328 115.767 193.628C115.767 190.928 114.552 188.984 112.014 188.984C109.449 188.984 108.234 190.928 108.234 193.628ZM124.784 195.329V189.254H121.544V187.391H124.784V183.8H127.133V187.391H133.424V189.254H127.133V194.978C127.133 197.165 127.97 198.299 130.13 198.299C131.048 198.299 132.02 198.083 133.262 197.543L133.721 199.379C132.317 200 131.075 200.324 129.617 200.324C126.242 200.324 124.784 198.218 124.784 195.329ZM143.791 200.324C140.146 200.324 138.364 198.758 137.824 196.436L139.984 196.004C140.416 197.543 141.55 198.596 143.818 198.596C145.708 198.596 146.923 198.002 146.923 196.706C146.923 195.302 145.384 194.87 143.386 194.546C140.659 194.114 138.499 193.331 138.499 190.793C138.499 188.633 140.2 187.067 143.656 187.067C147.085 187.067 148.273 188.525 148.813 190.496L146.68 190.901C146.275 189.281 145.276 188.768 143.575 188.768C141.685 188.768 140.767 189.443 140.767 190.604C140.767 192.008 142.225 192.386 144.115 192.71C147.166 193.196 149.272 193.898 149.272 196.571C149.272 198.704 147.571 200.324 143.791 200.324Z" fill="#327831"/>
<path d="M870 164L860 158.226V169.774L870 164ZM270 164V165H861V164V163H270V164Z" fill="#327831"/>
</svg>
